<svg width="23" height="20" viewBox="0 0 23 20" fill="none" xmlns="http://www.w3.org/2000/svg">
<g clip-path="url(#clip0_1436_16292)">
<path d="M22.8276 5.94371L17.0806 0.173194C16.9709 0.0629797 16.822 0 16.6653 0C16.5086 0 16.3597 0.0629797 16.25 0.173194L13.0886 3.34973C12.9593 3.47963 12.9593 3.69219 13.0886 3.82208C13.2178 3.95198 13.4294 3.95198 13.5587 3.82208L16.6614 0.704586L22.2948 6.36489L12.1444 16.5637L10.9613 15.3749C11.0083 15.3198 11.0553 15.2647 11.1024 15.2057L11.2826 14.9734C11.3962 15.0049 11.5215 14.9931 11.6351 14.9301C11.9485 14.7609 12.3364 14.7609 12.6498 14.9301C12.7242 14.9695 12.8026 14.9892 12.877 14.9892C12.9985 14.9892 13.1199 14.9419 13.21 14.8475L13.9818 14.072C14.111 13.9421 14.111 13.7296 13.9818 13.5997C13.8525 13.4698 13.6409 13.4698 13.5117 13.5997L12.8339 14.2807C12.544 14.1547 12.2345 14.1075 11.929 14.1468L12.164 13.8477L13.6684 12.3362L15.0082 10.99C15.4234 10.8797 15.8034 10.6633 16.1129 10.3562C17.0571 9.4076 17.0571 7.86066 16.1129 6.90809C15.1688 5.95946 13.6292 5.95946 12.6811 6.90809C12.0504 7.54182 11.8232 8.48258 12.0739 9.32887C11.7958 9.49813 11.5411 9.69101 11.3335 9.89963L10.0054 11.2379C9.91925 11.3245 9.80564 11.3718 9.6842 11.3718H9.67245C9.49224 11.3718 9.23368 11.1671 9.15925 10.9782V9.81697L15.9719 2.98366C16.4185 3.18048 16.9199 3.18048 17.3665 2.98366L20.0344 5.66424C19.8385 6.11297 19.8385 6.61681 20.0344 7.06554L14.6399 12.4857C14.5106 12.6156 14.5106 12.8282 14.6399 12.9581C14.7065 13.025 14.7888 13.0565 14.875 13.0565C14.9612 13.0565 15.0473 13.025 15.11 12.9581L20.6024 7.43948C20.7513 7.2899 20.7826 7.0616 20.6847 6.87266C20.5163 6.55776 20.5163 6.16808 20.6847 5.85318C20.7866 5.66424 20.7552 5.43594 20.6024 5.28636L17.7426 2.41291C17.5938 2.26333 17.3665 2.23184 17.1785 2.33025C16.8651 2.49951 16.4772 2.49951 16.1638 2.33025C15.9758 2.22791 15.7525 2.2594 15.5997 2.41291L9.171 8.87227V8.23854L12.4422 4.95178C12.5323 4.86125 12.5636 4.72742 12.5205 4.60539C12.4774 4.48337 12.3716 4.39677 12.2424 4.38496C11.6861 4.32198 11.1376 4.27869 10.6988 4.23932C10.3972 4.21571 10.1582 4.19602 10.0172 4.17634C9.57842 4.12517 9.15141 4.27475 8.71264 4.64082L5.80581 6.94745C5.80581 6.94745 5.8019 6.94745 5.79798 6.95139C5.33179 7.33714 5.00271 7.85279 4.84209 8.43928C4.54044 9.53749 3.89013 11.5332 3.47878 12.344L2.06063 13.7689L2.0097 13.7138C1.86867 13.5721 1.68454 13.4973 1.48866 13.4973C1.29278 13.4973 1.10866 13.5761 0.967626 13.7138L0.219372 14.4657C0.0783399 14.6074 0.00390625 14.7924 0.00390625 14.9892C0.00390625 15.186 0.0822575 15.371 0.219372 15.5127L4.46993 19.7835C4.61096 19.9252 4.79508 20 4.99096 20C5.18684 20 5.37096 19.9213 5.512 19.7835L6.26025 19.0317C6.40128 18.8939 6.47572 18.705 6.47572 18.5082C6.47572 18.3114 6.39737 18.1264 6.26025 17.9846L6.20541 17.9295L6.55799 17.5753C6.71077 17.4218 6.89881 17.3116 7.10644 17.2486C7.11036 17.2486 7.11428 17.2486 7.1182 17.2446L9.25327 16.5204C9.70379 16.3669 10.119 16.1307 10.4873 15.8355L11.7331 17.0872C11.8428 17.1974 11.9916 17.2604 12.1483 17.2604C12.305 17.2604 12.4539 17.1974 12.5636 17.0872L22.8276 6.77819C22.9373 6.66798 23 6.5184 23 6.36095C23 6.2035 22.9373 6.05393 22.8276 5.94371ZM13.4451 11.6237L13.2022 11.3796C13.116 11.2931 13.116 11.1553 13.2022 11.0687L13.6801 10.5885C13.8251 10.4428 14.0131 10.372 14.2051 10.372C14.3383 10.372 14.4715 10.4074 14.589 10.4783L13.449 11.6237H13.4451ZM13.163 7.38044C13.8486 6.6916 14.9651 6.6916 15.6506 7.38044C16.2931 8.02598 16.3323 9.04546 15.776 9.73824C15.776 9.49026 15.6742 9.25802 15.4822 9.05727C15.2706 8.80142 14.922 8.65578 14.4793 8.63216C13.9387 8.60461 13.2923 8.75025 12.689 9.01397C12.5636 8.43141 12.7321 7.80949 13.163 7.38044ZM5.78623 18.5593L5.03797 19.3112C5.03797 19.3112 5.00271 19.3308 4.98704 19.3308C4.97137 19.3308 4.9557 19.3308 4.93612 19.3112L0.685562 15.0403C0.685562 15.0403 0.665974 15.0049 0.665974 14.9892C0.665974 14.9734 0.665974 14.9577 0.685562 14.938L1.43382 14.1862C1.43382 14.1862 1.46907 14.1665 1.48474 14.1665C1.50041 14.1665 1.51608 14.1665 1.53567 14.1862L5.78623 18.457C5.78623 18.457 5.80581 18.4924 5.80581 18.5082C5.80581 18.5239 5.80581 18.5397 5.78623 18.5593ZM10.9613 14.3121L10.5852 14.7924C10.4873 14.9183 10.3815 15.0325 10.2679 15.1427C9.91925 15.4773 9.50399 15.7292 9.04564 15.8866L6.9184 16.607C6.60891 16.6975 6.32293 16.8707 6.0918 17.099L5.73921 17.4533L2.53465 14.2334L3.98807 12.7731C4.01157 12.7495 4.03116 12.7219 4.04683 12.6904C4.48168 11.8559 5.16333 9.78154 5.48457 8.60854C5.60994 8.15588 5.86458 7.76225 6.22108 7.4631L9.1279 5.15647C9.1279 5.15647 9.13182 5.15647 9.13574 5.15253C9.43739 4.90455 9.6842 4.80614 9.93884 4.83763C10.0916 4.85731 10.3384 4.87699 10.644 4.90061C10.8908 4.92029 11.1729 4.94391 11.4706 4.97146L8.59904 7.85672C8.53635 7.9197 8.5011 8.0063 8.5011 8.09289V11.0254C8.5011 11.0529 8.50501 11.0844 8.51285 11.112C8.64213 11.604 9.19059 12.037 9.68028 12.037H9.69203C9.99369 12.037 10.2758 11.9189 10.4873 11.7064L11.8154 10.372C12.0347 10.1515 12.3168 9.9508 12.6263 9.78548C12.642 9.7776 12.6537 9.77367 12.6655 9.76186C13.2492 9.45483 13.9191 9.26983 14.444 9.29738C14.6987 9.30919 14.8867 9.38004 14.9768 9.49026C14.9847 9.49813 14.9925 9.50994 15.0003 9.51781C15.1179 9.6359 15.1179 9.73037 15.1061 9.80122C15.0944 9.85633 15.0708 9.91537 15.0356 9.97441C14.4871 9.56505 13.7036 9.61228 13.2061 10.1122L12.7281 10.5924C12.5597 10.7617 12.4696 10.9821 12.4696 11.2222C12.4696 11.4623 12.5636 11.6827 12.7281 11.852L12.971 12.096L11.69 13.3832C11.69 13.3832 11.6704 13.4029 11.6626 13.4107L10.9613 14.3043V14.3121Z" fill="#25BBEE"/>
</g>
<defs>
<clipPath id="clip0_1436_16292">
<rect width="23" height="20" fill="white"/>
</clipPath>
</defs>
</svg>
