<svg width="35" height="35" viewBox="0 0 35 35" fill="none" xmlns="http://www.w3.org/2000/svg">
<g clip-path="url(#clip0_1774_51014)">
<path d="M23.7214 28.8474C22.0245 28.8474 20.6459 27.467 20.6459 25.7719H22.6962C22.6962 26.3381 23.1569 26.7971 23.7214 26.7971C24.2858 26.7971 24.7466 26.3364 24.7466 25.7719C24.7466 25.2074 24.2858 24.7467 23.7214 24.7467C22.0245 24.7467 20.6459 23.3664 20.6459 21.6712C20.6459 19.9761 22.0262 18.5957 23.7214 18.5957C25.4165 18.5957 26.7969 19.969 26.7969 21.6589H24.7466C24.7466 21.1015 24.2858 20.6478 23.7214 20.6478C23.1569 20.6478 22.6962 21.1085 22.6962 21.673C22.6962 22.2374 23.1569 22.6981 23.7214 22.6981C25.4183 22.6981 26.7969 24.0785 26.7969 25.7737C26.7969 27.4688 25.4165 28.8492 23.7214 28.8492V28.8474Z" fill="#8A8C8F"/>
<path d="M24.7465 16.543H22.6962V19.6185H24.7465V16.543Z" fill="#8A8C8F"/>
<path d="M24.7465 27.8223H22.6962V30.8855H24.7465V27.8223Z" fill="#8A8C8F"/>
<path d="M23.7213 35.0002C20.7091 35.0002 17.8763 33.8274 15.745 31.6961C13.6138 29.5667 12.4409 26.7338 12.4409 23.7198C12.4409 20.7059 13.6138 17.8748 15.745 15.7436C17.8763 13.6123 20.7073 12.4395 23.7213 12.4395C26.7353 12.4395 29.5664 13.6123 31.6976 15.7436C33.8288 17.8748 35.0017 20.7059 35.0017 23.7198C35.0017 26.7338 33.8288 29.5649 31.6976 31.6961C29.5664 33.8274 26.7353 35.0002 23.7213 35.0002ZM23.7213 14.4933C18.6324 14.4933 14.493 18.6327 14.493 23.7216C14.493 28.8105 18.6324 32.9499 23.7213 32.9499C28.8102 32.9499 32.9496 28.8105 32.9496 23.7216C32.9496 18.6327 28.8102 14.4933 23.7213 14.4933Z" fill="#8A8C8F"/>
<path d="M11.4158 12.3056C8.51437 12.3056 5.75538 11.7358 3.64525 10.6984C1.29421 9.54482 0 7.92881 0 6.15278C0 4.37676 1.29421 2.76075 3.64525 1.60721C5.75538 0.569735 8.51437 0 11.4158 0C14.3172 0 17.0481 0.571493 19.1248 1.61073C21.4266 2.76251 22.6944 4.375 22.6944 6.15278C22.6944 7.93057 21.4266 9.54482 19.1248 10.6948C17.0481 11.7323 14.3102 12.3056 11.4158 12.3056ZM11.4158 2.0521C8.85902 2.0521 6.35676 2.56205 4.54909 3.4483C2.96121 4.22729 2.05034 5.21378 2.05034 6.15278C2.05034 7.09179 2.96121 8.07828 4.54909 8.85727C6.35676 9.74528 8.86078 10.2535 11.4158 10.2535C16.8547 10.2535 20.6441 8.09234 20.6441 6.15103C20.6441 4.20971 16.8547 2.04858 11.4158 2.04858V2.0521Z" fill="#8A8C8F"/>
<path d="M11.4158 18.5942C8.51437 18.5942 5.75538 18.0245 3.64525 16.987C1.29421 15.8334 0 14.2192 0 12.4414H2.05034C2.05034 13.3804 2.96121 14.3669 4.54909 15.1459C6.35676 16.0339 8.86078 16.5421 11.4158 16.5421C12.921 16.5421 14.3594 16.375 15.6923 16.048L16.1829 18.0385C14.69 18.406 13.0863 18.5924 11.4158 18.5924V18.5942Z" fill="#8A8C8F"/>
<path d="M11.4158 30.8971C8.51437 30.8971 5.75538 30.3274 3.64525 29.2899C1.29421 28.1381 0 26.5221 0 24.7461V6.15234H2.05034V24.7461C2.05034 25.6851 2.96121 26.6716 4.54909 27.4506C6.35676 28.3386 8.86078 28.8468 11.4158 28.8468C12.6731 28.8468 13.8952 28.729 15.0487 28.4968L15.4549 30.5067C14.1695 30.7652 12.8102 30.8971 11.4176 30.8971H11.4158Z" fill="#8A8C8F"/>
<path d="M22.6944 6.15234H20.644V13.6714H22.6944V6.15234Z" fill="#8A8C8F"/>
<path d="M11.4158 24.7465C8.51437 24.7465 5.75538 24.1768 3.64525 23.1393C1.29421 21.9858 0 20.3715 0 18.5938H2.05034C2.05034 19.5328 2.96121 20.5192 4.54909 21.2982C6.35676 22.1862 8.86078 22.6944 11.4158 22.6944C12.0717 22.6944 12.7276 22.661 13.3641 22.5977L13.5716 24.6375C12.8665 24.7096 12.142 24.7448 11.4176 24.7448L11.4158 24.7465Z" fill="#8A8C8F"/>
</g>
<defs>
<clipPath id="clip0_1774_51014">
<rect width="35" height="35" fill="white"/>
</clipPath>
</defs>
</svg>
