<svg width="43" height="43" viewBox="0 0 43 43" fill="none" xmlns="http://www.w3.org/2000/svg">
<g clip-path="url(#clip0_1387_20723)">
<path d="M21.1256 24.3723C22.9614 24.3723 24.4496 22.8835 24.4496 21.047C24.4496 19.2105 22.9614 17.7217 21.1256 17.7217C19.2898 17.7217 17.8016 19.2105 17.8016 21.047C17.8016 22.8835 19.2898 24.3723 21.1256 24.3723Z" fill="white"/>
<path d="M25.3775 12.6414H16.8737C14.5792 12.6414 12.7197 14.5016 12.7197 16.7971V25.3007C12.7197 27.5962 14.5792 29.4565 16.8737 29.4565H25.3775C27.6721 29.4565 29.5316 27.5962 29.5316 25.3007V16.7935C29.5316 14.5016 27.6721 12.6414 25.3775 12.6414ZM21.1256 26.4902C18.1206 26.4902 15.6811 24.0569 15.6811 21.0471C15.6811 18.0409 18.1134 15.6004 21.122 15.6004C24.127 15.6004 26.5665 18.0337 26.5665 21.0435C26.5665 24.0497 24.1306 26.4865 21.1256 26.4902ZM26.5991 16.9458C25.856 16.9458 25.2543 16.3474 25.2507 15.604C25.247 14.8606 25.8488 14.2587 26.5919 14.2551C27.3349 14.2551 27.9367 14.8534 27.9403 15.5968C27.9403 15.5968 27.9403 15.6004 27.9403 15.604C27.9403 16.3438 27.3386 16.9458 26.5991 16.9458Z" fill="white"/>
<path d="M21.1256 0C9.50807 0 0.0871582 9.42473 0.0871582 21.047C0.0871582 32.6693 9.50807 42.094 21.1256 42.094C32.7432 42.094 42.1641 32.6693 42.1641 21.047C42.1641 9.42473 32.7468 0 21.1256 0ZM31.6448 25.3006C31.6448 28.7637 28.8392 31.5669 25.3775 31.5705H16.8737C13.4156 31.5669 10.61 28.7601 10.6064 25.3006V16.7934C10.61 13.3339 13.4156 10.5271 16.8737 10.5235H25.3775C28.8356 10.5271 31.6412 13.3339 31.6448 16.7934V25.3006Z" fill="white"/>
</g>
<defs>
<clipPath id="clip0_1387_20723">
<rect width="42.0769" height="42.094" fill="white" transform="translate(0.0871582)"/>
</clipPath>
</defs>
</svg>
