<svg width="30" height="27" viewBox="0 0 30 27" fill="none" xmlns="http://www.w3.org/2000/svg">
<g clip-path="url(#clip0_1214_111845)">
<path d="M16.9143 21.1943C16.4237 21.1943 15.9711 20.975 15.672 20.5925C15.3596 20.1925 15.2538 19.6698 15.3813 19.1592C15.5173 18.6147 15.9747 18.1573 16.5191 18.0214C17.0225 17.8957 17.5415 18.0159 17.9428 18.3507C18.3283 18.6728 18.5391 19.1519 18.5071 19.6323C18.4902 19.8909 18.2654 20.0861 18.008 20.0686C17.7494 20.0517 17.5542 19.8281 17.5717 19.5695C17.5838 19.387 17.498 19.2003 17.3415 19.0697C17.1729 18.929 16.956 18.8782 16.7469 18.9302C16.5391 18.9821 16.3433 19.1779 16.2913 19.3858C16.2339 19.6148 16.278 19.8438 16.4116 20.0148C16.533 20.1707 16.7119 20.2565 16.9149 20.2565C17.1735 20.2565 17.3838 20.4662 17.3838 20.7254C17.3838 20.9846 17.1741 21.1943 16.9149 21.1943H16.9143Z" fill="#25BBEE"/>
<path d="M16.9156 23.4787C16.544 23.4787 16.1826 23.3482 15.8859 23.1005C15.5004 22.7784 15.2895 22.2992 15.3215 21.8188C15.3385 21.5602 15.562 21.365 15.8207 21.3826C16.0793 21.3995 16.2745 21.6231 16.2569 21.8817C16.2448 22.0642 16.3307 22.2509 16.4872 22.3814C16.6557 22.5222 16.8727 22.5729 17.0817 22.521C17.2896 22.469 17.4854 22.2732 17.5373 22.0654C17.5947 21.8364 17.5506 21.6073 17.4171 21.4363C17.2956 21.2804 17.1168 21.1946 16.9138 21.1946C16.6551 21.1946 16.4449 20.985 16.4449 20.7257C16.4449 20.4665 16.6545 20.2568 16.9138 20.2568C17.4044 20.2568 17.857 20.4762 18.1561 20.8587C18.4685 21.2587 18.5742 21.7814 18.4467 22.292C18.3108 22.8364 17.8534 23.2938 17.3089 23.4298C17.1778 23.4624 17.0461 23.4787 16.9156 23.4787Z" fill="#25BBEE"/>
<path d="M16.9608 18.8974C16.7022 18.8974 16.4919 18.6877 16.4919 18.4285V17.6315C16.4919 17.3729 16.7016 17.1626 16.9608 17.1626C17.2201 17.1626 17.4297 17.3723 17.4297 17.6315V18.4285C17.4297 18.6871 17.2201 18.8974 16.9608 18.8974Z" fill="#25BBEE"/>
<path d="M16.9608 24.3346C16.7022 24.3346 16.4919 24.1249 16.4919 23.8657V23.0221C16.4919 22.7635 16.7016 22.5532 16.9608 22.5532C17.2201 22.5532 17.4297 22.7629 17.4297 23.0221V23.8657C17.4297 24.1243 17.2201 24.3346 16.9608 24.3346Z" fill="#25BBEE"/>
<path d="M16.9143 26.3501C13.8127 26.3501 11.2893 23.8267 11.2893 20.7251C11.2893 17.6235 13.8127 15.1001 16.9143 15.1001C20.0159 15.1001 22.5393 17.6235 22.5393 20.7251C22.5393 23.8267 20.0159 26.3501 16.9143 26.3501ZM16.9143 16.0373C14.3293 16.0373 12.2265 18.1401 12.2265 20.7251C12.2265 23.3101 14.3293 25.4129 16.9143 25.4129C19.4993 25.4129 21.6021 23.3101 21.6021 20.7251C21.6021 18.1401 19.4993 16.0373 16.9143 16.0373Z" fill="#25BBEE"/>
<path d="M21.7895 23.022C21.6378 23.022 21.4892 22.9488 21.3991 22.8129C21.2553 22.5978 21.3139 22.3065 21.529 22.1627C22.8657 21.2714 23.6639 19.7874 23.6639 18.1934C23.6639 16.9359 23.1781 15.757 22.2952 14.8742C21.4124 13.992 20.2341 13.5056 18.9761 13.5056C16.9917 13.5056 15.2502 14.7116 14.539 16.5788C14.4466 16.8205 14.1765 16.9419 13.9342 16.8501C13.6925 16.7577 13.571 16.4869 13.6629 16.2452C14.5137 14.0113 16.5995 12.5684 18.9761 12.5684C20.4843 12.5684 21.8982 13.1521 22.9581 14.2113C24.018 15.2706 24.6011 16.6851 24.6011 18.1934C24.6011 20.1016 23.647 21.8775 22.0487 22.9428C21.9689 22.996 21.8783 23.0213 21.7889 23.0213L21.7895 23.022Z" fill="#25BBEE"/>
<path d="M18.3711 1.21576L23.468 4.9567L28.722 8.30426C29.4997 8.65533 30 9.43905 30 10.3128C30 10.5932 29.9498 10.8337 29.826 11.143C29.8248 11.1455 29.8242 11.1485 29.8229 11.1509C29.3432 12.2911 28.0851 12.8126 26.9588 12.3383C26.9419 12.331 26.9249 12.3226 26.9086 12.3135L23.5321 10.3908L21.1447 9.02091C21.1005 9.13148 21.0516 9.24146 20.9972 9.35023C20.335 10.6754 18.956 11.531 17.4841 11.531H12.7564L12.2458 12.0416C11.7987 12.5352 11.1932 12.957 10.5436 13.2277C9.83181 13.5329 9.07589 13.6876 8.2964 13.6876H4.59353C4.33491 13.6876 4.12463 13.4779 4.12463 13.2187V4.87512C4.12463 4.69868 4.22434 4.53674 4.38144 4.45698L12.07 0.566186C12.0778 0.561956 12.0857 0.558331 12.0935 0.554705C12.9232 0.191548 13.8314 0 14.719 0C15.9952 0 17.2563 0.419352 18.3711 1.21576ZM5.06244 5.16335V12.7504H8.29701C8.94839 12.7504 9.58044 12.6211 10.1793 12.3642C10.711 12.1425 11.2011 11.8017 11.5582 11.4053C11.5636 11.3993 11.569 11.3932 11.5751 11.3872L12.2313 10.7309C12.3189 10.6427 12.4386 10.5938 12.563 10.5938H17.4853C18.605 10.5938 19.6546 9.94119 20.1597 8.93087C20.3011 8.64808 20.3972 8.35744 20.4461 8.06256H12.7975C12.5389 8.06256 12.3286 7.85288 12.3286 7.59366C12.3286 7.33443 12.5383 7.12476 12.7975 7.12476H20.9537C21.2123 7.12476 21.4226 7.33443 21.4226 7.59366C21.4226 7.75681 21.4123 7.91935 21.3912 8.08129L23.9985 9.57743L27.3473 11.4845C27.9818 11.737 28.6839 11.4361 28.9583 10.7914C29.0362 10.5962 29.064 10.4705 29.064 10.3134C29.064 9.80946 28.7637 9.34177 28.3171 9.15022C28.2936 9.13994 28.2712 9.12846 28.2501 9.11457L22.9532 5.73981C22.9447 5.73437 22.9363 5.72833 22.9278 5.72228L17.8231 1.97591C16.8726 1.29733 15.8 0.938406 14.7202 0.938406C13.9649 0.938406 13.1915 1.10155 12.4821 1.40972L5.06364 5.16395L5.06244 5.16335Z" fill="#25BBEE"/>
<path d="M5.06244 3.8439V13.9688C5.06244 14.2274 4.85276 14.4377 4.59354 14.4377H0.468901C0.21028 14.4377 0 14.228 0 13.9688V3.8439C0 3.58528 0.209676 3.375 0.468901 3.375H4.59414C4.85276 3.375 5.06304 3.58468 5.06304 3.8439H5.06244ZM0.937802 13.5005H4.12524V4.3128H0.937802V13.5005Z" fill="#25BBEE"/>
</g>
<defs>
<clipPath id="clip0_1214_111845">
<rect width="30" height="26.3503" fill="white"/>
</clipPath>
</defs>
</svg>
