<svg width="29" height="29" viewBox="0 0 29 29" fill="none" xmlns="http://www.w3.org/2000/svg">
<g clip-path="url(#clip0_1443_20871)">
<path d="M12.6718 7.06723C9.9522 7.70127 7.76157 9.85806 7.0937 12.5634C6.42226 15.2759 7.18987 18.0417 9.14719 19.9599C9.84 20.6384 10.2532 21.7266 10.2532 22.87V23.0517C10.2532 23.8051 10.5809 24.4818 11.1027 24.9502V26.4516C11.1027 27.8568 12.2461 29.0002 13.6513 29.0002H15.3504C16.7556 29.0002 17.899 27.8568 17.899 26.4516V24.9502C18.4208 24.4836 18.7485 23.8051 18.7485 23.0517V22.8665C18.7485 21.7409 19.1831 20.6313 19.9133 19.9011C21.3541 18.4567 22.1467 16.5386 22.1467 14.4993C22.1467 9.62297 17.6283 5.91136 12.6718 7.06545V7.06723ZM16.1999 26.4516C16.1999 26.92 15.8188 27.3012 15.3504 27.3012H13.6513C13.1829 27.3012 12.8018 26.92 12.8018 26.4516V25.6021H16.1999V26.4516ZM18.7111 18.7007C17.655 19.7586 17.0495 21.2778 17.0495 22.8665V23.0517C17.0495 23.5201 16.6683 23.9012 16.1999 23.9012H12.8018C12.3334 23.9012 11.9523 23.5201 11.9523 23.0517V22.87C11.9523 21.2564 11.3627 19.7533 10.3369 18.747C8.81414 17.2528 8.21751 15.0942 8.7429 12.9712C9.25939 10.8804 10.9531 9.21334 13.0583 8.72178C16.948 7.81525 20.4476 10.7183 20.4476 14.5011C20.4476 16.088 19.8314 17.5787 18.7094 18.7025L18.7111 18.7007Z" fill="#F8B62D"/>
<path d="M7.89176 6.68959L5.4892 4.28702C5.15793 3.95576 4.62007 3.95576 4.28702 4.28702C3.95576 4.61829 3.95576 5.15615 4.28702 5.4892L6.68959 7.89176C7.02086 8.22303 7.55872 8.22303 7.89176 7.89176C8.22303 7.5605 8.22303 7.02264 7.89176 6.68959Z" fill="#F8B62D"/>
<path d="M4.30467 13.6494H0.849536C0.381134 13.6494 0 14.0305 0 14.499C0 14.9674 0.381134 15.3485 0.849536 15.3485H4.30467C4.77308 15.3485 5.15421 14.9674 5.15421 14.499C5.15421 14.0305 4.77308 13.6494 4.30467 13.6494Z" fill="#F8B62D"/>
<path d="M28.1504 13.6494H24.6952C24.2268 13.6494 23.8457 14.0305 23.8457 14.499C23.8457 14.9674 24.2268 15.3485 24.6952 15.3485H28.1504C28.6188 15.3485 28.9999 14.9674 28.9999 14.499C28.9999 14.0305 28.6188 13.6494 28.1504 13.6494Z" fill="#F8B62D"/>
<path d="M24.7131 4.28702C24.3818 3.95576 23.8439 3.95576 23.5109 4.28702L21.1083 6.68959C20.777 7.02086 20.777 7.55872 21.1083 7.89176C21.4396 8.22303 21.9774 8.22303 22.3105 7.89176L24.7131 5.4892C25.0443 5.15793 25.0443 4.62007 24.7131 4.28702Z" fill="#F8B62D"/>
<path d="M14.499 0C14.0305 0 13.6494 0.381134 13.6494 0.849536V4.30467C13.6494 4.77308 14.0305 5.15421 14.499 5.15421C14.9674 5.15421 15.3485 4.77308 15.3485 4.30467V0.849536C15.3485 0.381134 14.9674 0 14.499 0Z" fill="#F8B62D"/>
<path d="M14.4992 10.2515C14.1501 10.2515 13.7939 10.2942 13.443 10.3761C11.9773 10.7181 10.7519 11.9238 10.3922 13.3771C10.28 13.8331 10.556 14.2926 11.012 14.4065C11.4679 14.5187 11.9274 14.2409 12.0414 13.7867C12.248 12.9515 12.9835 12.2284 13.8313 12.0307C14.0575 11.9773 14.2819 11.9505 14.5009 11.9505C14.9693 11.9505 15.3505 11.5694 15.3505 11.101C15.3505 10.6326 14.9693 10.2515 14.5009 10.2515H14.4992Z" fill="#F8B62D"/>
</g>
<defs>
<clipPath id="clip0_1443_20871">
<rect width="29" height="29" fill="white"/>
</clipPath>
</defs>
</svg>
