<svg width="43" height="43" viewBox="0 0 43 43" fill="none" xmlns="http://www.w3.org/2000/svg">
<g clip-path="url(#clip0_1387_20737)">
<path d="M30.7972 14.2734C30.6141 13.1509 29.9981 12.2815 29.0991 11.6219C28.3233 11.0523 27.421 10.8125 26.4653 10.8125C23.0025 10.8092 19.5396 10.8025 16.0768 10.8192C15.5707 10.8192 15.0513 10.8925 14.5585 11.0124C13.7161 11.2156 13.0202 11.7019 12.4808 12.3681C11.7982 13.2108 11.4852 14.1835 11.4919 15.2827C11.5118 19.1267 11.4985 22.9707 11.5019 26.8114C11.5019 27.0579 11.5152 27.3077 11.5418 27.5542C11.6284 28.3969 11.9747 29.1397 12.5241 29.7626C13.4031 30.7619 14.5152 31.2849 15.8737 31.2783C18.2744 31.2649 20.6751 31.2749 23.0757 31.2749H23.3554V28.0438H23.0691C21.5941 28.0438 20.119 28.0438 18.6473 28.0438C18.3576 28.0438 18.0613 28.0505 17.7816 27.9905C16.9692 27.814 16.2699 27.4276 15.7072 26.798C15.1045 26.1252 14.7483 25.3524 14.7449 24.4497C14.7316 22.2812 14.735 20.1094 14.7383 17.9409C14.7383 17.6044 14.7583 17.2614 14.8282 16.9382C15.0313 16.0189 15.554 15.2927 16.3132 14.7398C16.9925 14.2468 17.7683 14.0403 18.604 14.0403C20.129 14.0403 21.654 14.0336 23.179 14.0436C23.6285 14.0436 24.078 14.0802 24.5241 14.1302C25.5131 14.2435 26.2822 14.7664 26.8849 15.5159C27.4642 16.2354 27.6773 17.0881 27.6773 18.0042C27.674 22.3278 27.6773 26.6481 27.6773 30.9718V31.2649H30.9138V30.9452C30.9138 25.7654 30.9138 20.5857 30.9104 15.4026C30.9104 15.0229 30.8605 14.6432 30.8006 14.2668L30.7972 14.2734Z" fill="white"/>
<path d="M21.2145 0C9.59398 0 0.174377 9.42343 0.174377 21.0487C0.174377 32.6739 9.59398 42.0973 21.2145 42.0973C32.835 42.0973 42.2546 32.6739 42.2546 21.0487C42.2546 9.42343 32.8317 0 21.2145 0ZM32.0026 31.5813C32.0026 31.8012 31.9993 32.0277 31.8095 32.1676C31.6929 32.2542 31.5364 32.3375 31.3966 32.3408C29.9881 32.3541 28.583 32.3408 27.1746 32.3541C26.8549 32.3541 26.5952 32.0943 26.5986 31.7645C26.6119 29.4595 26.6052 27.1544 26.6052 24.8527C26.6052 22.5809 26.6119 20.3125 26.6019 18.0408C26.6019 17.3779 26.4853 16.7317 26.0458 16.1954C25.6063 15.6524 25.0636 15.246 24.3544 15.1994C23.4087 15.1394 22.4598 15.1361 21.5142 15.1295C20.4354 15.1228 19.3565 15.0995 18.2811 15.1494C17.129 15.1994 16.1967 16.0122 15.9004 17.1247C15.8338 17.3679 15.8304 17.6344 15.8304 17.8875C15.8238 19.9894 15.8404 22.0913 15.8204 24.1965C15.8105 25.3823 16.3698 26.1884 17.3754 26.7314C17.7683 26.9446 18.2078 26.9645 18.6507 26.9612C20.3355 26.9612 22.0203 26.9612 23.7051 26.9612C24.2611 26.9612 24.4476 27.1511 24.4476 27.7107C24.4476 29.0231 24.4409 30.3355 24.4509 31.6479C24.4543 32.0577 24.2245 32.3641 23.7384 32.3608C21.0846 32.3408 18.4309 32.3441 15.7772 32.3541C14.6584 32.3574 13.6462 32.0343 12.7438 31.3981C11.5718 30.5687 10.796 29.4595 10.5329 28.0271C10.4763 27.7207 10.4331 27.4076 10.4331 27.0944C10.4264 23.0673 10.4331 19.0367 10.4264 15.0095C10.4264 13.917 10.7694 12.9343 11.382 12.0483C12.1345 10.959 13.1734 10.2495 14.4486 9.90976C14.8515 9.80317 15.2777 9.74987 15.6939 9.74987C19.3166 9.73655 22.9393 9.72655 26.5619 9.74987C28.2367 9.75986 29.6618 10.4027 30.744 11.6918C31.3966 12.468 31.8228 13.3673 31.9127 14.3966C31.9526 14.853 31.9993 15.3093 31.9993 15.7657C32.0059 21.0387 32.0026 26.3117 32.0026 31.5847V31.5813Z" fill="white"/>
</g>
<defs>
<clipPath id="clip0_1387_20737">
<rect width="42.0769" height="42.094" fill="white" transform="translate(0.174377)"/>
</clipPath>
</defs>
</svg>
