<svg width="29" height="38" viewBox="0 0 29 38" fill="none" xmlns="http://www.w3.org/2000/svg">
<g clip-path="url(#clip0_1443_18365)">
<path d="M14.5019 0C8.52436 0 3.66182 4.77426 3.66182 10.6396V15.8495C3.66182 16.2046 3.95641 16.4902 4.31811 16.4902H7.95011C8.31181 16.4902 8.60267 16.201 8.60267 15.8495V10.6396C8.60267 7.44696 11.2465 4.85114 14.4981 4.85114C17.7498 4.85114 20.3936 7.44696 20.3936 10.6396V15.8495C20.3936 16.2046 20.6882 16.4902 21.0499 16.4902H24.6819C25.0436 16.4902 25.3344 16.201 25.3344 15.8495V10.6396C25.3344 4.77426 20.4719 0 14.4981 0H14.5019ZM24.0293 15.2088H21.7062V10.6432C21.7062 6.744 18.4732 3.56971 14.5019 3.56971C10.5305 3.56971 7.29754 6.744 7.29754 10.6432V15.2088H4.97441V10.6432C4.97441 5.48454 9.24778 1.28876 14.5019 1.28876C19.7559 1.28876 24.0293 5.48454 24.0293 10.6432V15.2088Z" fill="#DA8353"/>
<path d="M26.1884 15.209H2.81162C1.26038 15.209 0 16.4465 0 17.9696V35.2433C0 36.7664 1.26038 38.0039 2.81162 38.0039H26.1884C27.7396 38.0039 29 36.7664 29 35.2433V17.9696C29 16.4465 27.7396 15.209 26.1884 15.209ZM27.6911 35.2433C27.6911 36.0561 27.0162 36.7188 26.1884 36.7188H2.81162C1.9838 36.7188 1.30886 36.0561 1.30886 35.2433V17.9696C1.30886 17.1568 1.9838 16.4941 2.81162 16.4941H26.1884C27.0162 16.4941 27.6911 17.1568 27.6911 17.9696V35.2433Z" fill="#DA8353"/>
<path d="M16.7019 27.4446C17.4664 26.8112 17.9101 25.8886 17.9101 24.8928C17.9101 23.0475 16.3813 21.5464 14.5019 21.5464C12.6225 21.5464 11.0936 23.0475 11.0936 24.8928C11.0936 25.885 11.5374 26.8112 12.3018 27.4446L11.5672 30.8862C11.5262 31.0766 11.5746 31.2743 11.7014 31.4244C11.8245 31.5745 12.0109 31.6624 12.2086 31.6624H16.7989C16.9965 31.6624 17.183 31.5745 17.306 31.4244C17.4291 31.2743 17.4776 31.0766 17.4365 30.8862L16.7019 27.4446ZM15.6243 26.6318C15.3931 26.7746 15.2775 27.0456 15.3334 27.3055L15.9897 30.3773H13.0103L13.6666 27.3055C13.7225 27.0419 13.6069 26.7746 13.3757 26.6318C12.7642 26.2474 12.3987 25.5994 12.3987 24.8964C12.3987 23.7578 13.3422 22.8351 14.5019 22.8351C15.6616 22.8351 16.6013 23.7614 16.6013 24.8964C16.6013 25.603 16.2358 26.2511 15.6243 26.6318Z" fill="#DA8353"/>
</g>
<defs>
<clipPath id="clip0_1443_18365">
<rect width="29" height="38" fill="white"/>
</clipPath>
</defs>
</svg>
