<svg width="54" height="45" viewBox="0 0 54 45" fill="none" xmlns="http://www.w3.org/2000/svg">
<g clip-path="url(#clip0_1779_65330)">
<path d="M26.9178 22.0813C30.4499 20.043 32.8699 16.2351 32.8699 11.8425C32.8699 5.31689 27.607 0 21.1301 0C14.6532 0 9.39028 5.30899 9.39028 11.8425C9.39028 16.2351 11.8025 20.043 15.3424 22.0813C6.50036 24.4198 0 31.9645 0 40.9077V43.815C0 44.4707 0.524728 45 1.17476 45C1.8248 45 2.34953 44.4707 2.34953 43.815V40.9077C2.34953 31.4115 10.7765 23.685 21.1301 23.685C31.4837 23.685 39.9107 31.4115 39.9107 40.9077V43.815C39.9107 44.4707 40.4354 45 41.0854 45C41.7355 45 42.2602 44.4707 42.2602 43.815V40.9077C42.2602 31.9645 35.7598 24.4198 26.9178 22.0813ZM11.7398 11.8425C11.7398 6.62044 15.9533 2.37008 21.1301 2.37008C26.3069 2.37008 30.5204 6.62044 30.5204 11.8425C30.5204 17.0646 26.3069 21.315 21.1301 21.315C15.9533 21.315 11.7398 17.0646 11.7398 11.8425Z" fill="#25BBEE"/>
<path d="M42.7226 22.113C45.2679 20.4144 46.9518 17.515 46.9518 14.2127C46.9518 8.99058 42.7383 4.74023 37.5615 4.74023C36.9114 4.74023 36.3867 5.26955 36.3867 5.92528C36.3867 6.581 36.9114 7.11032 37.5615 7.11032C41.446 7.11032 44.6022 10.302 44.6022 14.2127C44.6022 18.1233 41.4382 21.315 37.5615 21.315C36.9114 21.315 36.3867 21.8443 36.3867 22.5001C36.3867 23.1558 36.9114 23.6851 37.5615 23.6851C45.3306 23.6851 51.6508 29.5787 51.6508 36.8154V39.0749C51.6508 39.7306 52.1756 40.2599 52.8256 40.2599C53.4756 40.2599 54.0004 39.7306 54.0004 39.0749V36.8154C54.0004 29.9737 49.27 24.1591 42.7226 22.113Z" fill="#25BBEE"/>
</g>
<defs>
<clipPath id="clip0_1779_65330">
<rect width="54" height="45" fill="white"/>
</clipPath>
</defs>
</svg>
