<svg width="18" height="19" viewBox="0 0 18 19" fill="none" xmlns="http://www.w3.org/2000/svg">
<g clip-path="url(#clip0_3602_92759)">
<path d="M16.8797 16.1865C16.8797 17.1239 16.1123 17.8864 15.1689 17.8864H6.00831V1.11328H15.1687C16.112 1.11328 16.8794 1.87587 16.8794 2.81325V16.1865H16.8797ZM2.61428 17.1453V15.9702C3.37946 15.8731 3.97324 15.2218 3.97324 14.4356C3.97324 13.6493 3.37974 12.9978 2.61428 12.9009V11.0348C3.37946 10.9377 3.97324 10.2864 3.97324 9.50014C3.97324 8.71389 3.37974 8.06234 2.61428 7.96549V6.06234C3.37946 5.96521 3.97324 5.31394 3.97324 4.52769C3.97324 3.74144 3.37974 3.0899 2.61428 2.99304V1.855C2.61428 1.44615 2.94898 1.11383 3.36042 1.11383H4.88826V17.8873H3.36042C2.94898 17.8873 2.61428 17.5547 2.61428 17.1458M1.12061 14.4358C1.12061 14.1965 1.31638 14.0019 1.55725 14.0019H2.41626C2.65713 14.0019 2.85291 14.1965 2.85291 14.4358C2.85291 14.6752 2.65713 14.8697 2.41626 14.8697H1.55725C1.31638 14.8697 1.12061 14.6752 1.12061 14.4358ZM1.12061 9.50042C1.12061 9.26106 1.31638 9.06652 1.55725 9.06652H2.41626C2.65713 9.06652 2.85291 9.26106 2.85291 9.50042C2.85291 9.73977 2.65713 9.93432 2.41626 9.93432H1.55725C1.31638 9.93432 1.12061 9.73977 1.12061 9.50042ZM1.12061 4.52769C1.12061 4.28834 1.31638 4.09379 1.55725 4.09379H2.41626C2.65713 4.09379 2.85291 4.28834 2.85291 4.52769C2.85291 4.76705 2.65713 4.96159 2.41626 4.96159H1.55725C1.31638 4.96159 1.12061 4.76705 1.12061 4.52769ZM15.1687 0H3.36014C2.33112 0 1.49367 0.831895 1.49367 1.85444V2.98135C0.664353 3.01447 0 3.69524 0 4.52741C0 5.35959 0.664353 6.04036 1.49367 6.07348V7.95408C0.664353 7.9872 0 8.66796 0 9.50014C0 10.3323 0.664353 11.0131 1.49367 11.0462V12.8898C0.664353 12.9229 0 13.6037 0 14.4358C0 15.268 0.664353 15.9488 1.49367 15.9819V17.1458C1.49367 18.1684 2.33084 19.0006 3.36014 19.0006H15.1687C16.7298 19.0006 17.9997 17.7384 17.9997 16.1873V2.81325C17.9997 1.2619 16.7296 0 15.1687 0Z" fill="#8A8C8F"/>
<path d="M11.4293 10.3961C10.9318 10.3961 10.5271 9.99391 10.5271 9.49962C10.5271 9.00532 10.9318 8.60315 11.4293 8.60315C11.9267 8.60315 12.3314 9.00532 12.3314 9.49962C12.3314 9.99391 11.9267 10.3961 11.4293 10.3961ZM14.3511 6.555C13.552 5.77181 12.493 5.34988 11.3702 5.36463C10.2854 5.37966 9.26254 5.81078 8.4898 6.57866C7.71705 7.34654 7.28321 8.36296 7.26836 9.44089C7.25268 10.557 7.67812 11.609 8.46627 12.403C9.25442 13.1974 10.307 13.6346 11.4293 13.6346C11.7387 13.6346 11.9894 13.3855 11.9894 13.078C11.9894 12.7704 11.7387 12.5213 11.4293 12.5213C10.6089 12.5213 9.83979 12.2015 9.26394 11.6212C8.6881 11.0409 8.37721 10.272 8.38841 9.4562C8.4111 7.83638 9.75577 6.50017 11.3856 6.47763C12.2068 6.46566 12.9803 6.77515 13.5643 7.34738C14.1486 7.91988 14.4701 8.68414 14.4701 9.49906V10.3037C14.4701 10.5828 14.2416 10.8097 13.9609 10.8097C13.6803 10.8097 13.4517 10.5826 13.4517 10.3037V9.49906C13.4517 8.39079 12.5445 7.48932 11.4293 7.48932C10.314 7.48932 9.40679 8.39079 9.40679 9.49906C9.40679 10.6073 10.314 11.5088 11.4293 11.5088C11.8541 11.5088 12.2491 11.378 12.5751 11.1545C12.8627 11.6154 13.3764 11.9232 13.9612 11.9232C14.8597 11.9232 15.5907 11.1968 15.5907 10.304V9.49934C15.5907 8.38384 15.1504 7.33819 14.3511 6.555Z" fill="#8A8C8F"/>
</g>
<defs>
<clipPath id="clip0_3602_92759">
<rect width="18" height="19" fill="white"/>
</clipPath>
</defs>
</svg>
