<svg width="32" height="20" viewBox="0 0 32 20" fill="none" xmlns="http://www.w3.org/2000/svg">
<g clip-path="url(#clip0_1214_111830)">
<path d="M22.9857 6.50467C22.5092 6.50467 22.0485 6.27189 21.7534 5.88266C21.4552 5.48843 21.3605 4.99408 21.4948 4.52663C21.6436 4.00725 22.0748 3.59926 22.6197 3.46221C23.1087 3.33331 23.6084 3.43969 23.9907 3.75507C24.3712 4.06858 24.5771 4.54666 24.5425 5.03475C24.5237 5.30196 24.2896 5.50408 24.0221 5.48405C23.7541 5.46465 23.5519 5.2325 23.5708 4.96529C23.5833 4.79008 23.5086 4.61737 23.3699 4.50348C23.2889 4.43715 23.1163 4.33515 22.8671 4.40148C22.8646 4.40211 22.862 4.40273 22.8595 4.40336C22.6524 4.4553 22.4835 4.60861 22.4308 4.79384C22.3818 4.96529 22.4182 5.14927 22.5306 5.2982C22.6442 5.44838 22.8099 5.53411 22.9851 5.53411C23.2538 5.53411 23.4722 5.75125 23.4722 6.0197C23.4722 6.28816 23.2544 6.5053 22.9851 6.5053L22.9857 6.50467Z" fill="#25BBEE"/>
<path d="M22.9437 8.6301C22.5934 8.6301 22.2563 8.51121 21.9801 8.28343C21.5997 7.96992 21.3938 7.49184 21.4283 7.00375C21.4478 6.73654 21.6819 6.53505 21.9487 6.55445C22.2168 6.57385 22.4189 6.806 22.4001 7.0732C22.3875 7.24842 22.4622 7.42113 22.6009 7.53502C22.6819 7.60135 22.8546 7.70335 23.1038 7.63702C23.1063 7.63639 23.1088 7.63577 23.1113 7.63514C23.3185 7.5832 23.4873 7.42989 23.5401 7.24466C23.589 7.0732 23.5526 6.88923 23.4403 6.7403C23.3285 6.59262 23.1584 6.50439 22.9858 6.50439C22.7171 6.50439 22.4986 6.28725 22.4986 6.0188C22.4986 5.75034 22.7165 5.5332 22.9858 5.5332C23.4622 5.5332 23.923 5.76599 24.218 6.15521C24.5162 6.54944 24.611 7.04379 24.4767 7.51124C24.3279 8.03125 23.8966 8.43924 23.3505 8.57629C23.2149 8.61196 23.078 8.62948 22.9437 8.62948V8.6301Z" fill="#25BBEE"/>
<path d="M22.9858 4.36885C22.7171 4.36885 22.4987 4.15171 22.4987 3.88326V3.10669C22.4987 2.83886 22.7165 2.62109 22.9858 2.62109C23.2551 2.62109 23.4729 2.83823 23.4729 3.10669V3.88326C23.4729 4.15108 23.2551 4.36885 22.9858 4.36885Z" fill="#25BBEE"/>
<path d="M22.9858 9.36852C22.7171 9.36852 22.4987 9.15138 22.4987 8.88293V8.15454C22.4987 7.88671 22.7165 7.66895 22.9858 7.66895C23.2551 7.66895 23.4729 7.88609 23.4729 8.15454V8.88293C23.4729 9.15075 23.2551 9.36852 22.9858 9.36852Z" fill="#25BBEE"/>
<path d="M18.0673 9.0778C17.8884 9.0778 17.717 8.97956 17.6316 8.80935C17.1771 7.90387 16.9474 6.96523 16.9474 6.0197C16.9474 2.70065 19.6561 0.000488281 22.9857 0.000488281C26.3153 0.000488281 29.0241 2.70065 29.0241 6.0197C29.0241 6.60103 28.9375 7.1711 28.7598 7.7612C28.6826 8.01776 28.4114 8.16356 28.1534 8.08659C27.896 8.00962 27.7498 7.73867 27.827 7.48211C27.977 6.98337 28.0498 6.50529 28.0498 6.0197C28.0498 3.23568 25.778 0.971046 22.9851 0.971046C20.1922 0.971046 17.9204 3.23568 17.9204 6.0197C17.9204 6.81317 18.1163 7.60601 18.5023 8.3757C18.6229 8.61536 18.5249 8.90697 18.2845 9.02711C18.2148 9.06216 18.1401 9.07843 18.0673 9.07843V9.0778Z" fill="#25BBEE"/>
<path d="M15.2914 20C14.3692 20 13.4257 19.801 12.5638 19.4255C12.5556 19.4218 12.5475 19.418 12.5393 19.4136L4.55305 15.3843C4.38921 15.3017 4.28625 15.134 4.28625 14.9513V6.31079C4.28625 6.04296 4.50409 5.8252 4.77339 5.8252H8.62026C9.43006 5.8252 10.2154 5.98539 10.9549 6.3014C11.6297 6.58174 12.2587 7.0179 12.7233 7.52977L13.2537 8.05854H18.1652C19.6938 8.05854 21.1264 8.94525 21.815 10.3169C21.8715 10.4296 21.9223 10.5434 21.9682 10.658L24.4484 9.23936L27.9563 7.24818C27.9732 7.23879 27.9902 7.23003 28.0084 7.22252C29.1779 6.73193 30.4849 7.27196 30.984 8.45215C30.9852 8.45465 30.9865 8.45778 30.9871 8.46028C31.1158 8.78067 31.1679 9.02973 31.1679 9.32008C31.1679 10.2249 30.6481 11.0365 29.8402 11.4001L24.3819 14.8668L19.0868 18.7409C17.9279 19.5657 16.6178 20 15.2926 20H15.2914ZM12.9662 18.5413C13.7025 18.8605 14.5067 19.0294 15.2914 19.0294C16.4126 19.0294 17.5274 18.6577 18.5149 17.955L23.8182 14.0753C23.8269 14.069 23.8357 14.0627 23.8445 14.0571L29.3474 10.5622C29.3694 10.5478 29.3932 10.5359 29.4171 10.5253C29.8816 10.3269 30.193 9.84322 30.193 9.32071C30.193 9.15801 30.1641 9.02785 30.0831 8.82573C29.7988 8.15804 29.0687 7.84641 28.4095 8.10798L24.9305 10.0829L22.2218 11.6323C22.2437 11.7994 22.2544 11.9677 22.2544 12.1373C22.2544 12.4051 22.0366 12.6229 21.7673 12.6229H13.2939C13.0252 12.6229 12.8067 12.4057 12.8067 12.1373C12.8067 11.8688 13.0246 11.6517 13.2939 11.6517H21.24C21.1885 11.3463 21.0893 11.0453 20.9424 10.7525C20.4176 9.70618 19.3272 9.03035 18.164 9.03035H13.0503C12.921 9.03035 12.7973 8.97904 12.7057 8.8883L12.0239 8.20873C12.0177 8.20247 12.012 8.19684 12.0064 8.18995C11.6354 7.77883 11.1269 7.42652 10.5738 7.19687C9.95172 6.93092 9.29509 6.79701 8.61838 6.79701H5.25802V14.6541L12.9649 18.5419L12.9662 18.5413Z" fill="#25BBEE"/>
<path d="M4.77218 16.5053H0.487136C0.218458 16.5053 0 16.2882 0 16.0197V5.53442C0 5.26659 0.21783 5.04883 0.487136 5.04883H4.7728C5.04148 5.04883 5.25994 5.26597 5.25994 5.53442V16.0197C5.25994 16.2875 5.04211 16.5053 4.7728 16.5053H4.77218ZM0.973644 15.5341H4.28504V6.01939H0.974272V15.5341H0.973644Z" fill="#25BBEE"/>
</g>
<defs>
<clipPath id="clip0_1214_111830">
<rect width="31.1667" height="20" fill="white"/>
</clipPath>
</defs>
</svg>
