<svg width="43" height="43" viewBox="0 0 43 43" fill="none" xmlns="http://www.w3.org/2000/svg">
<g clip-path="url(#clip0_1387_20740)">
<path fill-rule="evenodd" clip-rule="evenodd" d="M21.7554 0C27.5641 0 32.8251 2.35539 36.6317 6.16356C40.4383 9.97172 42.7927 15.2348 42.7927 21.0459C42.7927 26.857 40.4383 32.1201 36.6317 35.9283C32.8251 39.7365 27.5641 42.0918 21.7554 42.0918C15.9466 42.0918 10.6856 39.7365 6.87901 35.9283C3.07239 32.1201 0.717957 26.8592 0.717957 21.0459C0.717957 15.2327 3.07239 9.97387 6.87901 6.16356C10.6856 2.35324 15.9466 0 21.7554 0ZM25.6479 32.4898V30.4847H22.7564V27.3234C24.4707 27.0977 26.0131 26.3004 27.1817 25.1313C28.5738 23.7387 29.4373 21.8174 29.4373 19.7027H27.4331C27.4331 21.263 26.7929 22.6835 25.7639 23.7151C24.7349 24.7466 23.3149 25.3849 21.7532 25.3849C20.1915 25.3849 18.7736 24.7445 17.7425 23.7151C16.7114 22.6857 16.0733 21.2651 16.0733 19.7027H14.0691C14.0691 21.8174 14.9326 23.7387 16.3247 25.1313C17.4933 26.3004 19.0336 27.0977 20.75 27.3234V30.4847H17.8585V32.4898H25.6458H25.6479ZM21.953 9.60638C20.7629 9.60638 19.6823 10.0921 18.9004 10.8765C18.1184 11.6609 17.6308 12.7419 17.6308 13.9303V19.6641C17.6308 19.6748 17.6308 19.6877 17.6308 19.6985C17.6394 20.874 18.1249 21.9421 18.9004 22.7179C19.6823 23.5002 20.765 23.988 21.953 23.988C23.1409 23.988 24.2236 23.5023 25.0056 22.7179C25.7832 21.9399 26.2687 20.8654 26.2752 19.6834V19.6641V13.9303C26.2752 12.7397 25.7897 11.6587 25.0056 10.8765C24.2236 10.0942 23.1431 9.60638 21.953 9.60638Z" fill="white"/>
</g>
<defs>
<clipPath id="clip0_1387_20740">
<rect width="42.0769" height="42.094" fill="white" transform="translate(0.717957)"/>
</clipPath>
</defs>
</svg>
