<svg width="43" height="43" viewBox="0 0 43 43" fill="none" xmlns="http://www.w3.org/2000/svg">
<g clip-path="url(#clip0_1387_20718)">
<path d="M19.0664 17.0171L25.6295 21.0502L19.0664 25.0832V17.0171Z" fill="white"/>
<path d="M21.5788 0C9.96522 0 0.543579 9.42546 0.543579 21.0438C0.543579 32.6621 9.96522 42.0876 21.5788 42.0876C33.1925 42.0876 42.6141 32.6621 42.6141 21.0438C42.6141 9.42546 33.1989 0 21.5788 0ZM31.6029 26.1092C31.1799 27.4044 29.7891 28.1866 28.5073 28.3662C23.899 28.8535 19.2523 28.8535 14.644 28.3662C13.3621 28.1866 11.9713 27.398 11.5483 26.1092C10.8946 22.7622 10.8946 19.3254 11.5483 15.9848C11.9713 14.6768 13.3621 13.9074 14.6568 13.7278C19.2651 13.2405 23.9118 13.2405 28.5201 13.7278C29.8019 13.9074 31.1928 14.6896 31.6158 15.9848C32.2695 19.3318 32.2631 22.7686 31.6029 26.1092Z" fill="white"/>
</g>
<defs>
<clipPath id="clip0_1387_20718">
<rect width="42.0769" height="42.094" fill="white" transform="translate(0.543579)"/>
</clipPath>
</defs>
</svg>
