<svg width="76" height="76" viewBox="0 0 76 76" fill="none" xmlns="http://www.w3.org/2000/svg">
<path d="M38.3813 17.042L55.4693 25.586V17.042L38.3813 8.49805V17.042Z" fill="#7489A4"/>
<path d="M44.5535 6.24376L38.1439 3.04004V6.24376L44.5535 9.44748V6.24376Z" fill="#7489A4"/>
<path d="M38.0137 20.6885V20.6738L38.0011 20.6801L37.9885 20.6738V20.6885L3.80005 37.9445L18.2998 61.7193L37.9885 72.3388V72.3535L38.0011 72.3472L38.0137 72.3535V72.3388L57.7003 61.7193L72.2 37.9445L38.0137 20.6885ZM37.0641 71.0153L19.0498 60.9756L4.96179 38.4214L37.0641 22.2179V71.0174V71.0153ZM55.9566 58.9084L40.9926 66.4272L41.0956 60.629L52.1815 55.627L42.0283 29.3564L49.7005 33.2303L58.3894 54.9379L55.9566 58.9084ZM57.4524 46.707L61.2507 38.9151L65.2107 41.06L59.6499 52.3728L57.4545 46.7049L57.4524 46.707Z" fill="#7489A4"/>
<path d="M20.4216 59.8083L25.8711 62.5751L13.9448 39.3213L9.78735 41.378L20.4216 59.8083Z" fill="#7489A4"/>
<path d="M30.0076 64.1338C33.4235 62.9196 33.5895 59.5919 33.5895 55.76C33.5895 52.6992 32.0307 50.0038 29.661 48.424L29.7597 48.3631C32.2555 46.8064 33.9172 44.0376 33.9172 40.878C33.9172 36.9243 31.3731 33.5882 27.7849 32.4727L15.594 38.5041L28.3921 63.5246L30.0055 64.1338H30.0076Z" fill="#7489A4"/>
<path d="M37.4339 10.0332L22.2451 17.6276V24.0498L37.4339 16.4554V10.0332Z" fill="#7489A4"/>
<path d="M37.1965 4.57617L32.686 6.83033V7.91225L37.1965 5.65808V4.57617Z" fill="#7489A4"/>
</svg>
