<svg width="80" height="64" viewBox="0 0 80 64" fill="none" xmlns="http://www.w3.org/2000/svg">
<g clip-path="url(#clip0_1436_16000)">
<path d="M63.0606 24.3293L52.8158 15.7415V8.8196C52.8158 7.71252 51.923 6.81367 50.8234 6.81367C49.7238 6.81367 48.831 7.71252 48.831 8.8196V12.3913L35.7167 1.39423C33.4992 -0.464092 30.2815 -0.464092 28.0639 1.39423L0.720009 24.3293C-0.12827 25.0384 -0.243468 26.3063 0.460813 27.1577C1.16509 28.0117 2.42442 28.1277 3.27008 27.4186L30.6166 4.47298C31.3549 3.85354 32.4283 3.85354 33.1667 4.47298L55.8084 23.4647V57.9768C55.8084 59.0839 54.9156 59.9827 53.816 59.9827H43.8513V37.9096C43.8513 34.5857 41.1756 31.8891 37.8715 31.8891H25.9144C22.6129 31.8891 19.9346 34.583 19.9346 37.9096V59.9827H9.96991C8.87029 59.9827 7.9775 59.0839 7.9775 57.9768V33.8977C7.9775 32.7906 7.08472 31.8918 5.9851 31.8918C4.88548 31.8918 3.99269 32.7906 3.99269 33.8977V57.9768C3.99269 61.3007 6.66843 63.9972 9.97253 63.9972H53.8186C57.1201 63.9972 59.7984 61.3033 59.7984 57.9768V26.815L60.5158 27.416C60.8745 27.7138 61.3248 27.8773 61.7908 27.8773C62.8905 27.8773 63.7859 26.9837 63.7885 25.874C63.7885 25.2756 63.524 24.7063 63.0659 24.324L63.0606 24.3293ZM23.9194 59.9853V37.9122C23.9194 36.8051 24.8122 35.9063 25.9118 35.9063H37.8689C38.9685 35.9063 39.8613 36.8051 39.8613 37.9122V59.9853H23.9168H23.9194Z" fill="#B5B5B6"/>
<path opacity="0.5" d="M49.8756 50.3567C60.6408 50.3567 69.3677 41.5705 69.3677 30.7323C69.3677 19.894 60.6408 11.1079 49.8756 11.1079C39.1104 11.1079 30.3835 19.894 30.3835 30.7323C30.3835 41.5705 39.1104 50.3567 49.8756 50.3567Z" fill="#F7F8F8"/>
<path d="M45.9432 18.3698C46.9093 18.217 47.5691 17.3023 47.4172 16.3296C47.2654 15.357 46.3569 14.6927 45.3908 14.8456C39.5785 15.7735 35.0177 20.3626 34.0987 26.2143C33.9469 27.187 34.604 28.1016 35.5727 28.2545C36.5388 28.4074 37.4473 27.7458 37.5992 26.7705C38.2799 22.445 41.6494 19.0525 45.9458 18.3672L45.9432 18.3698Z" fill="#25BBEE"/>
<path fill-rule="evenodd" clip-rule="evenodd" d="M49.8757 7.5415C37.1541 7.5415 26.8386 17.9244 26.8386 30.7349C26.8386 43.5455 37.1515 53.9283 49.8757 53.9283C62.5998 53.9283 72.9127 43.5455 72.9127 30.7349C72.9127 17.9244 62.5972 7.5415 49.8757 7.5415ZM30.3836 30.7349C30.3836 19.896 39.1099 11.1105 49.8757 11.1105C60.6415 11.1105 69.3678 19.896 69.3678 30.7349C69.3678 41.5738 60.6415 50.3593 49.8757 50.3593C39.1099 50.3593 30.3836 41.5738 30.3836 30.7349Z" fill="#25BBEE"/>
<path d="M70.0301 48.5009C69.3389 47.805 68.2157 47.805 67.5245 48.5009C66.8333 49.1968 66.8333 50.3276 67.5245 51.0235L76.976 60.5391C77.6672 61.235 78.7904 61.235 79.4816 60.5391C80.1727 59.8433 80.1727 58.7124 79.4816 58.0166L70.0301 48.5009Z" fill="#25BBEE"/>
</g>
<defs>
<clipPath id="clip0_1436_16000">
<rect width="80" height="64" fill="white"/>
</clipPath>
</defs>
</svg>
