<svg width="80" height="52" viewBox="0 0 80 52" fill="none" xmlns="http://www.w3.org/2000/svg">
<g clip-path="url(#clip0_1436_16008)">
<path d="M25.3233 6.95508C22.783 6.95508 20.7151 9.03507 20.7151 11.5961C20.7151 14.1571 22.7804 16.2371 25.3233 16.2371C27.8662 16.2371 29.9316 14.1571 29.9316 11.5961C29.9316 9.03507 27.8662 6.95508 25.3233 6.95508ZM25.3233 13.9153C24.0532 13.9153 23.0179 12.8727 23.0179 11.5935C23.0179 10.3143 24.0532 9.27167 25.3233 9.27167C26.5935 9.27167 27.6287 10.3143 27.6287 11.5935C27.6287 12.8727 26.5935 13.9153 25.3233 13.9153Z" fill="#B5B5B6"/>
<path d="M49.503 20.8702C50.1381 20.8702 50.6544 20.3554 50.6544 19.7132V15.0774C50.6544 14.6692 50.4402 14.2896 50.0916 14.0816L27.572 0.611005C27.572 0.611005 27.5513 0.598005 27.541 0.592805C26.1417 -0.187193 24.5618 -0.213193 23.0825 0.608405L0.562799 14.079C0.214276 14.287 0 14.6666 0 15.0748V19.7106C0 20.3502 0.513747 20.8676 1.15141 20.8676H4.60565V41.7377C2.06532 41.7377 0 43.8177 0 46.3735V49.8523C0 50.4919 0.513747 51.0119 1.15141 51.0119H49.503C50.1381 51.0119 50.6544 50.4945 50.6544 49.8523V46.3735C50.6544 43.8151 48.5891 41.7377 46.0488 41.7377V20.8676H49.503V20.8702ZM48.3516 46.3761V48.6953H2.30283V46.3761C2.30283 45.0969 3.33548 44.0569 4.60565 44.0569H46.0488C47.319 44.0569 48.3516 45.0969 48.3516 46.3761ZM6.90848 41.7377V20.8676H11.5141V41.7377H6.90848ZM13.817 41.7377V20.8676H20.7254V41.7377H13.817ZM23.0257 41.7377V20.8676H27.6313V41.7377H23.0257ZM29.9342 41.7377V20.8676H36.8426V41.7377H29.9342ZM39.1429 41.7377V20.8676H43.7485V41.7377H39.1429ZM2.30283 18.551V15.7326L24.2236 2.6156C24.9413 2.2178 25.7029 2.2204 26.4102 2.6078L48.349 15.7326V18.551H2.30283Z" fill="#B5B5B6"/>
<path opacity="0.5" d="M52.0537 49.6002C62.6688 49.6002 71.2741 40.9337 71.2741 30.2432C71.2741 19.5526 62.6688 10.8862 52.0537 10.8862C41.4386 10.8862 32.8334 19.5526 32.8334 30.2432C32.8334 40.9337 41.4386 49.6002 52.0537 49.6002Z" fill="#F7F8F8"/>
<path d="M52.0538 31.3742C50.4222 31.3742 48.9171 30.641 47.9257 29.3619C46.8827 28.0177 46.529 26.2575 46.9576 24.5311C47.4094 22.7111 48.9274 21.1823 50.7345 20.7273C52.41 20.3035 54.1397 20.7091 55.477 21.8349C56.7575 22.9113 57.4597 24.5103 57.3539 26.1093C57.3126 26.7333 56.773 27.2013 56.1586 27.1623C55.539 27.1207 55.0717 26.5825 55.113 25.9585C55.1724 25.0771 54.7696 24.1853 54.039 23.5691C53.2594 22.9113 52.2525 22.6773 51.2818 22.9217C50.2879 23.1713 49.3869 24.0813 49.1365 25.0823C48.8783 26.1275 49.0823 27.1805 49.6967 27.9709C50.2673 28.7093 51.1063 29.1149 52.0538 29.1149C52.6734 29.1149 53.1768 29.6219 53.1768 30.2459C53.1768 30.8698 52.6734 31.3768 52.0538 31.3768V31.3742Z" fill="#25BBEE"/>
<path d="M52.0615 39.9257C50.8223 39.9257 49.6193 39.4889 48.6279 38.6543C47.3474 37.5779 46.6452 35.9789 46.7511 34.3799C46.7924 33.7559 47.3268 33.2853 47.9464 33.3269C48.566 33.3685 49.0332 33.9067 48.9919 34.5307C48.9326 35.4121 49.3353 36.3039 50.0685 36.9201C50.8481 37.5779 51.855 37.8119 52.8257 37.5675C53.8196 37.3179 54.7206 36.4079 54.971 35.4069C55.2292 34.3617 55.0252 33.3087 54.4108 32.5183C53.8403 31.7799 53.0012 31.3743 52.0538 31.3743C51.4342 31.3743 50.9307 30.8673 50.9307 30.2433C50.9307 29.6193 51.4342 29.1123 52.0538 29.1123C53.6854 29.1123 55.1905 29.8455 56.1818 31.1247C57.2248 32.4689 57.5785 34.2291 57.1499 35.9555C56.6981 37.7755 55.1801 39.3043 53.373 39.7593C52.9367 39.8685 52.4978 39.9231 52.0641 39.9231L52.0615 39.9257Z" fill="#25BBEE"/>
<path d="M52.2268 22.7789C51.6072 22.7789 51.1038 22.2719 51.1038 21.6479V18.6657C51.1038 18.0417 51.6072 17.5347 52.2268 17.5347C52.8464 17.5347 53.3498 18.0417 53.3498 18.6657V21.6479C53.3498 22.2719 52.8464 22.7789 52.2268 22.7789Z" fill="#25BBEE"/>
<path d="M52.2268 43.129C51.6072 43.129 51.1038 42.622 51.1038 41.998V38.839C51.1038 38.215 51.6072 37.708 52.2268 37.708C52.8464 37.708 53.3498 38.215 53.3498 38.839V41.998C53.3498 42.622 52.8464 43.129 52.2268 43.129Z" fill="#25BBEE"/>
<path d="M52.0538 50.6713C40.8701 50.6713 31.7698 41.5063 31.7698 30.2431C31.7698 18.9799 40.8701 9.81494 52.0538 9.81494C63.2374 9.81494 72.3377 18.9799 72.3377 30.2431C72.3377 41.5063 63.2374 50.6713 52.0538 50.6713ZM52.0538 12.0769C42.1067 12.0769 34.0158 20.2253 34.0158 30.2431C34.0158 40.2609 42.1067 48.4093 52.0538 48.4093C62.0008 48.4093 70.0917 40.2609 70.0917 30.2431C70.0917 20.2253 62.0008 12.0769 52.0538 12.0769Z" fill="#25BBEE"/>
<path d="M70.1692 38.2174C69.8052 38.2174 69.4515 38.0406 69.2346 37.713C68.8913 37.193 69.0307 36.491 69.547 36.1452C74.687 32.6924 77.7566 26.9464 77.7566 20.7714C77.7566 15.899 75.8849 11.3308 72.4901 7.90925C69.0926 4.48765 64.5593 2.60526 59.7187 2.60526C52.0873 2.60526 45.388 7.27745 42.6514 14.508C42.4294 15.0904 41.7814 15.3842 41.2031 15.1632C40.6248 14.9396 40.3331 14.287 40.5525 13.7046C43.6221 5.58745 51.145 0.343262 59.7161 0.343262C65.1556 0.343262 70.2544 2.46226 74.0752 6.31025C77.896 10.1582 80.0001 15.2932 80.0001 20.7714C80.0001 27.7056 76.5562 34.1562 70.7913 38.0276C70.6003 38.155 70.3834 38.2174 70.1692 38.2174Z" fill="#25BBEE"/>
</g>
<defs>
<clipPath id="clip0_1436_16008">
<rect width="80" height="51.0145" fill="white"/>
</clipPath>
</defs>
</svg>
