<svg width="43" height="43" viewBox="0 0 43 43" fill="none" xmlns="http://www.w3.org/2000/svg">
<g clip-path="url(#clip0_1387_20714)">
<path d="M21.0357 0C9.42102 0 0 9.42484 0 21.0443C0 32.6637 9.42102 42.0886 21.0357 42.0886C32.6505 42.0886 42.0715 32.6637 42.0715 21.0443C42.0715 9.42484 32.6559 0 21.0357 0ZM26.368 19.0507L26.0205 21.9841C25.9879 22.2665 25.749 22.4784 25.4666 22.4784H22.4204V31.1753C22.4204 31.3926 22.2466 31.5664 22.0349 31.5719H18.9343C18.7171 31.5719 18.5434 31.3926 18.5488 31.1753L18.5651 22.4838H16.2574C15.9533 22.4838 15.7035 22.2339 15.7035 21.9297V19.0018C15.7035 18.6976 15.9533 18.4477 16.2574 18.4477H18.5488V15.6067C18.5488 12.3202 20.5036 10.533 23.3652 10.533H25.711C26.015 10.533 26.2648 10.7829 26.2648 11.0871V13.5533C26.2648 13.8575 26.015 14.1074 25.711 14.1074H24.272C22.719 14.1345 22.4204 14.8788 22.4204 15.9924V18.4423H25.8304C26.1345 18.4477 26.3788 18.703 26.3734 19.0072C26.3734 19.0235 26.3734 19.0452 26.3734 19.0615L26.368 19.0507Z" fill="white"/>
</g>
<defs>
<clipPath id="clip0_1387_20714">
<rect width="42.0769" height="42.094" fill="white"/>
</clipPath>
</defs>
</svg>
