<svg width="31" height="22" viewBox="0 0 31 22" fill="none" xmlns="http://www.w3.org/2000/svg">
<g clip-path="url(#clip0_1277_52746)">
<path fill-rule="evenodd" clip-rule="evenodd" d="M9.20262 3.92857C8.85871 5.28393 7.64475 6.28571 6.2001 6.28571C4.48783 6.28571 3.1001 4.8788 3.1001 3.14286C3.1001 1.40692 4.48783 0 6.2001 0C7.64475 0 8.85811 1.00179 9.20262 2.35714H30.2251C30.6532 2.35714 31.0001 2.70887 31.0001 3.14286C31.0001 3.57684 30.6532 3.92857 30.2251 3.92857H9.20262ZM7.7501 3.14286C7.7501 4.01083 7.05623 4.71429 6.2001 4.71429C5.34396 4.71429 4.6501 4.01083 4.6501 3.14286C4.6501 2.27489 5.34396 1.57143 6.2001 1.57143C7.05623 1.57143 7.7501 2.27489 7.7501 3.14286Z" fill="#8A8C8F"/>
<path d="M0.775 3.92836H3.19748C3.13391 3.6773 3.1 3.41396 3.1 3.14265C3.1 2.87133 3.13391 2.60799 3.19748 2.35693H0.775C0.346934 2.35693 0 2.70866 0 3.14265C0 3.57663 0.346934 3.92836 0.775 3.92836Z" fill="#8A8C8F"/>
<path fill-rule="evenodd" clip-rule="evenodd" d="M18.5025 18.0715C18.1586 16.7161 16.9446 15.7144 15.5 15.7144C14.0554 15.7144 12.842 16.7161 12.4975 18.0715H0.775C0.346934 18.0715 0 18.4232 0 18.8572C0 19.2912 0.346934 19.6429 0.775 19.6429H12.4975C12.8414 20.9983 14.0554 22.0001 15.5 22.0001C16.9446 22.0001 18.158 20.9983 18.5025 19.6429H30.225C30.6531 19.6429 31 19.2912 31 18.8572C31 18.4232 30.6531 18.0715 30.225 18.0715H18.5025ZM15.5 20.4286C16.3561 20.4286 17.05 19.7252 17.05 18.8572C17.05 17.9892 16.3561 17.2858 15.5 17.2858C14.6439 17.2858 13.95 17.9892 13.95 18.8572C13.95 19.7252 14.6439 20.4286 15.5 20.4286Z" fill="#8A8C8F"/>
<path fill-rule="evenodd" clip-rule="evenodd" d="M27.8025 10.2141C27.4586 8.85872 26.2446 7.85693 24.8 7.85693C23.3554 7.85693 22.142 8.85872 21.7975 10.2141H0.775C0.346934 10.2141 0 10.5658 0 10.9998C0 11.4338 0.346934 11.7855 0.775 11.7855H21.7975C22.1414 13.1409 23.3554 14.1426 24.8 14.1426C26.2446 14.1426 27.458 13.1409 27.8025 11.7855H30.225C30.6531 11.7855 31 11.4338 31 10.9998C31 10.5658 30.6531 10.2141 30.225 10.2141H27.8025ZM24.8 12.5712C25.6561 12.5712 26.35 11.8678 26.35 10.9998C26.35 10.1318 25.6561 9.42836 24.8 9.42836C23.9439 9.42836 23.25 10.1318 23.25 10.9998C23.25 11.8678 23.9439 12.5712 24.8 12.5712Z" fill="#8A8C8F"/>
</g>
<defs>
<clipPath id="clip0_1277_52746">
<rect width="31" height="22" fill="white"/>
</clipPath>
</defs>
</svg>
