<svg width="18" height="25" viewBox="0 0 18 25" fill="none" xmlns="http://www.w3.org/2000/svg">
<path d="M0 1H18M0 24H18M2.5 24V18L5.356 16.286C6.00983 15.8938 6.55095 15.3389 6.92663 14.6754C7.30232 14.0119 7.49978 13.2625 7.49978 12.5C7.49978 11.7375 7.30232 10.9881 6.92663 10.3246C6.55095 9.66111 6.00983 9.10623 5.356 8.714L2.5 7V1M15.5 1V7L12.644 8.714C11.9904 9.10642 11.4495 9.66137 11.074 10.3248C10.6985 10.9883 10.5012 11.7376 10.5012 12.5C10.5012 13.2624 10.6985 14.0117 11.074 14.6752C11.4495 15.3386 11.9904 15.8936 12.644 16.286L15.5 18V24" stroke="#FB0000"/>
</svg>
