<svg width="18" height="18" viewBox="0 0 18 18" fill="none" xmlns="http://www.w3.org/2000/svg">
<g clip-path="url(#clip0_1436_15994)">
<path d="M16.4282 4.33683H14.3548C14.6755 3.91088 14.8657 3.38133 14.8657 2.8083C14.8657 1.40374 13.723 0.260742 12.3181 0.260742C11.472 0.260742 10.848 0.564071 10.3545 1.21489C9.94179 1.75938 9.63982 2.51991 9.26108 3.48051C8.88235 2.51991 8.58037 1.75938 8.16767 1.21489C7.67413 0.564071 7.05014 0.260742 6.20402 0.260742C4.79947 0.260742 3.65646 1.40374 3.65646 2.8083C3.65646 3.38133 3.84668 3.91088 4.16733 4.33683H2.09396C1.25123 4.33683 0.56543 5.02263 0.56543 5.86536V6.88438C0.56543 7.54845 0.991381 8.11502 1.58445 8.32528V16.1235C1.58445 16.9662 2.27025 17.652 3.11298 17.652H15.4092C16.2519 17.652 16.9377 16.9662 16.9377 16.1235V8.32528C17.5308 8.11502 17.9567 7.54845 17.9567 6.88438V5.86536C17.9567 5.02263 17.2709 4.33683 16.4282 4.33683ZM10.1962 3.88642C10.9768 1.90612 11.2733 1.27976 12.3181 1.27976C13.1609 1.27976 13.8467 1.96557 13.8467 2.8083C13.8467 3.65103 13.1609 4.33683 12.3181 4.33683H10.0182C10.0807 4.18024 10.1402 4.02908 10.1965 3.88642H10.1962ZM6.20402 1.27976C7.24851 1.27976 7.54539 1.90612 8.32596 3.88642C8.38235 4.02908 8.44179 4.1799 8.50429 4.33683H6.20436C5.36163 4.33683 4.67582 3.65103 4.67582 2.8083C4.67582 1.96557 5.36163 1.27976 6.20436 1.27976H6.20402ZM7.22304 16.633H3.11298C2.83207 16.633 2.60347 16.4044 2.60347 16.1235V8.41292H7.22304V16.633ZM7.22304 7.39389H2.09396C1.81305 7.39389 1.58445 7.16529 1.58445 6.88438V5.86536C1.58445 5.58445 1.81305 5.35585 2.09396 5.35585H7.22304V7.39389ZM10.2801 16.633H8.24206V5.35585H10.2801V16.633ZM15.9187 16.1235C15.9187 16.4044 15.6901 16.633 15.4092 16.633H11.2991V8.41292H15.9187V16.1235ZM16.9377 6.88438C16.9377 7.16529 16.7091 7.39389 16.4282 7.39389H11.2991V5.35585H16.4282C16.7091 5.35585 16.9377 5.58445 16.9377 5.86536V6.88438Z" fill="white"/>
</g>
<defs>
<clipPath id="clip0_1436_15994">
<rect width="17.3913" height="17.3913" fill="white" transform="translate(0.56543 0.260742)"/>
</clipPath>
</defs>
</svg>
