<svg width="43" height="43" viewBox="0 0 43 43" fill="none" xmlns="http://www.w3.org/2000/svg">
<g clip-path="url(#clip0_1387_20729)">
<path d="M18.7703 21.3259C18.874 21.4232 18.9259 21.5594 18.9259 21.7022C18.9324 22.0006 18.7054 22.2472 18.4071 22.2537C18.4071 22.2537 18.3941 22.2537 18.3876 22.2537H16.2345C15.9297 22.2537 15.6832 22.0071 15.6832 21.7022V17.6277C15.7027 17.3293 15.9621 17.1087 16.2604 17.1281C16.5263 17.1476 16.7403 17.3617 16.7598 17.6277V21.1507H18.3746C18.5238 21.1507 18.6665 21.2091 18.7703 21.3194V21.3259Z" fill="white"/>
<path d="M20.0933 17.0957H19.8598C19.627 17.0957 19.4382 17.2845 19.4382 17.5174V21.8125C19.4382 22.0454 19.627 22.2342 19.8598 22.2342H20.0933C20.3261 22.2342 20.5148 22.0454 20.5148 21.8125V17.5174C20.5148 17.2845 20.3261 17.0957 20.0933 17.0957Z" fill="white"/>
<path d="M25.5215 17.6279V21.6699C25.5215 21.9748 25.2751 22.2213 24.9703 22.2213C24.8341 22.2213 24.7044 22.1694 24.6071 22.0721C24.5876 22.0721 23.8678 21.1184 23.2516 20.3269L22.3956 19.2174V21.6828C22.4086 21.9748 22.1751 22.2278 21.8832 22.2343C21.8768 22.2343 21.8703 22.2343 21.8638 22.2343C21.7276 22.2343 21.5979 22.1824 21.5006 22.0916C21.3904 21.9878 21.3255 21.845 21.3255 21.6958V17.6473C21.3255 17.3554 21.5525 17.1088 21.8443 17.0958C22.0065 17.0958 22.1556 17.1607 22.2659 17.2775C22.2853 17.3035 23.4008 18.7503 24.0234 19.5678C24.2698 19.8922 24.445 20.1192 24.445 20.1192V17.6279C24.445 17.3294 24.6849 17.0894 24.9832 17.0894C25.2816 17.0894 25.5215 17.3294 25.5215 17.6279Z" fill="white"/>
<path d="M27.4022 18.1727V19.1265H29.0106C29.3024 19.1135 29.5554 19.347 29.5619 19.639C29.5619 19.6455 29.5619 19.652 29.5619 19.6585C29.5619 19.9569 29.3219 20.197 29.0236 20.197C29.0236 20.197 29.0106 20.197 29.0041 20.197H27.3958V21.1507H29.0041C29.1468 21.1507 29.283 21.2091 29.3868 21.3064C29.6008 21.514 29.6008 21.8579 29.3868 22.0655C29.283 22.1693 29.1468 22.2277 28.9976 22.2277H26.8445C26.5462 22.2277 26.3062 21.9876 26.3062 21.6892C26.3062 21.6892 26.3062 21.6762 26.3062 21.6697V17.6212C26.3127 17.3293 26.5527 17.0957 26.8445 17.0827H28.9976C29.296 17.0633 29.5554 17.2839 29.5748 17.5823C29.5943 17.8808 29.3738 18.1403 29.0755 18.1597C29.0495 18.1597 29.0236 18.1597 28.9976 18.1597H27.3893L27.4022 18.1727Z" fill="white"/>
<path d="M21.6692 0C10.0475 0 0.630737 9.42054 0.630737 21.047C0.630737 32.6735 10.0475 42.094 21.6692 42.094C33.2909 42.094 42.7077 32.6735 42.7077 21.047C42.7077 9.42054 33.2909 0 21.6692 0ZM32.1884 19.8921C32.1755 20.1062 32.1495 20.3203 32.1106 20.528C31.9744 21.339 31.702 22.1175 31.3064 22.8312C31.1184 23.1751 30.1974 24.4662 29.9251 24.8035C28.3686 26.6786 25.7744 28.8391 21.4098 30.9412C21.1309 31.0839 20.7807 30.9736 20.638 30.6946C20.5862 30.5908 20.5667 30.4805 20.5797 30.3702L20.8002 28.3914C20.8326 28.0735 20.6056 27.7945 20.2878 27.7556C18.8481 27.6128 17.4408 27.2171 16.1372 26.5877C13.1475 25.102 11.1565 22.4614 11.1565 19.4639C11.1565 14.8445 15.8648 11.0944 21.6757 11.0944C24.5941 11.0944 27.2336 12.0417 29.1533 13.5728C30.9303 14.9937 32.0717 16.9336 32.2014 19.0811C32.2144 19.3536 32.2144 19.6261 32.2014 19.8986L32.1884 19.8921Z" fill="white"/>
</g>
<defs>
<clipPath id="clip0_1387_20729">
<rect width="42.0769" height="42.094" fill="white" transform="translate(0.630737)"/>
</clipPath>
</defs>
</svg>
