<svg width="29" height="38" viewBox="0 0 29 38" fill="none" xmlns="http://www.w3.org/2000/svg">
<g clip-path="url(#clip0_1436_16769)">
<path d="M14.5019 0C8.52441 0 3.66187 4.77426 3.66187 10.6396V15.8495C3.66187 16.2046 3.95645 16.4902 4.31816 16.4902H7.95015C8.31186 16.4902 8.60272 16.201 8.60272 15.8495V10.6396C8.60272 7.44696 11.2465 4.85114 14.4982 4.85114C17.7498 4.85114 20.3936 7.44696 20.3936 10.6396V15.8495C20.3936 16.2046 20.6882 16.4902 21.0499 16.4902H24.6819C25.0436 16.4902 25.3345 16.201 25.3345 15.8495V10.6396C25.3345 4.77426 20.4719 0 14.4982 0H14.5019ZM24.0294 15.2088H21.7062V10.6432C21.7062 6.744 18.4732 3.56971 14.5019 3.56971C10.5306 3.56971 7.29759 6.744 7.29759 10.6432V15.2088H4.97445V10.6432C4.97445 5.48454 9.24782 1.28876 14.5019 1.28876C19.756 1.28876 24.0294 5.48454 24.0294 10.6432V15.2088Z" fill="#8A8C8F"/>
<path d="M26.1884 15.209H2.81162C1.26038 15.209 0 16.4465 0 17.9696V35.2433C0 36.7664 1.26038 38.0039 2.81162 38.0039H26.1884C27.7396 38.0039 29 36.7664 29 35.2433V17.9696C29 16.4465 27.7396 15.209 26.1884 15.209ZM27.6911 35.2433C27.6911 36.0561 27.0162 36.7188 26.1884 36.7188H2.81162C1.9838 36.7188 1.30886 36.0561 1.30886 35.2433V17.9696C1.30886 17.1568 1.9838 16.4941 2.81162 16.4941H26.1884C27.0162 16.4941 27.6911 17.1568 27.6911 17.9696V35.2433Z" fill="#8A8C8F"/>
<path d="M16.7018 27.4446C17.4663 26.8112 17.91 25.8886 17.91 24.8928C17.91 23.0475 16.3811 21.5464 14.5018 21.5464C12.6224 21.5464 11.0935 23.0475 11.0935 24.8928C11.0935 25.885 11.5373 26.8112 12.3017 27.4446L11.5671 30.8862C11.5261 31.0766 11.5745 31.2743 11.7013 31.4244C11.8244 31.5745 12.0108 31.6624 12.2085 31.6624H16.7988C16.9964 31.6624 17.1829 31.5745 17.3059 31.4244C17.429 31.2743 17.4775 31.0766 17.4364 30.8862L16.7018 27.4446ZM15.6242 26.6318C15.393 26.7746 15.2774 27.0456 15.3333 27.3055L15.9896 30.3773H13.0102L13.6665 27.3055C13.7224 27.0419 13.6068 26.7746 13.3756 26.6318C12.7641 26.2474 12.3986 25.5994 12.3986 24.8964C12.3986 23.7578 13.3421 22.8351 14.5018 22.8351C15.6615 22.8351 16.6012 23.7614 16.6012 24.8964C16.6012 25.603 16.2357 26.2511 15.6242 26.6318Z" fill="#8A8C8F"/>
</g>
<defs>
<clipPath id="clip0_1436_16769">
<rect width="29" height="38" fill="white"/>
</clipPath>
</defs>
</svg>
