<svg width="21" height="15" viewBox="0 0 21 15" fill="none" xmlns="http://www.w3.org/2000/svg">
<g clip-path="url(#clip0_1436_16223)">
<path d="M10.9144 7.18772C10.1569 7.17713 9.64478 6.77134 9.64478 6.47494C9.64478 6.33027 9.7728 6.12914 9.92572 6.12914C10.1284 6.12914 10.292 6.55257 10.9144 6.60197V5.17995C10.3667 4.98588 9.75502 4.76711 9.75502 3.99435C9.75502 3.22159 10.3347 2.92872 10.9144 2.86873V2.6923C10.9144 2.6182 10.9891 2.55469 11.0922 2.55469C11.1847 2.55469 11.2736 2.62173 11.2736 2.6923V2.85462C11.6897 2.8652 12.2729 2.99223 12.2729 3.28863C12.2729 3.40508 12.1875 3.63443 12.0062 3.63443C11.8604 3.63443 11.7003 3.44036 11.2736 3.41213V4.64008C11.8035 4.83415 12.3831 5.0988 12.3831 5.92095C12.3831 6.66549 11.9315 7.0748 11.2736 7.16654V7.3712C11.2736 7.4453 11.1811 7.50882 11.0922 7.50882C10.9891 7.50882 10.9144 7.44177 10.9144 7.3712V7.18419V7.18772ZM10.9499 4.52716V3.42625C10.6085 3.46859 10.3631 3.62032 10.3631 3.93436C10.3631 4.28016 10.6263 4.40719 10.9499 4.52716ZM11.238 5.31404V6.59138C11.5687 6.5314 11.775 6.33733 11.775 5.99153C11.775 5.61044 11.5367 5.44107 11.238 5.31404Z" fill="#25BBEE"/>
<path d="M20.7795 8.12652C20.3848 7.55136 19.5917 7.39964 19.012 7.78778L14.9898 10.4589L14.1328 10.4095L14.1114 10.1907C14.0439 9.5062 13.6029 8.93104 12.9912 8.66992C13.3255 8.48644 13.6349 8.26061 13.9087 7.98891C14.6733 7.23026 15.093 6.22462 15.093 5.15193C15.093 4.07924 14.6733 3.07359 13.9087 2.31495C12.3333 0.751788 9.76918 0.751788 8.19018 2.31495C6.61118 3.87811 6.61473 6.30578 8.08349 7.87599C7.77765 7.76308 7.48247 7.62546 7.19797 7.45962C6.25199 6.90916 5.17087 6.61982 4.07553 6.61982H3.10466V6.01996C3.10466 5.67063 2.8166 5.38834 2.46808 5.38834H0.636579C0.284505 5.38834 0 5.67416 0 6.01996V13.7687C0 14.1181 0.288061 14.4003 0.636579 14.4003H2.46097C2.81304 14.4003 3.09754 14.1145 3.09754 13.7687V13.1265L7.84522 14.912C7.84522 14.912 7.863 14.919 7.87011 14.919C8.05859 14.972 8.24352 14.9967 8.42845 14.9967C8.52803 14.9967 8.6276 14.9896 8.72718 14.972L15.0147 14.0722C15.0147 14.0722 15.0147 14.0722 15.0183 14.0722C15.5553 13.9875 16.0638 13.7617 16.4835 13.4194C16.487 13.4194 16.4906 13.4123 16.4942 13.4088L20.559 9.78143C21.0391 9.358 21.128 8.64523 20.7688 8.11947L20.7795 8.12652ZM2.48586 13.7723C2.48586 13.7723 2.47519 13.797 2.46097 13.797H0.636579C0.636579 13.797 0.611685 13.7864 0.611685 13.7723V6.02349C0.611685 6.02349 0.622354 5.99879 0.636579 5.99879H2.46097C2.46097 5.99879 2.48586 6.00937 2.48586 6.02349V13.7723ZM8.62049 2.74544C9.95766 1.41869 12.1306 1.41869 13.4677 2.74544C14.115 3.38764 14.4706 4.24155 14.4706 5.15193C14.4706 6.0623 14.115 6.91622 13.4677 7.55842C13.0161 8.00655 12.4542 8.31707 11.8354 8.46174L11.4833 8.42292L9.51668 8.19709C9.18594 8.03478 8.88366 7.81954 8.62049 7.55842C7.28332 6.23168 7.28332 4.07571 8.62049 2.74896V2.74544ZM20.1572 9.3333L16.0958 12.9572C15.758 13.2289 15.3561 13.4053 14.9294 13.4759L8.64183 14.3756H8.63472C8.44623 14.4039 8.25064 14.3933 8.05148 14.3404L3.09754 12.4808V7.23379H4.06842C5.05707 7.23379 6.02794 7.49491 6.88146 7.98891C7.57849 8.3947 8.33954 8.65581 9.13971 8.76873C9.13971 8.76873 9.14327 8.76873 9.14682 8.76873L9.92921 8.85694L11.8141 9.07218L12.4222 9.14275C12.9948 9.22391 13.4357 9.68263 13.4926 10.2543L13.5069 10.3848L7.74564 10.1625C7.71719 10.159 7.69941 10.1449 7.68874 10.1308C7.67807 10.1166 7.66384 10.0955 7.6674 10.0672C7.68163 9.89787 7.55716 9.74967 7.39001 9.73556C7.22286 9.72144 7.06994 9.84494 7.05572 10.0108C7.03793 10.1978 7.09484 10.3778 7.21575 10.5224C7.33666 10.6671 7.50737 10.7553 7.69229 10.7694C7.69585 10.7694 7.70296 10.7694 7.70652 10.7694L13.8269 11.0023L15.0503 11.0694C15.1179 11.0729 15.1819 11.0552 15.2388 11.0164L19.3463 8.28884C19.6486 8.08771 20.0611 8.16534 20.2638 8.46527C20.4523 8.73697 20.4061 9.10747 20.1536 9.32977L20.1572 9.3333Z" fill="#25BBEE"/>
<path d="M6.36576 6.57011C6.52935 6.53129 6.63249 6.36545 6.59337 6.20314C6.22351 4.65762 6.67872 3.0627 7.80963 1.94061C8.67381 1.08316 9.8225 0.610334 11.0459 0.610334C12.2692 0.610334 13.4179 1.08316 14.2821 1.94061C15.1321 2.78394 15.6086 3.90603 15.6228 5.10222C15.6371 6.29488 15.189 7.42402 14.3603 8.285C14.243 8.4085 14.2465 8.59904 14.371 8.71549C14.4315 8.77194 14.5062 8.80017 14.5844 8.80017C14.6662 8.80017 14.748 8.76841 14.8084 8.7049C15.7473 7.72748 16.2559 6.44661 16.2416 5.09516C16.2274 3.74019 15.6868 2.46637 14.7231 1.51012C13.7415 0.536234 12.4399 0.00341797 11.053 0.00341797C9.66602 0.00341797 8.36441 0.539762 7.38287 1.51012C6.09904 2.78394 5.58338 4.59057 6.00302 6.34781C6.04214 6.51012 6.20929 6.61245 6.37288 6.57364L6.36576 6.57011Z" fill="#25BBEE"/>
</g>
<defs>
<clipPath id="clip0_1436_16223">
<rect width="21" height="15" fill="white"/>
</clipPath>
</defs>
</svg>
