<svg width="40" height="40" viewBox="0 0 40 40" fill="none" xmlns="http://www.w3.org/2000/svg">
<g clip-path="url(#clip0_1407_49435)">
<path d="M39.8759 10.1006C39.5868 9.52173 38.8829 9.28736 38.304 9.57642L33.6165 11.9202C33.0376 12.21 32.8032 12.9131 33.0923 13.492C33.3814 14.071 34.0853 14.3053 34.6642 14.0163L39.3517 11.6725C39.9306 11.3827 40.1649 10.6788 39.8759 10.0999V10.1006Z" fill="#00AC26"/>
<path d="M39.3517 23.6389L34.6642 21.2952C34.0853 21.0061 33.3814 21.2405 33.0923 21.8194C32.8032 22.3983 33.0376 23.1022 33.6165 23.3913L38.304 25.735C38.8829 26.0241 39.5868 25.7897 39.8759 25.2108C40.1649 24.6319 39.9306 23.928 39.3517 23.6389Z" fill="#00AC26"/>
<path d="M27.0312 18.8281H9.375V12.8906C9.375 9.66016 12.0383 7.03125 15.3125 7.03125C18.5867 7.03125 21.1719 9.66016 21.1719 12.8906V15.2344C21.1719 15.8813 21.6969 16.4062 22.3438 16.4062H27.0312C27.6781 16.4062 28.2031 15.8813 28.2031 15.2344V12.8906C28.2031 5.78281 22.4203 0 15.3125 0C8.16172 0 2.34375 5.78281 2.34375 12.8906V19.0297C0.979688 19.5133 0 20.8156 0 22.3438V36.4844C0 38.4227 1.57734 40 3.51562 40H27.0312C28.9695 40 30.5469 38.4227 30.5469 36.4844V22.3438C30.5469 20.4055 28.9695 18.8281 27.0312 18.8281ZM4.6875 12.8906C4.6875 7.075 9.45391 2.34375 15.3125 2.34375C21.1711 2.34375 25.8594 7.075 25.8594 12.8906V14.0625H23.5156V12.8906C23.5156 8.36719 19.8359 4.6875 15.3125 4.6875C10.7891 4.6875 7.03125 8.36875 7.03125 12.8906V18.8281H4.6875V12.8906ZM28.2031 36.4844C28.2031 37.1305 27.6773 37.6562 27.0312 37.6562H3.51562C2.86953 37.6562 2.34375 37.1305 2.34375 36.4844V22.3438C2.34375 21.6977 2.86953 21.1719 3.51562 21.1719H27.0312C27.6773 21.1719 28.2031 21.6977 28.2031 22.3438V36.4844Z" fill="#00AC26"/>
<path d="M15.3125 23.5156C13.3742 23.5156 11.7969 25.093 11.7969 27.0312C11.7969 28.5586 12.7766 29.8617 14.1406 30.3453V34.1406C14.1406 34.7875 14.6656 35.3125 15.3125 35.3125C15.9594 35.3125 16.4844 34.7875 16.4844 34.1406V30.3453C17.8484 29.8617 18.8281 28.5594 18.8281 27.0312C18.8281 25.093 17.2508 23.5156 15.3125 23.5156ZM15.3125 28.2031C14.6664 28.2031 14.1406 27.6773 14.1406 27.0312C14.1406 26.3852 14.6664 25.8594 15.3125 25.8594C15.9586 25.8594 16.4844 26.3852 16.4844 27.0312C16.4844 27.6773 15.9586 28.2031 15.3125 28.2031Z" fill="#00AC26"/>
<path d="M38.8281 16.4844H34.1406C33.4938 16.4844 32.9688 17.0094 32.9688 17.6562C32.9688 18.3031 33.4938 18.8281 34.1406 18.8281H38.8281C39.475 18.8281 40 18.3031 40 17.6562C40 17.0094 39.475 16.4844 38.8281 16.4844Z" fill="#00AC26"/>
</g>
<defs>
<clipPath id="clip0_1407_49435">
<rect width="40" height="40" fill="white"/>
</clipPath>
</defs>
</svg>
