<svg width="34" height="30" viewBox="0 0 34 30" fill="none" xmlns="http://www.w3.org/2000/svg">
<path d="M33.7451 8.91557L25.248 0.259791C25.0859 0.0944696 24.8658 0 24.6341 0C24.4024 0 24.1823 0.0944696 24.0201 0.259791L19.3458 5.0246C19.1547 5.21944 19.1547 5.53828 19.3458 5.73312C19.537 5.92797 19.8497 5.92797 20.0409 5.73312L24.6283 1.05688L32.9574 9.54733L17.9499 24.8455L16.2007 23.0624C16.2702 22.9797 16.3397 22.8971 16.4092 22.8085L16.6756 22.4601C16.8436 22.5074 17.029 22.4897 17.1969 22.3952C17.6603 22.1413 18.2337 22.1413 18.6971 22.3952C18.8072 22.4542 18.923 22.4838 19.0331 22.4838C19.2126 22.4838 19.3922 22.4129 19.5254 22.2712L20.6664 21.108C20.8576 20.9132 20.8576 20.5944 20.6664 20.3995C20.4753 20.2047 20.1625 20.2047 19.9714 20.3995L18.9693 21.421C18.5407 21.232 18.0831 21.1612 17.6313 21.2202L17.9789 20.7715L20.2031 18.5042L22.184 16.4849C22.798 16.3196 23.3598 15.9949 23.8174 15.5343C25.2133 14.1114 25.2133 11.791 23.8174 10.3621C22.4215 8.93918 20.1451 8.93918 18.7434 10.3621C17.8109 11.3127 17.475 12.7239 17.8457 13.9933C17.4344 14.2472 17.0579 14.5365 16.7509 14.8494L14.7874 16.8569C14.66 16.9868 14.492 17.0577 14.3124 17.0577H14.2951C14.0286 17.0577 13.6463 16.7506 13.5363 16.4672V14.7254L23.6089 4.4755C24.2692 4.77071 25.0106 4.77071 25.6709 4.4755L29.6153 8.49636C29.3257 9.16945 29.3257 9.92521 29.6153 10.5983L21.6395 18.7286C21.4484 18.9234 21.4484 19.2423 21.6395 19.4371C21.738 19.5375 21.8596 19.5847 21.9871 19.5847C22.1145 19.5847 22.2419 19.5375 22.3346 19.4371L30.4552 11.1592C30.6753 10.9349 30.7216 10.5924 30.5768 10.309C30.3278 9.83665 30.3278 9.25212 30.5768 8.77977C30.7274 8.49636 30.6811 8.15391 30.4552 7.92954L26.2269 3.61937C26.0068 3.395 25.6709 3.34777 25.3928 3.49537C24.9295 3.74926 24.356 3.74926 23.8927 3.49537C23.6147 3.34186 23.2845 3.3891 23.0586 3.61937L13.5537 13.3084V12.3578L18.3901 7.42767C18.5233 7.29187 18.5697 7.09112 18.506 6.90809C18.4422 6.72505 18.2859 6.59516 18.0947 6.57745C17.2722 6.48298 16.4613 6.41803 15.8126 6.35898C15.3666 6.32356 15.0133 6.29404 14.8048 6.26451C14.156 6.18776 13.5247 6.41212 12.876 6.96123L8.57819 10.4212C8.57819 10.4212 8.5724 10.4212 8.56661 10.4271C7.87734 11.0057 7.3908 11.7792 7.15332 12.6589C6.70732 14.3062 5.74583 17.2997 5.13765 18.516L3.04089 20.6534L2.96559 20.5708C2.75707 20.3582 2.48484 20.246 2.19523 20.246C1.90562 20.246 1.63339 20.3641 1.42487 20.5708L0.318569 21.6985C0.110051 21.911 0 22.1885 0 22.4838C0 22.779 0.115843 23.0565 0.318569 23.269L6.60307 29.6753C6.81158 29.8878 7.08382 30 7.37342 30C7.66303 30 7.93526 29.8819 8.14378 29.6753L9.25008 28.5475C9.4586 28.3409 9.56866 28.0575 9.56866 27.7622C9.56866 27.467 9.45281 27.1895 9.25008 26.977L9.16899 26.8943L9.69029 26.3629C9.91618 26.1327 10.1942 25.9673 10.5012 25.8729C10.507 25.8729 10.5128 25.8729 10.5186 25.867L13.6753 24.7806C14.3414 24.5503 14.9554 24.196 15.4998 23.7532L17.3417 25.6308C17.5039 25.7961 17.724 25.8906 17.9557 25.8906C18.1874 25.8906 18.4075 25.7961 18.5697 25.6308L33.7451 10.1673C33.9073 10.002 34 9.7776 34 9.54143C34 9.30525 33.9073 9.08089 33.7451 8.91557ZM19.8729 17.4355L19.5138 17.0695C19.3864 16.9396 19.3864 16.7329 19.5138 16.603L20.2204 15.8827C20.4348 15.6642 20.7128 15.558 20.9966 15.558C21.1935 15.558 21.3905 15.6111 21.5642 15.7174L19.8787 17.4355H19.8729ZM19.4559 11.0707C20.4695 10.0374 22.1203 10.0374 23.1339 11.0707C24.0838 12.039 24.1417 13.5682 23.3193 14.6074C23.3193 14.2354 23.1687 13.887 22.8848 13.5859C22.5721 13.2021 22.0566 12.9837 21.402 12.9482C20.6027 12.9069 19.647 13.1254 18.755 13.521C18.5697 12.6471 18.8187 11.7142 19.4559 11.0707ZM8.54923 27.839L7.44293 28.9667C7.44293 28.9667 7.3908 28.9963 7.36763 28.9963C7.34446 28.9963 7.32129 28.9963 7.29233 28.9667L1.00784 22.5605C1.00784 22.5605 0.978876 22.5074 0.978876 22.4838C0.978876 22.4601 0.978876 22.4365 1.00784 22.407L2.11414 21.2793C2.11414 21.2793 2.16627 21.2498 2.18944 21.2498C2.21261 21.2498 2.23578 21.2498 2.26474 21.2793L8.54923 27.6855C8.54923 27.6855 8.57819 27.7386 8.57819 27.7622C8.57819 27.7859 8.57819 27.8095 8.54923 27.839ZM16.2007 21.4682L15.6446 22.1885C15.4998 22.3775 15.3434 22.5487 15.1755 22.714C14.66 23.2159 14.046 23.5938 13.3683 23.83L10.2232 24.9104C9.76559 25.0462 9.34276 25.306 9.00102 25.6485L8.47973 26.1799L3.74174 21.3501L5.89063 19.1596C5.92538 19.1242 5.95434 19.0829 5.97751 19.0356C6.62044 17.7839 7.62828 14.6723 8.10324 12.9128C8.28859 12.2338 8.66508 11.6434 9.19216 11.1946L13.4899 7.7347C13.4899 7.7347 13.4957 7.7347 13.5015 7.72879C13.9475 7.35682 14.3124 7.20921 14.6889 7.25644C14.9148 7.28597 15.2797 7.31549 15.7315 7.35091C16.0964 7.38044 16.5135 7.41586 16.9537 7.45719L12.708 11.7851C12.6153 11.8795 12.5632 12.0094 12.5632 12.1393V16.5381C12.5632 16.5794 12.569 16.6266 12.5806 16.668C12.7717 17.406 13.5826 18.0555 14.3066 18.0555H14.324C14.77 18.0555 15.1871 17.8784 15.4998 17.5595L17.4634 15.558C17.7877 15.2273 18.2048 14.9262 18.6624 14.6782C18.6855 14.6664 18.7029 14.6605 18.7203 14.6428C19.5833 14.1822 20.5738 13.9047 21.3499 13.9461C21.7264 13.9638 22.0044 14.0701 22.1376 14.2354C22.1492 14.2472 22.1608 14.2649 22.1724 14.2767C22.3462 14.4538 22.3462 14.5956 22.3288 14.7018C22.3114 14.7845 22.2767 14.8731 22.2245 14.9616C21.4136 14.3476 20.2552 14.4184 19.5196 15.1683L18.813 15.8886C18.5639 16.1425 18.4307 16.4731 18.4307 16.8333C18.4307 17.1935 18.5697 17.5241 18.813 17.778L19.1721 18.1441L17.278 20.0748C17.278 20.0748 17.2491 20.1043 17.2375 20.1161L16.2007 21.4564V21.4682Z" fill="#8A8C8F"/>
</svg>
