<svg width="44" height="41" viewBox="0 0 44 41" fill="none" xmlns="http://www.w3.org/2000/svg">
<g clip-path="url(#clip0_1407_49446)">
<path d="M38.8926 40.9997H3.07217C1.37688 40.9997 0.00215138 39.6135 0 37.9019V9.17152C0 8.82227 0.281831 8.53809 0.628203 8.53809H38.8926C40.5879 8.53809 41.9626 9.92645 41.9648 11.6359V20.1157C41.9648 20.465 41.683 20.7491 41.3366 20.7491C40.9902 20.7491 40.7084 20.465 40.7084 20.1157V11.6359C40.7084 10.6271 39.8952 9.80713 38.8948 9.80713H1.25641V37.9062C1.25641 38.915 2.06963 39.735 3.07002 39.735H38.8926C39.893 39.735 40.7062 38.915 40.7062 37.9062V29.4264C40.7062 29.0771 40.9881 28.793 41.3344 28.793C41.6808 28.793 41.9626 29.0771 41.9626 29.4264V37.9062C41.9626 39.6157 40.5858 41.0018 38.8905 41.004L38.8926 40.9997Z" fill="white"/>
<path d="M42.3198 30.0535H34.9578C32.062 30.0535 29.7148 27.6868 29.7148 24.769C29.7148 21.8491 32.062 19.4824 34.9556 19.4824H42.3176C43.2449 19.4824 43.9957 20.2417 43.9978 21.1767V28.3571C43.9978 29.2921 43.2449 30.0513 42.3176 30.0535H42.3198ZM34.9578 20.7515C32.7569 20.7515 30.9734 22.5498 30.9713 24.769C30.9691 26.9882 32.7547 28.7866 34.9556 28.7888H42.3176C42.5521 28.7888 42.7414 28.5979 42.7414 28.3614C42.7414 28.3614 42.7414 28.3614 42.7414 28.3592V21.1788C42.7414 20.9424 42.5521 20.7515 42.3176 20.7515H34.9556H34.9578Z" fill="white"/>
<path d="M0.628203 9.80567C0.281831 9.80567 0 9.52149 0 9.17223C0 8.90107 0.169959 8.66028 0.423822 8.5735L24.515 0.249852C26.903 -0.574486 29.5019 0.707577 30.3215 3.11551C30.485 3.5971 30.5689 4.10255 30.5689 4.61017V9.17006C30.5689 9.51932 30.2871 9.8035 29.9407 9.8035C29.5944 9.8035 29.3125 9.51932 29.3125 9.17006V4.61017C29.3125 2.76409 27.8281 1.26726 25.9973 1.26726C25.6315 1.26726 25.2679 1.328 24.9237 1.44731L0.832584 9.77096C0.768042 9.79266 0.699198 9.80567 0.628203 9.80567Z" fill="white"/>
<path d="M35.2053 27.0444C33.9596 27.0444 32.9485 26.0248 32.9485 24.7688C32.9485 23.5127 33.9596 22.4932 35.2053 22.4932C36.4509 22.4932 37.4621 23.5127 37.4621 24.7688C37.4621 26.0248 36.4509 27.0444 35.2053 27.0444ZM35.2053 23.76C34.6524 23.76 34.2049 24.2113 34.2049 24.7688C34.2049 25.3263 34.6524 25.7775 35.2053 25.7775C35.7582 25.7775 36.2057 25.3263 36.2057 24.7688C36.2057 24.2113 35.7582 23.76 35.2053 23.76Z" fill="white"/>
</g>
<defs>
<clipPath id="clip0_1407_49446">
<rect width="44" height="41" fill="white"/>
</clipPath>
</defs>
</svg>
