<svg width="21" height="19" viewBox="0 0 21 19" fill="none" xmlns="http://www.w3.org/2000/svg">
<g clip-path="url(#clip0_1252_42596)">
<path d="M18.5624 19.0002H1.46626C0.657148 19.0002 0.00102679 18.3578 0 17.5647V4.25058C0 4.08872 0.13451 3.95703 0.299824 3.95703H18.5624C19.3715 3.95703 20.0276 4.60042 20.0287 5.39259V9.32227C20.0287 9.48412 19.8941 9.61581 19.7288 9.61581C19.5635 9.61581 19.429 9.48412 19.429 9.32227V5.39259C19.429 4.92513 19.0409 4.54513 18.5634 4.54513H0.599648V17.5667C0.599648 18.0341 0.987776 18.4141 1.46524 18.4141H18.5624C19.0399 18.4141 19.428 18.0341 19.428 17.5667V13.637C19.428 13.4751 19.5625 13.3434 19.7278 13.3434C19.8931 13.3434 20.0276 13.4751 20.0276 13.637V17.5667C20.0276 18.3588 19.3705 19.0012 18.5614 19.0022L18.5624 19.0002Z" fill="#8A8C8F"/>
<path d="M20.1981 13.9271H16.6844C15.3024 13.9271 14.1821 12.8303 14.1821 11.4782C14.1821 10.1251 15.3024 9.02832 16.6834 9.02832H20.1971C20.6396 9.02832 20.998 9.38017 20.999 9.81345V13.141C20.999 13.5742 20.6396 13.9261 20.1971 13.9271H20.1981ZM16.6844 9.61642C15.634 9.61642 14.7828 10.4498 14.7818 11.4782C14.7808 12.5066 15.633 13.34 16.6834 13.341H20.1971C20.309 13.341 20.3994 13.2526 20.3994 13.143C20.3994 13.143 20.3994 13.143 20.3994 13.142V9.81446C20.3994 9.70488 20.309 9.61642 20.1971 9.61642H16.6834H16.6844Z" fill="#8A8C8F"/>
<path d="M0.299824 4.5436C0.13451 4.5436 0 4.41191 0 4.25006C0 4.1244 0.0811168 4.01281 0.202279 3.9726L11.7003 0.115297C12.8401 -0.266714 14.0804 0.327413 14.4716 1.44329C14.5497 1.66646 14.5897 1.90069 14.5897 2.13593V4.24905C14.5897 4.41091 14.4552 4.5426 14.2899 4.5426C14.1246 4.5426 13.9901 4.41091 13.9901 4.24905V2.13593C13.9901 1.28043 13.2816 0.586779 12.4078 0.586779C12.2332 0.586779 12.0597 0.614927 11.8954 0.670218L0.397369 4.52752C0.366566 4.53757 0.333708 4.5436 0.299824 4.5436Z" fill="#8A8C8F"/>
<path d="M16.8027 12.5329C16.2082 12.5329 15.7256 12.0604 15.7256 11.4784C15.7256 10.8963 16.2082 10.4238 16.8027 10.4238C17.3972 10.4238 17.8798 10.8963 17.8798 11.4784C17.8798 12.0604 17.3972 12.5329 16.8027 12.5329ZM16.8027 11.0109C16.5388 11.0109 16.3252 11.22 16.3252 11.4784C16.3252 11.7367 16.5388 11.9458 16.8027 11.9458C17.0666 11.9458 17.2802 11.7367 17.2802 11.4784C17.2802 11.22 17.0666 11.0109 16.8027 11.0109Z" fill="#8A8C8F"/>
</g>
<defs>
<clipPath id="clip0_1252_42596">
<rect width="21" height="19" fill="white"/>
</clipPath>
</defs>
</svg>
