<svg width="23" height="23" viewBox="0 0 23 23" fill="none" xmlns="http://www.w3.org/2000/svg">
<g clip-path="url(#clip0_1774_50557)">
<path d="M10.05 5.60505C7.89304 6.1079 6.15564 7.81846 5.62595 9.96407C5.09343 12.1153 5.70223 14.309 7.25458 15.8302C7.80405 16.3684 8.13175 17.2315 8.13175 18.1383V18.2824C8.13175 18.8799 8.39166 19.4166 8.80552 19.7881V20.9789C8.80552 22.0933 9.71236 23.0002 10.8268 23.0002H12.1744C13.2889 23.0002 14.1957 22.0933 14.1957 20.9789V19.7881C14.6096 19.418 14.8695 18.8799 14.8695 18.2824V18.1355C14.8695 17.2428 15.2141 16.3628 15.7932 15.7836C16.936 14.6381 17.5645 13.1168 17.5645 11.4995C17.5645 7.63201 13.981 4.68832 10.05 5.60363V5.60505ZM12.8481 20.9789C12.8481 21.3504 12.5459 21.6526 12.1744 21.6526H10.8268C10.4553 21.6526 10.1531 21.3504 10.1531 20.9789V20.3051H12.8481V20.9789ZM14.8398 14.8316C14.0022 15.6706 13.5219 16.8755 13.5219 18.1355V18.2824C13.5219 18.6539 13.2196 18.9561 12.8481 18.9561H10.1531C9.78157 18.9561 9.47929 18.6539 9.47929 18.2824V18.1383C9.47929 16.8586 9.01175 15.6664 8.19814 14.8683C6.99044 13.6832 6.51725 11.9713 6.93394 10.2875C7.34357 8.62924 8.68687 7.30713 10.3565 6.91727C13.4414 6.1983 16.217 8.5007 16.217 11.5009C16.217 12.7594 15.7283 13.9417 14.8384 14.833L14.8398 14.8316Z" fill="white"/>
<path d="M6.25886 5.30566L4.35338 3.40017C4.09065 3.13744 3.66407 3.13744 3.39993 3.40017C3.1372 3.6629 3.1372 4.08948 3.39993 4.35362L5.30541 6.2591C5.56814 6.52183 5.99472 6.52183 6.25886 6.2591C6.52159 5.99638 6.52159 5.5698 6.25886 5.30566Z" fill="white"/>
<path d="M3.41405 10.8262H0.67377C0.302278 10.8262 0 11.1285 0 11.4999C0 11.8714 0.302278 12.1737 0.67377 12.1737H3.41405C3.78554 12.1737 4.08782 11.8714 4.08782 11.4999C4.08782 11.1285 3.78554 10.8262 3.41405 10.8262Z" fill="white"/>
<path d="M22.3262 10.8262H19.5859C19.2144 10.8262 18.9121 11.1285 18.9121 11.4999C18.9121 11.8714 19.2144 12.1737 19.5859 12.1737H22.3262C22.6977 12.1737 22.9999 11.8714 22.9999 11.4999C22.9999 11.1285 22.6977 10.8262 22.3262 10.8262Z" fill="white"/>
<path d="M19.6002 3.40017C19.3374 3.13744 18.9109 3.13744 18.6467 3.40017L16.7412 5.30566C16.4785 5.56838 16.4785 5.99496 16.7412 6.2591C17.004 6.52183 17.4305 6.52183 17.6947 6.2591L19.6002 4.35362C19.8629 4.09089 19.8629 3.66431 19.6002 3.40017Z" fill="white"/>
<path d="M11.4992 0C11.1277 0 10.8254 0.302278 10.8254 0.67377V3.41405C10.8254 3.78554 11.1277 4.08782 11.4992 4.08782C11.8707 4.08782 12.173 3.78554 12.173 3.41405V0.67377C12.173 0.302278 11.8707 0 11.4992 0Z" fill="white"/>
<path d="M11.4992 8.13086C11.2224 8.13086 10.9399 8.16476 10.6616 8.22974C9.49913 8.50094 8.52731 9.45721 8.24199 10.6098C8.153 10.9714 8.37194 11.3359 8.73354 11.4263C9.09515 11.5152 9.45957 11.2949 9.54998 10.9347C9.71383 10.2722 10.2972 9.69875 10.9696 9.54196C11.1489 9.49959 11.3269 9.4784 11.5007 9.4784C11.8722 9.4784 12.1744 9.17612 12.1744 8.80463C12.1744 8.43314 11.8722 8.13086 11.5007 8.13086H11.4992Z" fill="white"/>
</g>
<defs>
<clipPath id="clip0_1774_50557">
<rect width="23" height="23" fill="white"/>
</clipPath>
</defs>
</svg>
