<svg width="119" height="36" viewBox="0 0 119 36" fill="none" xmlns="http://www.w3.org/2000/svg">
<g clip-path="url(#clip0_1074_34107)">
<path d="M57.2386 13.4557C56.7529 13.4557 56.3494 13.3127 56.0304 13.0257C55.7102 12.7387 55.5501 12.3732 55.5501 11.928C55.5501 11.4828 55.7069 11.1008 56.0205 10.8204C56.3341 10.541 56.7398 10.4014 57.2386 10.4014C57.7375 10.4014 58.1234 10.541 58.437 10.8204C58.7495 11.1008 58.9074 11.4697 58.9074 11.928C58.9074 12.3601 58.7506 12.7235 58.437 13.0159C58.1234 13.3083 57.7233 13.4546 57.2386 13.4546V13.4557ZM55.8188 25.8638V15.1743H58.619V25.8638H55.8188Z" fill="#1B263C"/>
<path d="M65.5824 26.1311C63.2295 26.1311 62.053 24.7955 62.053 22.122V17.3884H60.5378V15.3074L62.1879 15.1743L62.5146 12.3099H64.8741V15.1743H67.5209V17.3884H64.8741V22.122C64.8741 23.3191 65.3598 23.9159 66.3312 23.9159C66.6514 23.9159 67.0023 23.8396 67.386 23.6879L67.8465 25.7295C67.0406 25.9969 66.2863 26.13 65.5835 26.13L65.5824 26.1311Z" fill="#1B263C"/>
<path d="M75.016 21.5033L75.0193 25.8638H72.1807V20.6904L67.9222 11.737H70.934L75.016 21.5022V21.5033ZM74.1816 17.0446C74.1816 17.0446 74.7627 15.5988 74.925 15.1743L76.3438 11.7381H79.2975L75.3976 19.8992L74.1805 17.0446H74.1816Z" fill="#1B263C"/>
<path d="M81.7327 26.1311C80.7865 26.1311 80.019 25.8332 79.4313 25.2341C78.8425 24.6362 78.5487 23.8789 78.5487 22.9633C78.5487 21.8176 79.0377 20.9293 80.0157 20.2997C80.9948 19.6701 82.5638 19.2401 84.7248 19.011C84.6733 17.7768 84.0659 17.1603 82.9025 17.1603C82.1098 17.1603 81.1242 17.4975 79.9488 18.1719L78.9324 16.3201C80.4531 15.3784 81.9498 14.9081 83.4201 14.9081C84.7752 14.9081 85.8026 15.3053 86.4988 16.1007C87.1961 16.8962 87.5437 18.0704 87.5437 19.6221V25.8638H85.2423L85.0318 24.7191H84.9737C83.874 25.6608 82.7929 26.1311 81.7327 26.1311ZM82.6526 23.9356C83.3313 23.9356 84.0209 23.5864 84.7248 22.8859V20.7285C82.3971 21.0341 81.2338 21.703 81.2338 22.7331C81.2338 23.5351 81.7064 23.9356 82.6526 23.9356Z" fill="#1B263C"/>
<path d="M94.9862 26.1311C93.4644 26.1311 92.2177 25.6422 91.2463 24.6612C90.2486 23.6301 89.7497 22.2551 89.7497 20.5387C89.7497 18.8222 90.299 17.4331 91.3998 16.3768C92.4359 15.3969 93.7143 14.907 95.2362 14.907C96.3863 14.907 97.429 15.302 98.3632 16.0898L97.0201 17.9034C96.4708 17.4331 95.9204 17.1974 95.371 17.1974C94.552 17.1974 93.8909 17.5029 93.3854 18.1129C92.88 18.724 92.6278 19.5326 92.6278 20.5376C92.6278 21.5426 92.8778 22.3293 93.3767 22.9328C93.8755 23.5373 94.5147 23.8396 95.2954 23.8396C95.9982 23.8396 96.6955 23.5537 97.3852 22.9808L98.498 24.8326C97.5134 25.699 96.3436 26.13 94.9873 26.13L94.9862 26.1311Z" fill="#1B263C"/>
<path d="M100.53 25.8638V10.6305H103.33V14.4672L103.215 16.4718C104.34 15.4286 105.466 14.907 106.591 14.907C108.802 14.907 109.908 16.3386 109.908 19.202V25.8638H107.09V19.5457C107.09 18.7306 106.971 18.1555 106.734 17.8172C106.498 17.4811 106.11 17.312 105.573 17.312C105.164 17.312 104.781 17.4146 104.423 17.6175C104.141 17.7834 103.777 18.0824 103.33 18.5145V25.8638H100.53Z" fill="#1B263C"/>
<path d="M116.737 26.1311C114.385 26.1311 113.208 24.7955 113.208 22.122V17.3884H111.692V15.3074L113.341 15.1743L113.668 12.3099H116.028V15.1743H118.675V17.3884H116.028V22.122C116.028 23.3191 116.513 23.9159 117.486 23.9159C117.805 23.9159 118.157 23.8396 118.541 23.6879L119.001 25.7295C118.195 25.9969 117.441 26.13 116.738 26.13L116.737 26.1311Z" fill="#1B263C"/>
<path d="M42.9874 25.8638V11.7381H47.6877C51.114 11.7381 52.8277 12.8959 52.8277 15.2125C52.8277 15.8869 52.6556 16.5045 52.3091 17.0632C51.9506 17.6623 51.478 18.0627 50.8904 18.2668V18.3628C51.6962 18.5527 52.3354 18.9161 52.808 19.4507C53.3069 20.0367 53.5569 20.7875 53.5569 21.703C53.5569 23.0659 53.0328 24.1146 51.9846 24.8533C51.0121 25.5288 49.7018 25.866 48.0517 25.866H42.9885L42.9874 25.8638ZM45.8271 17.4833H47.4761C49.203 17.4833 50.0659 16.8668 50.0659 15.6315C50.0659 15.0204 49.8553 14.5763 49.4332 14.2959C49.0232 14.0285 48.3839 13.8954 47.5145 13.8954H45.8271V17.4844V17.4833ZM45.8271 23.6868H47.8028C49.7972 23.6868 50.795 22.9688 50.795 21.5295C50.795 20.2321 49.7972 19.5817 47.8028 19.5817H45.8271V23.6857V23.6868Z" fill="#1B263C"/>
<path d="M18.0482 7.2729L26.9665 11.7108V7.2729L18.0482 2.83496V7.2729Z" fill="#7589A4"/>
<path d="M21.2695 1.66409L17.9243 0V1.66409L21.2695 3.32818V1.66409Z" fill="#7589A4"/>
<path d="M17.8563 9.16721V9.15958L17.8497 9.16285L17.8431 9.15958V9.16721L0 18.1304L7.56749 30.4796L17.8497 36L28.132 30.4796L35.6995 18.1304L17.8574 9.16721H17.8563ZM17.3607 35.3082L7.95892 30.0933L0.606321 18.3781L17.3607 9.96161V35.3093V35.3082ZM27.2208 29.0195L19.411 32.925L19.4648 29.9132L25.2506 27.3151L19.9516 13.6695L23.9557 15.6817L28.4905 26.9572L27.2208 29.0195ZM28.0015 22.6818L29.9838 18.6345L32.0506 19.7486L29.1483 25.6248L28.0026 22.6807L28.0015 22.6818Z" fill="#7589A4"/>
<path d="M8.67488 29.4866L11.519 30.9237L5.29462 18.8452L3.1248 19.9134L8.67488 29.4866Z" fill="#7589A4"/>
<path d="M13.6778 31.7334C15.4606 31.1027 15.5472 29.3742 15.5472 27.3838C15.5472 25.7939 14.7337 24.3939 13.4969 23.5733L13.5485 23.5417C14.851 22.7331 15.7183 21.2949 15.7183 19.6537C15.7183 17.6001 14.3905 15.8672 12.5178 15.2878L6.1553 18.4207L12.8347 31.4169L13.6767 31.7334H13.6778Z" fill="#7589A4"/>
<path d="M17.5537 3.63263L9.62657 7.57734V10.9132L17.5537 6.96845V3.63263Z" fill="#7589A4"/>
<path d="M17.4298 0.797668L15.0758 1.96853V2.5305L17.4298 1.35964V0.797668Z" fill="#7589A4"/>
</g>
<defs>
<clipPath id="clip0_1074_34107">
<rect width="119" height="36" fill="white"/>
</clipPath>
</defs>
</svg>
