<svg width="250" height="378" viewBox="0 0 250 378" fill="none" xmlns="http://www.w3.org/2000/svg">
<g opacity="0.5">
<g clip-path="url(#clip0_1125_39617)">
<path d="M50.9189 103.739L50.8631 103.706L25.9648 89.3343V60.5247L26.0207 60.4912L50.9189 46.1199L50.9748 46.1534L75.8731 60.5247V89.3343L75.8172 89.3678L50.9189 103.739ZM26.1883 89.2113L50.9189 103.493L75.6496 89.2113V60.6476L50.9189 46.3658L26.1883 60.6476V89.2113Z" fill="url(#paint0_linear_1125_39617)"/>
<path d="M100.615 103.739L100.559 103.706L75.6608 89.3343V60.5247L75.7166 60.4912L100.615 46.1199L100.671 46.1534L125.569 60.5247V89.3343L125.513 89.3678L100.615 103.739ZM75.8843 89.2113L100.615 103.493L125.357 89.2113V60.6476L100.615 46.3658L75.8843 60.6476V89.2113Z" fill="url(#paint1_linear_1125_39617)"/>
<path d="M150.3 103.739L150.244 103.706L125.346 89.3343V60.5247L125.401 60.4912L150.3 46.1199L150.356 46.1534L175.254 60.5247V89.3343L175.198 89.3678L150.3 103.739ZM125.558 89.2113L150.3 103.493L175.03 89.2113V60.6476L150.3 46.3658L125.558 60.6476V89.2113Z" fill="url(#paint2_linear_1125_39617)"/>
<path d="M199.984 103.739L199.929 103.706L175.03 89.3343V60.5247L175.086 60.4912L199.984 46.1199L200.04 46.1534L224.939 60.5247V89.3343L224.883 89.3678L199.984 103.739ZM175.243 89.2113L199.984 103.493L224.715 89.2113V60.6476L199.984 46.3658L175.243 60.6476V89.2113Z" fill="url(#paint3_linear_1125_39617)"/>
<path d="M255.771 99.9619L249.669 103.482L224.939 89.2002V60.6476L249.669 46.3658L255.771 49.8859V49.6289L249.725 46.1423L249.669 46.1087L224.771 60.4912L224.726 60.5135V89.3343L249.625 103.706L249.669 103.739L255.771 100.219V99.9619Z" fill="url(#paint4_linear_1125_39617)"/>
<path d="M75.7613 146.763L75.7055 146.73L50.8072 132.359V103.549L50.8631 103.516L75.7613 89.1443L75.8172 89.1778L100.715 103.549V132.359L100.66 132.392L75.7613 146.763ZM51.0307 132.236L75.7613 146.518L100.503 132.236V103.672L75.7613 89.3901L51.0307 103.672V132.236Z" fill="url(#paint5_linear_1125_39617)"/>
<path d="M125.457 146.763L125.401 146.73L100.503 132.359V103.549L100.559 103.516L125.457 89.1443L125.513 89.1778L150.411 103.549V132.359L150.356 132.392L125.457 146.763ZM100.716 132.236L125.457 146.518L150.188 132.236V103.672L125.457 89.3901L100.716 103.672V132.236Z" fill="url(#paint6_linear_1125_39617)"/>
<path d="M175.142 146.763L175.086 146.73L150.188 132.359V103.549L150.244 103.516L175.142 89.1443L175.198 89.1778L200.096 103.549V132.359L200.04 132.392L175.142 146.763ZM150.411 132.236L175.142 146.518L199.884 132.236V103.672L175.142 89.3901L150.411 103.672V132.236Z" fill="url(#paint7_linear_1125_39617)"/>
<path d="M224.827 146.763L224.771 146.73L199.873 132.359V103.549L199.929 103.516L224.827 89.1443L224.883 89.1778L249.781 103.549V132.359L249.725 132.392L224.827 146.763ZM200.096 132.236L224.827 146.518L249.558 132.236V103.672L224.827 89.3901L200.096 103.672V132.236Z" fill="url(#paint8_linear_1125_39617)"/>
<path d="M255.771 135.7L249.781 132.236V103.672L255.771 100.219V99.9619L249.625 103.516L249.569 103.549V132.359L255.771 135.946V135.7Z" fill="url(#paint9_linear_1125_39617)"/>
<path d="M150.3 189.799L150.244 189.766L125.346 175.394V146.585L125.401 146.551L150.3 132.18L150.356 132.213L175.254 146.585V175.394L175.198 175.428L150.3 189.799ZM125.558 175.271L150.3 189.553L175.03 175.271V146.708L150.3 132.426L125.558 146.708V175.271Z" fill="url(#paint10_linear_1125_39617)"/>
<path d="M199.984 189.799L199.929 189.766L175.03 175.394V146.585L175.086 146.551L199.984 132.18L200.04 132.213L224.939 146.585V175.394L224.883 175.428L199.984 189.799ZM175.243 175.271L199.984 189.553L224.715 175.271V146.708L199.984 132.426L175.243 146.708V175.271Z" fill="url(#paint11_linear_1125_39617)"/>
<path d="M255.771 186.022L249.669 189.553L224.939 175.271V146.708L249.669 132.426L255.771 135.946V135.7L249.725 132.202L249.669 132.169L224.771 146.551L224.726 146.585V175.394L249.625 189.765L249.669 189.799L255.771 186.279V186.022Z" fill="url(#paint12_linear_1125_39617)"/>
<path d="M175.142 232.823L175.086 232.79L150.188 218.419V189.609L150.244 189.576L175.142 175.204L175.198 175.238L200.096 189.609V218.419L200.04 218.452L175.142 232.823ZM150.411 218.296L175.142 232.578L199.884 218.296V189.732L175.142 175.45L150.411 189.732V218.296Z" fill="url(#paint13_linear_1125_39617)"/>
<path d="M224.827 232.823L224.771 232.79L199.873 218.419V189.609L199.929 189.576L224.827 175.204L224.883 175.238L249.781 189.609V218.419L249.725 218.452L224.827 232.823ZM200.096 218.296L224.827 232.578L249.558 218.296V189.732L224.827 175.45L200.096 189.732V218.296Z" fill="url(#paint14_linear_1125_39617)"/>
<path d="M255.771 221.76L249.781 218.296V189.732L255.771 186.279V186.022L249.625 189.576L249.569 189.609V218.419L255.771 222.006V221.76Z" fill="url(#paint15_linear_1125_39617)"/>
<path d="M199.984 275.859L199.929 275.825L175.03 261.454V232.645L175.086 232.611L199.984 218.24L200.04 218.273L224.939 232.645V261.454L224.883 261.488L199.984 275.859ZM175.243 261.331L199.984 275.613L224.715 261.331V232.768L199.984 218.486L175.243 232.768V261.331Z" fill="url(#paint16_linear_1125_39617)"/>
<path d="M255.771 272.093L249.669 275.613L224.939 261.331V232.768L249.669 218.486L255.771 222.006V221.76L249.725 218.262L249.669 218.24L224.771 232.611L224.726 232.645V261.454L249.625 275.825L249.669 275.859L255.771 272.339V272.093Z" fill="url(#paint17_linear_1125_39617)"/>
<path d="M255.771 307.82L249.781 304.356V275.803L255.771 272.339V272.093L249.625 275.647L249.569 275.669V304.49L255.771 308.066V307.82Z" fill="url(#paint18_linear_1125_39617)"/>
<path d="M150.411 378V361.863L175.142 347.581L199.884 361.863V378H200.096V361.74L175.198 347.358L175.142 347.324L150.244 361.707L150.188 361.74V378H150.411Z" fill="url(#paint19_linear_1125_39617)"/>
<path d="M200.096 378V361.863L224.827 347.581L249.569 361.863V378H249.781V361.74L224.883 347.358L224.827 347.324L199.929 361.707L199.884 361.74V378H200.096Z" fill="url(#paint20_linear_1125_39617)"/>
<path d="M142.689 0V24.4401L110.874 42.8121L79.058 24.4401V0H77.9405V25.0882L110.874 44.1084L143.818 25.0882V0H142.689Z" fill="url(#paint21_linear_1125_39617)"/>
<path d="M207.45 0V24.4401L175.634 42.8121L143.818 24.4401V0H142.689V25.0882L175.634 44.1084L208.578 25.0882V0H207.45Z" fill="url(#paint22_linear_1125_39617)"/>
<path d="M208.578 24.4401V0H207.45V25.0882L240.394 44.1084L255.771 35.2241V33.9278L240.394 42.8121L208.578 24.4401Z" fill="url(#paint23_linear_1125_39617)"/>
<path d="M143.259 100.185L110.315 81.1652V43.125L143.259 24.1048L176.204 43.125V81.1652L143.259 100.185ZM111.444 80.5171L143.259 98.889L175.075 80.5171V43.7731L143.259 25.4011L111.444 43.7731V80.5171Z" fill="url(#paint24_linear_1125_39617)"/>
<path d="M208.008 100.185L175.064 81.1652V43.125L208.008 24.1048L240.953 43.125V81.1652L208.008 100.185ZM176.193 80.5171L208.008 98.889L239.824 80.5171V43.7731L208.008 25.4011L176.193 43.7731V80.5171Z" fill="url(#paint25_linear_1125_39617)"/>
<path d="M255.771 89.0772L240.953 80.5282V43.7843L255.771 35.2241V33.9278L239.824 43.1361V81.1764L255.771 90.3736V89.0772Z" fill="url(#paint26_linear_1125_39617)"/>
<path d="M175.634 156.274L142.689 137.253V99.2131L175.634 80.193L208.578 99.2131V137.253L175.634 156.274ZM143.818 136.605L175.634 154.977L207.45 136.605V99.8613L175.634 81.4893L143.818 99.8613V136.605Z" fill="url(#paint27_linear_1125_39617)"/>
<path d="M255.771 146.093L240.394 154.977L208.578 136.605V99.8613L240.394 81.5005L255.771 90.3736V89.0772L240.394 80.2042L207.45 99.2131V137.253L240.394 156.274L255.771 147.389V146.093Z" fill="url(#paint28_linear_1125_39617)"/>
<path d="M255.771 201.242L240.953 192.682V155.949L255.771 147.389V146.093L239.824 155.301V193.33L255.771 202.539V201.242Z" fill="url(#paint29_linear_1125_39617)"/>
<path d="M208.008 324.516L175.064 305.496V267.455L208.008 248.435L240.953 267.455V305.496L208.008 324.516ZM176.193 304.847L208.008 323.219L239.824 304.847V268.103L208.008 249.731L176.193 268.103V304.847Z" fill="url(#paint30_linear_1125_39617)"/>
<path d="M173.388 378L143.818 360.924V324.192L175.634 305.82L207.45 324.192V360.924L177.88 378H180.126L208.578 361.584V323.543L175.634 304.523L142.689 323.543V361.584L171.141 378H173.388Z" fill="url(#paint31_linear_1125_39617)"/>
<path d="M240.394 305.82L255.771 314.704V313.408L240.394 304.523L207.45 323.543V361.584L235.89 378H238.137L208.578 360.924V324.192L240.394 305.82Z" fill="url(#paint32_linear_1125_39617)"/>
<path d="M255.771 370.412L242.64 378H244.886L255.771 371.72V370.412Z" fill="url(#paint33_linear_1125_39617)"/>
<path d="M115.377 378L143.259 361.908L171.141 378H173.388L143.259 360.6L113.12 378H115.377Z" fill="url(#paint34_linear_1125_39617)"/>
<path d="M180.126 378L208.008 361.908L235.89 378H238.137L208.008 360.6L177.88 378H180.126Z" fill="url(#paint35_linear_1125_39617)"/>
<path d="M255.771 370.412L242.64 378H244.886L255.771 371.72V370.412Z" fill="url(#paint36_linear_1125_39617)"/>
<path d="M1.23416 46.5334C1.40179 46.5334 1.53589 46.3993 1.53589 46.2317C1.53589 46.064 1.40179 45.9299 1.23416 45.9299C1.06654 45.9299 0.932434 46.064 0.932434 46.2317C0.932434 46.3993 1.06654 46.5334 1.23416 46.5334Z" fill="url(#paint37_linear_1125_39617)"/>
<path d="M26.0765 57.1498C24.1879 57.1498 22.6458 58.6808 22.6458 60.5806C22.6458 62.4804 24.1767 64.0114 26.0765 64.0114C27.9763 64.0114 29.5073 62.4804 29.5073 60.5806C29.5073 58.6808 27.9763 57.1498 26.0765 57.1498Z" fill="url(#paint38_linear_1125_39617)"/>
<path d="M26.0765 91.4129C27.2611 91.4129 28.2222 90.4518 28.2222 89.2672C28.2222 88.0827 27.2611 87.1216 26.0765 87.1216C24.892 87.1216 23.9309 88.0827 23.9309 89.2672C23.9309 90.4518 24.892 91.4129 26.0765 91.4129Z" fill="url(#paint39_linear_1125_39617)"/>
<path d="M50.919 105.538C51.9806 105.538 52.8523 104.678 52.8523 103.605C52.8523 102.532 51.9918 101.672 50.919 101.672C49.8461 101.672 48.9857 102.532 48.9857 103.605C48.9857 104.678 49.8461 105.538 50.919 105.538Z" fill="url(#paint40_linear_1125_39617)"/>
<path d="M50.919 47.2262C51.4683 47.2262 51.9136 46.7809 51.9136 46.2316C51.9136 45.6824 51.4683 45.2371 50.919 45.2371C50.3697 45.2371 49.9244 45.6824 49.9244 46.2316C49.9244 46.7809 50.3697 47.2262 50.919 47.2262Z" fill="url(#paint41_linear_1125_39617)"/>
<path d="M75.7613 62.5474C76.8453 62.5474 77.7282 61.6646 77.7282 60.5806C77.7282 59.4966 76.8453 58.6137 75.7613 58.6137C74.6773 58.6137 73.7945 59.4966 73.7945 60.5806C73.7945 61.6646 74.6773 62.5474 75.7613 62.5474Z" fill="url(#paint42_linear_1125_39617)"/>
<path d="M75.7614 85.8141C73.8504 85.8141 72.3082 87.3563 72.3082 89.2672C72.3082 91.1782 73.8504 92.7204 75.7614 92.7204C77.6723 92.7204 79.2145 91.1782 79.2145 89.2672C79.2145 87.3563 77.6723 85.8141 75.7614 85.8141Z" fill="url(#paint43_linear_1125_39617)"/>
<path d="M100.615 47.6956C101.42 47.6956 102.068 47.0475 102.068 46.2428C102.068 45.4382 101.42 44.7901 100.615 44.7901C99.8103 44.7901 99.1621 45.4382 99.1621 46.2428C99.1621 47.0475 99.8103 47.6956 100.615 47.6956Z" fill="url(#paint44_linear_1125_39617)"/>
<path d="M125.457 63.2626C126.932 63.2626 128.139 62.0669 128.139 60.5806C128.139 59.0943 126.944 57.8985 125.457 57.8985C123.971 57.8985 122.775 59.0943 122.775 60.5806C122.775 62.0669 123.971 63.2626 125.457 63.2626Z" fill="url(#paint45_linear_1125_39617)"/>
<path d="M125.457 92.4633C127.222 92.4633 128.653 91.0324 128.653 89.2672C128.653 87.5021 127.222 86.0711 125.457 86.0711C123.692 86.0711 122.261 87.5021 122.261 89.2672C122.261 91.0324 123.692 92.4633 125.457 92.4633Z" fill="url(#paint46_linear_1125_39617)"/>
<path d="M150.3 47.9079C151.227 47.9079 151.976 47.1592 151.976 46.2317C151.976 45.3041 151.227 44.5554 150.3 44.5554C149.372 44.5554 148.623 45.3041 148.623 46.2317C148.623 47.1592 149.372 47.9079 150.3 47.9079Z" fill="url(#paint47_linear_1125_39617)"/>
<path d="M175.142 62.5027C176.204 62.5027 177.064 61.6422 177.064 60.5806C177.064 59.5189 176.204 58.6584 175.142 58.6584C174.08 58.6584 173.22 59.5189 173.22 60.5806C173.22 61.6422 174.08 62.5027 175.142 62.5027Z" fill="url(#paint48_linear_1125_39617)"/>
<path d="M175.142 90.6418C175.901 90.6418 176.517 90.0264 176.517 89.2672C176.517 88.5081 175.901 87.8927 175.142 87.8927C174.383 87.8927 173.768 88.5081 173.768 89.2672C173.768 90.0264 174.383 90.6418 175.142 90.6418Z" fill="url(#paint49_linear_1125_39617)"/>
<path d="M199.984 47.528C200.7 47.528 201.281 46.9469 201.281 46.2317C201.281 45.5164 200.7 44.9353 199.984 44.9353C199.269 44.9353 198.688 45.5164 198.688 46.2317C198.688 46.9469 199.269 47.528 199.984 47.528Z" fill="url(#paint50_linear_1125_39617)"/>
<path d="M224.827 62.6145C225.956 62.6145 226.861 61.6981 226.861 60.5806C226.861 59.4631 225.944 58.5467 224.827 58.5467C223.709 58.5467 222.793 59.4631 222.793 60.5806C222.793 61.6981 223.709 62.6145 224.827 62.6145Z" fill="url(#paint51_linear_1125_39617)"/>
<path d="M224.827 91.5805C226.104 91.5805 227.14 90.5448 227.14 89.2672C227.14 87.9896 226.104 86.954 224.827 86.954C223.549 86.954 222.514 87.9896 222.514 89.2672C222.514 90.5448 223.549 91.5805 224.827 91.5805Z" fill="url(#paint52_linear_1125_39617)"/>
<path d="M249.669 48.1761C250.742 48.1761 251.614 47.3045 251.614 46.2316C251.614 45.1588 250.742 44.2872 249.669 44.2872C248.596 44.2872 247.725 45.1588 247.725 46.2316C247.725 47.3045 248.596 48.1761 249.669 48.1761Z" fill="url(#paint53_linear_1125_39617)"/>
<path d="M50.919 134.884C52.3494 134.884 53.5116 133.722 53.5116 132.292C53.5116 130.861 52.3494 129.699 50.919 129.699C49.4885 129.699 48.3263 130.861 48.3263 132.292C48.3263 133.722 49.4885 134.884 50.919 134.884Z" fill="url(#paint54_linear_1125_39617)"/>
<path d="M100.615 102.286C99.8885 102.286 99.2851 102.879 99.2851 103.616C99.2851 104.354 99.8773 104.946 100.615 104.946C101.352 104.946 101.945 104.354 101.945 103.616C101.945 102.879 101.352 102.286 100.615 102.286Z" fill="url(#paint55_linear_1125_39617)"/>
<path d="M100.615 134.761C101.967 134.761 103.073 133.666 103.073 132.303C103.073 130.939 101.978 129.844 100.615 129.844C99.2515 129.844 98.1564 130.939 98.1564 132.303C98.1564 133.666 99.2515 134.761 100.615 134.761Z" fill="url(#paint56_linear_1125_39617)"/>
<path d="M125.457 148.194C126.315 148.194 127.011 147.498 127.011 146.641C127.011 145.783 126.315 145.087 125.457 145.087C124.599 145.087 123.904 145.783 123.904 146.641C123.904 147.498 124.599 148.194 125.457 148.194Z" fill="url(#paint57_linear_1125_39617)"/>
<path d="M150.3 99.9842C148.299 99.9842 146.668 101.605 146.668 103.616C146.668 105.628 148.288 107.248 150.3 107.248C152.311 107.248 153.932 105.628 153.932 103.616C153.932 101.605 152.311 99.9842 150.3 99.9842Z" fill="url(#paint58_linear_1125_39617)"/>
<path d="M199.984 106.309C201.471 106.309 202.678 105.102 202.678 103.616C202.678 102.13 201.471 100.923 199.984 100.923C198.498 100.923 197.291 102.13 197.291 103.616C197.291 105.102 198.498 106.309 199.984 106.309Z" fill="url(#paint59_linear_1125_39617)"/>
<path d="M224.827 149.323C226.313 149.323 227.509 148.116 227.509 146.641C227.509 145.165 226.302 143.958 224.827 143.958C223.352 143.958 222.145 145.165 222.145 146.641C222.145 148.116 223.352 149.323 224.827 149.323Z" fill="url(#paint60_linear_1125_39617)"/>
<path d="M199.984 135.465C201.728 135.465 203.147 134.046 203.147 132.303C203.147 130.559 201.728 129.14 199.984 129.14C198.241 129.14 196.822 130.559 196.822 132.303C196.822 134.046 198.241 135.465 199.984 135.465Z" fill="url(#paint61_linear_1125_39617)"/>
<path d="M249.669 106.488C251.256 106.488 252.552 105.203 252.552 103.605C252.552 102.007 251.267 100.722 249.669 100.722C248.071 100.722 246.786 102.007 246.786 103.605C246.786 105.203 248.071 106.488 249.669 106.488Z" fill="url(#paint62_linear_1125_39617)"/>
<path d="M77.8287 146.641C77.8287 145.501 76.9012 144.573 75.7613 144.573C74.6215 144.573 73.6939 145.501 73.6939 146.641C73.6939 147.78 74.6215 148.708 75.7613 148.708C76.9012 148.708 77.8287 147.78 77.8287 146.641Z" fill="url(#paint63_linear_1125_39617)"/>
<path d="M150.3 133.968C151.219 133.968 151.965 133.222 151.965 132.303C151.965 131.383 151.219 130.638 150.3 130.638C149.38 130.638 148.635 131.383 148.635 132.303C148.635 133.222 149.38 133.968 150.3 133.968Z" fill="url(#paint64_linear_1125_39617)"/>
<path d="M175.142 148.429C176.126 148.429 176.93 147.635 176.93 146.641C176.93 145.646 176.137 144.852 175.142 144.852C174.148 144.852 173.354 145.646 173.354 146.641C173.354 147.635 174.148 148.429 175.142 148.429Z" fill="url(#paint65_linear_1125_39617)"/>
<path d="M249.669 191.442C250.644 191.442 251.435 190.651 251.435 189.676C251.435 188.701 250.644 187.91 249.669 187.91C248.694 187.91 247.904 188.701 247.904 189.676C247.904 190.651 248.694 191.442 249.669 191.442Z" fill="url(#paint66_linear_1125_39617)"/>
<path d="M224.827 173.025C223.553 173.025 222.525 174.053 222.525 175.327C222.525 176.601 223.553 177.629 224.827 177.629C226.101 177.629 227.129 176.601 227.129 175.327C227.129 174.053 226.101 173.025 224.827 173.025Z" fill="url(#paint67_linear_1125_39617)"/>
<path d="M249.669 134.504C250.885 134.504 251.871 133.519 251.871 132.303C251.871 131.087 250.885 130.101 249.669 130.101C248.453 130.101 247.468 131.087 247.468 132.303C247.468 133.519 248.453 134.504 249.669 134.504Z" fill="url(#paint68_linear_1125_39617)"/>
<path d="M125.457 172.679C123.993 172.679 122.798 173.863 122.798 175.338C122.798 176.813 123.982 177.998 125.457 177.998C126.932 177.998 128.117 176.813 128.117 175.338C128.117 173.863 126.932 172.679 125.457 172.679Z" fill="url(#paint69_linear_1125_39617)"/>
<path d="M147.539 189.676C147.539 191.196 148.769 192.436 150.3 192.436C151.831 192.436 153.06 191.207 153.06 189.676C153.06 188.145 151.831 186.916 150.3 186.916C148.769 186.916 147.539 188.145 147.539 189.676Z" fill="url(#paint70_linear_1125_39617)"/>
<path d="M175.142 234.366C176.062 234.366 176.807 233.62 176.807 232.7C176.807 231.781 176.062 231.035 175.142 231.035C174.222 231.035 173.477 231.781 173.477 232.7C173.477 233.62 174.222 234.366 175.142 234.366Z" fill="url(#paint71_linear_1125_39617)"/>
<path d="M150.3 220.531C151.497 220.531 152.468 219.56 152.468 218.363C152.468 217.165 151.497 216.195 150.3 216.195C149.102 216.195 148.132 217.165 148.132 218.363C148.132 219.56 149.102 220.531 150.3 220.531Z" fill="url(#paint72_linear_1125_39617)"/>
<path d="M175.142 177.64C176.42 177.64 177.455 176.605 177.455 175.327C177.455 174.05 176.42 173.014 175.142 173.014C173.865 173.014 172.829 174.05 172.829 175.327C172.829 176.605 173.865 177.64 175.142 177.64Z" fill="url(#paint73_linear_1125_39617)"/>
<path d="M199.984 221.648C201.799 221.648 203.27 220.177 203.27 218.363C203.27 216.548 201.799 215.077 199.984 215.077C198.17 215.077 196.699 216.548 196.699 218.363C196.699 220.177 198.17 221.648 199.984 221.648Z" fill="url(#paint74_linear_1125_39617)"/>
<path d="M224.827 234.567C225.855 234.567 226.682 233.74 226.682 232.712C226.682 231.684 225.855 230.857 224.827 230.857C223.799 230.857 222.972 231.684 222.972 232.712C222.972 233.74 223.799 234.567 224.827 234.567Z" fill="url(#paint75_linear_1125_39617)"/>
<path d="M199.985 192.928C201.784 192.928 203.236 191.475 203.236 189.676C203.236 187.877 201.784 186.424 199.985 186.424C198.185 186.424 196.733 187.877 196.733 189.676C196.733 191.475 198.185 192.928 199.985 192.928Z" fill="url(#paint76_linear_1125_39617)"/>
<path d="M249.669 219.838C250.484 219.838 251.144 219.177 251.144 218.363C251.144 217.548 250.484 216.888 249.669 216.888C248.855 216.888 248.194 217.548 248.194 218.363C248.194 219.177 248.855 219.838 249.669 219.838Z" fill="url(#paint77_linear_1125_39617)"/>
<path d="M175.142 317.229C174.293 317.229 173.611 317.911 173.611 318.76C173.611 319.61 174.293 320.291 175.142 320.291C175.991 320.291 176.673 319.61 176.673 318.76C176.673 317.911 175.991 317.229 175.142 317.229Z" fill="url(#paint78_linear_1125_39617)"/>
<path d="M175.142 263.175C176.126 263.175 176.93 262.371 176.93 261.387C176.93 260.404 176.126 259.599 175.142 259.599C174.159 259.599 173.354 260.404 173.354 261.387C173.354 262.371 174.159 263.175 175.142 263.175Z" fill="url(#paint79_linear_1125_39617)"/>
<path d="M199.985 272.238C198.051 272.238 196.487 273.803 196.487 275.736C196.487 277.669 198.051 279.234 199.985 279.234C201.918 279.234 203.482 277.669 203.482 275.736C203.482 273.803 201.918 272.238 199.985 272.238Z" fill="url(#paint80_linear_1125_39617)"/>
<path d="M224.827 263.287C225.877 263.287 226.727 262.438 226.727 261.387C226.727 260.337 225.877 259.487 224.827 259.487C223.776 259.487 222.927 260.337 222.927 261.387C222.927 262.438 223.776 263.287 224.827 263.287Z" fill="url(#paint81_linear_1125_39617)"/>
<path d="M249.669 278.586C251.245 278.586 252.519 277.312 252.519 275.736C252.519 274.16 251.245 272.886 249.669 272.886C248.094 272.886 246.82 274.16 246.82 275.736C246.82 277.312 248.094 278.586 249.669 278.586Z" fill="url(#paint82_linear_1125_39617)"/>
<path d="M249.669 300.623C247.568 300.623 245.87 302.322 245.87 304.423C245.87 306.524 247.568 308.222 249.669 308.222C251.77 308.222 253.469 306.524 253.469 304.423C253.469 302.322 251.77 300.623 249.669 300.623Z" fill="url(#paint83_linear_1125_39617)"/>
<path d="M177.21 347.458C177.21 346.318 176.282 345.402 175.142 345.402C174.002 345.402 173.086 346.33 173.086 347.458C173.086 348.587 174.013 349.526 175.142 349.526C176.271 349.526 177.21 348.598 177.21 347.458Z" fill="url(#paint84_linear_1125_39617)"/>
<path d="M224.827 321.454C226.313 321.454 227.509 320.247 227.509 318.772C227.509 317.296 226.302 316.09 224.827 316.09C223.352 316.09 222.145 317.296 222.145 318.772C222.145 320.247 223.352 321.454 224.827 321.454Z" fill="url(#paint85_linear_1125_39617)"/>
<path d="M224.827 344.776C223.341 344.776 222.145 345.972 222.145 347.458C222.145 348.945 223.341 350.14 224.827 350.14C226.313 350.14 227.509 348.945 227.509 347.458C227.509 345.972 226.313 344.776 224.827 344.776Z" fill="url(#paint86_linear_1125_39617)"/>
<path d="M150.3 363.93C151.473 363.93 152.434 362.969 152.434 361.796C152.434 360.623 151.473 359.662 150.3 359.662C149.126 359.662 148.165 360.623 148.165 361.796C148.165 362.969 149.115 363.93 150.3 363.93Z" fill="url(#paint87_linear_1125_39617)"/>
<path d="M199.984 364.154C201.292 364.154 202.342 363.092 202.342 361.796C202.342 360.5 201.281 359.438 199.984 359.438C198.688 359.438 197.627 360.5 197.627 361.796C197.627 363.092 198.688 364.154 199.984 364.154Z" fill="url(#paint88_linear_1125_39617)"/>
</g>
</g>
<defs>
<linearGradient id="paint0_linear_1125_39617" x1="284.547" y1="435.642" x2="30.8147" y2="43.8849" gradientUnits="userSpaceOnUse">
<stop stop-color="#52BBE8"/>
<stop offset="0.2" stop-color="#68C3EA"/>
<stop offset="0.6" stop-color="#A2D8F1"/>
<stop offset="1" stop-color="#E1EFF8"/>
</linearGradient>
<linearGradient id="paint1_linear_1125_39617" x1="319.548" y1="412.967" x2="65.8266" y2="21.2105" gradientUnits="userSpaceOnUse">
<stop stop-color="#52BBE8"/>
<stop offset="0.2" stop-color="#68C3EA"/>
<stop offset="0.6" stop-color="#A2D8F1"/>
<stop offset="1" stop-color="#E1EFF8"/>
</linearGradient>
<linearGradient id="paint2_linear_1125_39617" x1="354.548" y1="390.293" x2="100.827" y2="-1.46397" gradientUnits="userSpaceOnUse">
<stop stop-color="#52BBE8"/>
<stop offset="0.2" stop-color="#68C3EA"/>
<stop offset="0.6" stop-color="#A2D8F1"/>
<stop offset="1" stop-color="#E1EFF8"/>
</linearGradient>
<linearGradient id="paint3_linear_1125_39617" x1="389.56" y1="367.618" x2="135.828" y2="-24.1272" gradientUnits="userSpaceOnUse">
<stop stop-color="#52BBE8"/>
<stop offset="0.2" stop-color="#68C3EA"/>
<stop offset="0.6" stop-color="#A2D8F1"/>
<stop offset="1" stop-color="#E1EFF8"/>
</linearGradient>
<linearGradient id="paint4_linear_1125_39617" x1="420.403" y1="347.648" x2="166.682" y2="-44.1084" gradientUnits="userSpaceOnUse">
<stop stop-color="#52BBE8"/>
<stop offset="0.2" stop-color="#68C3EA"/>
<stop offset="0.6" stop-color="#A2D8F1"/>
<stop offset="1" stop-color="#E1EFF8"/>
</linearGradient>
<linearGradient id="paint5_linear_1125_39617" x1="282.412" y1="437.016" x2="28.6915" y2="45.2594" gradientUnits="userSpaceOnUse">
<stop stop-color="#52BBE8"/>
<stop offset="0.2" stop-color="#68C3EA"/>
<stop offset="0.6" stop-color="#A2D8F1"/>
<stop offset="1" stop-color="#E1EFF8"/>
</linearGradient>
<linearGradient id="paint6_linear_1125_39617" x1="317.413" y1="414.342" x2="63.6921" y2="22.5962" gradientUnits="userSpaceOnUse">
<stop stop-color="#52BBE8"/>
<stop offset="0.2" stop-color="#68C3EA"/>
<stop offset="0.6" stop-color="#A2D8F1"/>
<stop offset="1" stop-color="#E1EFF8"/>
</linearGradient>
<linearGradient id="paint7_linear_1125_39617" x1="352.425" y1="391.678" x2="98.6928" y2="-0.0782452" gradientUnits="userSpaceOnUse">
<stop stop-color="#52BBE8"/>
<stop offset="0.2" stop-color="#68C3EA"/>
<stop offset="0.6" stop-color="#A2D8F1"/>
<stop offset="1" stop-color="#E1EFF8"/>
</linearGradient>
<linearGradient id="paint8_linear_1125_39617" x1="387.426" y1="369.004" x2="133.704" y2="-22.7526" gradientUnits="userSpaceOnUse">
<stop stop-color="#52BBE8"/>
<stop offset="0.2" stop-color="#68C3EA"/>
<stop offset="0.6" stop-color="#A2D8F1"/>
<stop offset="1" stop-color="#E1EFF8"/>
</linearGradient>
<linearGradient id="paint9_linear_1125_39617" x1="407.853" y1="355.773" x2="154.132" y2="-35.9835" gradientUnits="userSpaceOnUse">
<stop stop-color="#52BBE8"/>
<stop offset="0.2" stop-color="#68C3EA"/>
<stop offset="0.6" stop-color="#A2D8F1"/>
<stop offset="1" stop-color="#E1EFF8"/>
</linearGradient>
<linearGradient id="paint10_linear_1125_39617" x1="315.29" y1="415.727" x2="61.5577" y2="23.9707" gradientUnits="userSpaceOnUse">
<stop stop-color="#52BBE8"/>
<stop offset="0.2" stop-color="#68C3EA"/>
<stop offset="0.6" stop-color="#A2D8F1"/>
<stop offset="1" stop-color="#E1EFF8"/>
</linearGradient>
<linearGradient id="paint11_linear_1125_39617" x1="350.29" y1="393.053" x2="96.5583" y2="1.29632" gradientUnits="userSpaceOnUse">
<stop stop-color="#52BBE8"/>
<stop offset="0.2" stop-color="#68C3EA"/>
<stop offset="0.6" stop-color="#A2D8F1"/>
<stop offset="1" stop-color="#E1EFF8"/>
</linearGradient>
<linearGradient id="paint12_linear_1125_39617" x1="381.134" y1="373.072" x2="127.413" y2="-18.6737" gradientUnits="userSpaceOnUse">
<stop stop-color="#52BBE8"/>
<stop offset="0.2" stop-color="#68C3EA"/>
<stop offset="0.6" stop-color="#A2D8F1"/>
<stop offset="1" stop-color="#E1EFF8"/>
</linearGradient>
<linearGradient id="paint13_linear_1125_39617" x1="313.155" y1="417.102" x2="59.4233" y2="25.3564" gradientUnits="userSpaceOnUse">
<stop stop-color="#52BBE8"/>
<stop offset="0.2" stop-color="#68C3EA"/>
<stop offset="0.6" stop-color="#A2D8F1"/>
<stop offset="1" stop-color="#E1EFF8"/>
</linearGradient>
<linearGradient id="paint14_linear_1125_39617" x1="348.156" y1="394.439" x2="94.435" y2="2.68209" gradientUnits="userSpaceOnUse">
<stop stop-color="#52BBE8"/>
<stop offset="0.2" stop-color="#68C3EA"/>
<stop offset="0.6" stop-color="#A2D8F1"/>
<stop offset="1" stop-color="#E1EFF8"/>
</linearGradient>
<linearGradient id="paint15_linear_1125_39617" x1="368.584" y1="381.207" x2="114.863" y2="-10.5488" gradientUnits="userSpaceOnUse">
<stop stop-color="#52BBE8"/>
<stop offset="0.2" stop-color="#68C3EA"/>
<stop offset="0.6" stop-color="#A2D8F1"/>
<stop offset="1" stop-color="#E1EFF8"/>
</linearGradient>
<linearGradient id="paint16_linear_1125_39617" x1="311.021" y1="418.488" x2="57.2999" y2="26.731" gradientUnits="userSpaceOnUse">
<stop stop-color="#52BBE8"/>
<stop offset="0.2" stop-color="#68C3EA"/>
<stop offset="0.6" stop-color="#A2D8F1"/>
<stop offset="1" stop-color="#E1EFF8"/>
</linearGradient>
<linearGradient id="paint17_linear_1125_39617" x1="341.864" y1="398.506" x2="88.1433" y2="6.76098" gradientUnits="userSpaceOnUse">
<stop stop-color="#52BBE8"/>
<stop offset="0.2" stop-color="#68C3EA"/>
<stop offset="0.6" stop-color="#A2D8F1"/>
<stop offset="1" stop-color="#E1EFF8"/>
</linearGradient>
<linearGradient id="paint18_linear_1125_39617" x1="329.326" y1="406.631" x2="75.5931" y2="14.8858" gradientUnits="userSpaceOnUse">
<stop stop-color="#52BBE8"/>
<stop offset="0.2" stop-color="#68C3EA"/>
<stop offset="0.6" stop-color="#A2D8F1"/>
<stop offset="1" stop-color="#E1EFF8"/>
</linearGradient>
<linearGradient id="paint19_linear_1125_39617" x1="237.477" y1="466.116" x2="-16.2439" y2="74.3595" gradientUnits="userSpaceOnUse">
<stop stop-color="#52BBE8"/>
<stop offset="0.2" stop-color="#68C3EA"/>
<stop offset="0.6" stop-color="#A2D8F1"/>
<stop offset="1" stop-color="#E1EFF8"/>
</linearGradient>
<linearGradient id="paint20_linear_1125_39617" x1="272.489" y1="443.442" x2="18.7567" y2="51.6963" gradientUnits="userSpaceOnUse">
<stop stop-color="#52BBE8"/>
<stop offset="0.2" stop-color="#68C3EA"/>
<stop offset="0.6" stop-color="#A2D8F1"/>
<stop offset="1" stop-color="#E1EFF8"/>
</linearGradient>
<linearGradient id="paint21_linear_1125_39617" x1="355.241" y1="389.846" x2="101.52" y2="-1.91093" gradientUnits="userSpaceOnUse">
<stop stop-color="#52BBE8"/>
<stop offset="0.2" stop-color="#68C3EA"/>
<stop offset="0.6" stop-color="#A2D8F1"/>
<stop offset="1" stop-color="#E1EFF8"/>
</linearGradient>
<linearGradient id="paint22_linear_1125_39617" x1="400.869" y1="360.299" x2="147.137" y2="-31.4581" gradientUnits="userSpaceOnUse">
<stop stop-color="#52BBE8"/>
<stop offset="0.2" stop-color="#68C3EA"/>
<stop offset="0.6" stop-color="#A2D8F1"/>
<stop offset="1" stop-color="#E1EFF8"/>
</linearGradient>
<linearGradient id="paint23_linear_1125_39617" x1="432.562" y1="339.77" x2="178.83" y2="-51.9756" gradientUnits="userSpaceOnUse">
<stop stop-color="#52BBE8"/>
<stop offset="0.2" stop-color="#68C3EA"/>
<stop offset="0.6" stop-color="#A2D8F1"/>
<stop offset="1" stop-color="#E1EFF8"/>
</linearGradient>
<linearGradient id="paint24_linear_1125_39617" x1="355.42" y1="389.734" x2="101.688" y2="-2.02272" gradientUnits="userSpaceOnUse">
<stop stop-color="#52BBE8"/>
<stop offset="0.2" stop-color="#68C3EA"/>
<stop offset="0.6" stop-color="#A2D8F1"/>
<stop offset="1" stop-color="#E1EFF8"/>
</linearGradient>
<linearGradient id="paint25_linear_1125_39617" x1="401.037" y1="360.187" x2="147.316" y2="-31.5698" gradientUnits="userSpaceOnUse">
<stop stop-color="#52BBE8"/>
<stop offset="0.2" stop-color="#68C3EA"/>
<stop offset="0.6" stop-color="#A2D8F1"/>
<stop offset="1" stop-color="#E1EFF8"/>
</linearGradient>
<linearGradient id="paint26_linear_1125_39617" x1="431.165" y1="340.675" x2="177.444" y2="-51.0815" gradientUnits="userSpaceOnUse">
<stop stop-color="#52BBE8"/>
<stop offset="0.2" stop-color="#68C3EA"/>
<stop offset="0.6" stop-color="#A2D8F1"/>
<stop offset="1" stop-color="#E1EFF8"/>
</linearGradient>
<linearGradient id="paint27_linear_1125_39617" x1="352.637" y1="391.533" x2="98.9164" y2="-0.223519" gradientUnits="userSpaceOnUse">
<stop stop-color="#52BBE8"/>
<stop offset="0.2" stop-color="#68C3EA"/>
<stop offset="0.6" stop-color="#A2D8F1"/>
<stop offset="1" stop-color="#E1EFF8"/>
</linearGradient>
<linearGradient id="paint28_linear_1125_39617" x1="394.388" y1="364.489" x2="140.667" y2="-27.2562" gradientUnits="userSpaceOnUse">
<stop stop-color="#52BBE8"/>
<stop offset="0.2" stop-color="#68C3EA"/>
<stop offset="0.6" stop-color="#A2D8F1"/>
<stop offset="1" stop-color="#E1EFF8"/>
</linearGradient>
<linearGradient id="paint29_linear_1125_39617" x1="379.994" y1="373.821" x2="126.262" y2="-17.936" gradientUnits="userSpaceOnUse">
<stop stop-color="#52BBE8"/>
<stop offset="0.2" stop-color="#68C3EA"/>
<stop offset="0.6" stop-color="#A2D8F1"/>
<stop offset="1" stop-color="#E1EFF8"/>
</linearGradient>
<linearGradient id="paint30_linear_1125_39617" x1="298.684" y1="426.478" x2="44.9625" y2="34.7213" gradientUnits="userSpaceOnUse">
<stop stop-color="#52BBE8"/>
<stop offset="0.2" stop-color="#68C3EA"/>
<stop offset="0.6" stop-color="#A2D8F1"/>
<stop offset="1" stop-color="#E1EFF8"/>
</linearGradient>
<linearGradient id="paint31_linear_1125_39617" x1="250.284" y1="457.824" x2="-3.43709" y2="66.0676" gradientUnits="userSpaceOnUse">
<stop stop-color="#52BBE8"/>
<stop offset="0.2" stop-color="#68C3EA"/>
<stop offset="0.6" stop-color="#A2D8F1"/>
<stop offset="1" stop-color="#E1EFF8"/>
</linearGradient>
<linearGradient id="paint32_linear_1125_39617" x1="292.034" y1="430.78" x2="38.3133" y2="39.0349" gradientUnits="userSpaceOnUse">
<stop stop-color="#52BBE8"/>
<stop offset="0.2" stop-color="#68C3EA"/>
<stop offset="0.6" stop-color="#A2D8F1"/>
<stop offset="1" stop-color="#E1EFF8"/>
</linearGradient>
<linearGradient id="paint33_linear_1125_39617" x1="287.676" y1="433.608" x2="33.9434" y2="41.8509" gradientUnits="userSpaceOnUse">
<stop stop-color="#52BBE8"/>
<stop offset="0.2" stop-color="#68C3EA"/>
<stop offset="0.6" stop-color="#A2D8F1"/>
<stop offset="1" stop-color="#E1EFF8"/>
</linearGradient>
<linearGradient id="paint34_linear_1125_39617" x1="211.305" y1="483.069" x2="-42.4162" y2="91.3122" gradientUnits="userSpaceOnUse">
<stop stop-color="#52BBE8"/>
<stop offset="0.2" stop-color="#68C3EA"/>
<stop offset="0.6" stop-color="#A2D8F1"/>
<stop offset="1" stop-color="#E1EFF8"/>
</linearGradient>
<linearGradient id="paint35_linear_1125_39617" x1="256.922" y1="453.522" x2="3.2008" y2="61.7651" gradientUnits="userSpaceOnUse">
<stop stop-color="#52BBE8"/>
<stop offset="0.2" stop-color="#68C3EA"/>
<stop offset="0.6" stop-color="#A2D8F1"/>
<stop offset="1" stop-color="#E1EFF8"/>
</linearGradient>
<linearGradient id="paint36_linear_1125_39617" x1="287.676" y1="433.608" x2="33.9434" y2="41.8509" gradientUnits="userSpaceOnUse">
<stop stop-color="#52BBE8"/>
<stop offset="0.2" stop-color="#68C3EA"/>
<stop offset="0.6" stop-color="#A2D8F1"/>
<stop offset="1" stop-color="#E1EFF8"/>
</linearGradient>
<linearGradient id="paint37_linear_1125_39617" x1="262.632" y1="449.835" x2="8.89973" y2="58.0778" gradientUnits="userSpaceOnUse">
<stop stop-color="#52BBE8"/>
<stop offset="0.2" stop-color="#68C3EA"/>
<stop offset="0.6" stop-color="#A2D8F1"/>
<stop offset="1" stop-color="#E1EFF8"/>
</linearGradient>
<linearGradient id="paint38_linear_1125_39617" x1="273.584" y1="442.727" x2="19.8631" y2="50.9811" gradientUnits="userSpaceOnUse">
<stop stop-color="#52BBE8"/>
<stop offset="0.2" stop-color="#68C3EA"/>
<stop offset="0.6" stop-color="#A2D8F1"/>
<stop offset="1" stop-color="#E1EFF8"/>
</linearGradient>
<linearGradient id="paint39_linear_1125_39617" x1="260.498" y1="451.209" x2="6.77667" y2="59.4633" gradientUnits="userSpaceOnUse">
<stop stop-color="#52BBE8"/>
<stop offset="0.2" stop-color="#68C3EA"/>
<stop offset="0.6" stop-color="#A2D8F1"/>
<stop offset="1" stop-color="#E1EFF8"/>
</linearGradient>
<linearGradient id="paint40_linear_1125_39617" x1="271.461" y1="444.112" x2="17.7287" y2="52.3557" gradientUnits="userSpaceOnUse">
<stop stop-color="#52BBE8"/>
<stop offset="0.2" stop-color="#68C3EA"/>
<stop offset="0.6" stop-color="#A2D8F1"/>
<stop offset="1" stop-color="#E1EFF8"/>
</linearGradient>
<linearGradient id="paint41_linear_1125_39617" x1="297.633" y1="427.159" x2="43.9122" y2="35.4029" gradientUnits="userSpaceOnUse">
<stop stop-color="#52BBE8"/>
<stop offset="0.2" stop-color="#68C3EA"/>
<stop offset="0.6" stop-color="#A2D8F1"/>
<stop offset="1" stop-color="#E1EFF8"/>
</linearGradient>
<linearGradient id="paint42_linear_1125_39617" x1="308.596" y1="420.063" x2="54.8641" y2="28.3065" gradientUnits="userSpaceOnUse">
<stop stop-color="#52BBE8"/>
<stop offset="0.2" stop-color="#68C3EA"/>
<stop offset="0.6" stop-color="#A2D8F1"/>
<stop offset="1" stop-color="#E1EFF8"/>
</linearGradient>
<linearGradient id="paint43_linear_1125_39617" x1="295.499" y1="428.534" x2="41.7779" y2="36.7885" gradientUnits="userSpaceOnUse">
<stop stop-color="#52BBE8"/>
<stop offset="0.2" stop-color="#68C3EA"/>
<stop offset="0.6" stop-color="#A2D8F1"/>
<stop offset="1" stop-color="#E1EFF8"/>
</linearGradient>
<linearGradient id="paint44_linear_1125_39617" x1="332.634" y1="404.485" x2="78.9127" y2="12.7397" gradientUnits="userSpaceOnUse">
<stop stop-color="#52BBE8"/>
<stop offset="0.2" stop-color="#68C3EA"/>
<stop offset="0.6" stop-color="#A2D8F1"/>
<stop offset="1" stop-color="#E1EFF8"/>
</linearGradient>
<linearGradient id="paint45_linear_1125_39617" x1="343.597" y1="397.389" x2="89.8647" y2="5.63209" gradientUnits="userSpaceOnUse">
<stop stop-color="#52BBE8"/>
<stop offset="0.2" stop-color="#68C3EA"/>
<stop offset="0.6" stop-color="#A2D8F1"/>
<stop offset="1" stop-color="#E1EFF8"/>
</linearGradient>
<linearGradient id="paint46_linear_1125_39617" x1="330.51" y1="405.871" x2="76.7783" y2="14.1142" gradientUnits="userSpaceOnUse">
<stop stop-color="#52BBE8"/>
<stop offset="0.2" stop-color="#68C3EA"/>
<stop offset="0.6" stop-color="#A2D8F1"/>
<stop offset="1" stop-color="#E1EFF8"/>
</linearGradient>
<linearGradient id="paint47_linear_1125_39617" x1="367.645" y1="381.822" x2="113.913" y2="-9.9347" gradientUnits="userSpaceOnUse">
<stop stop-color="#52BBE8"/>
<stop offset="0.2" stop-color="#68C3EA"/>
<stop offset="0.6" stop-color="#A2D8F1"/>
<stop offset="1" stop-color="#E1EFF8"/>
</linearGradient>
<linearGradient id="paint48_linear_1125_39617" x1="378.597" y1="374.714" x2="124.877" y2="-17.0312" gradientUnits="userSpaceOnUse">
<stop stop-color="#52BBE8"/>
<stop offset="0.2" stop-color="#68C3EA"/>
<stop offset="0.6" stop-color="#A2D8F1"/>
<stop offset="1" stop-color="#E1EFF8"/>
</linearGradient>
<linearGradient id="paint49_linear_1125_39617" x1="365.51" y1="383.196" x2="111.789" y2="-8.55942" gradientUnits="userSpaceOnUse">
<stop stop-color="#52BBE8"/>
<stop offset="0.2" stop-color="#68C3EA"/>
<stop offset="0.6" stop-color="#A2D8F1"/>
<stop offset="1" stop-color="#E1EFF8"/>
</linearGradient>
<linearGradient id="paint50_linear_1125_39617" x1="402.645" y1="359.147" x2="148.924" y2="-32.6084" gradientUnits="userSpaceOnUse">
<stop stop-color="#52BBE8"/>
<stop offset="0.2" stop-color="#68C3EA"/>
<stop offset="0.6" stop-color="#A2D8F1"/>
<stop offset="1" stop-color="#E1EFF8"/>
</linearGradient>
<linearGradient id="paint51_linear_1125_39617" x1="413.609" y1="352.051" x2="159.877" y2="-39.7054" gradientUnits="userSpaceOnUse">
<stop stop-color="#52BBE8"/>
<stop offset="0.2" stop-color="#68C3EA"/>
<stop offset="0.6" stop-color="#A2D8F1"/>
<stop offset="1" stop-color="#E1EFF8"/>
</linearGradient>
<linearGradient id="paint52_linear_1125_39617" x1="400.512" y1="360.522" x2="146.791" y2="-31.2234" gradientUnits="userSpaceOnUse">
<stop stop-color="#52BBE8"/>
<stop offset="0.2" stop-color="#68C3EA"/>
<stop offset="0.6" stop-color="#A2D8F1"/>
<stop offset="1" stop-color="#E1EFF8"/>
</linearGradient>
<linearGradient id="paint53_linear_1125_39617" x1="437.659" y1="336.473" x2="183.927" y2="-55.2843" gradientUnits="userSpaceOnUse">
<stop stop-color="#52BBE8"/>
<stop offset="0.2" stop-color="#68C3EA"/>
<stop offset="0.6" stop-color="#A2D8F1"/>
<stop offset="1" stop-color="#E1EFF8"/>
</linearGradient>
<linearGradient id="paint54_linear_1125_39617" x1="258.364" y1="452.594" x2="4.6426" y2="60.8376" gradientUnits="userSpaceOnUse">
<stop stop-color="#52BBE8"/>
<stop offset="0.2" stop-color="#68C3EA"/>
<stop offset="0.6" stop-color="#A2D8F1"/>
<stop offset="1" stop-color="#E1EFF8"/>
</linearGradient>
<linearGradient id="paint55_linear_1125_39617" x1="306.461" y1="421.439" x2="52.7282" y2="29.693" gradientUnits="userSpaceOnUse">
<stop stop-color="#52BBE8"/>
<stop offset="0.2" stop-color="#68C3EA"/>
<stop offset="0.6" stop-color="#A2D8F1"/>
<stop offset="1" stop-color="#E1EFF8"/>
</linearGradient>
<linearGradient id="paint56_linear_1125_39617" x1="293.364" y1="429.919" x2="39.6438" y2="38.163" gradientUnits="userSpaceOnUse">
<stop stop-color="#52BBE8"/>
<stop offset="0.2" stop-color="#68C3EA"/>
<stop offset="0.6" stop-color="#A2D8F1"/>
<stop offset="1" stop-color="#E1EFF8"/>
</linearGradient>
<linearGradient id="paint57_linear_1125_39617" x1="304.327" y1="422.823" x2="50.6061" y2="31.067" gradientUnits="userSpaceOnUse">
<stop stop-color="#52BBE8"/>
<stop offset="0.2" stop-color="#68C3EA"/>
<stop offset="0.6" stop-color="#A2D8F1"/>
<stop offset="1" stop-color="#E1EFF8"/>
</linearGradient>
<linearGradient id="paint58_linear_1125_39617" x1="341.462" y1="398.775" x2="87.7411" y2="7.01803" gradientUnits="userSpaceOnUse">
<stop stop-color="#52BBE8"/>
<stop offset="0.2" stop-color="#68C3EA"/>
<stop offset="0.6" stop-color="#A2D8F1"/>
<stop offset="1" stop-color="#E1EFF8"/>
</linearGradient>
<linearGradient id="paint59_linear_1125_39617" x1="376.474" y1="376.1" x2="122.741" y2="-15.656" gradientUnits="userSpaceOnUse">
<stop stop-color="#52BBE8"/>
<stop offset="0.2" stop-color="#68C3EA"/>
<stop offset="0.6" stop-color="#A2D8F1"/>
<stop offset="1" stop-color="#E1EFF8"/>
</linearGradient>
<linearGradient id="paint60_linear_1125_39617" x1="374.34" y1="377.474" x2="120.608" y2="-14.271" gradientUnits="userSpaceOnUse">
<stop stop-color="#52BBE8"/>
<stop offset="0.2" stop-color="#68C3EA"/>
<stop offset="0.6" stop-color="#A2D8F1"/>
<stop offset="1" stop-color="#E1EFF8"/>
</linearGradient>
<linearGradient id="paint61_linear_1125_39617" x1="363.377" y1="384.582" x2="109.656" y2="-7.17456" gradientUnits="userSpaceOnUse">
<stop stop-color="#52BBE8"/>
<stop offset="0.2" stop-color="#68C3EA"/>
<stop offset="0.6" stop-color="#A2D8F1"/>
<stop offset="1" stop-color="#E1EFF8"/>
</linearGradient>
<linearGradient id="paint62_linear_1125_39617" x1="411.475" y1="353.426" x2="157.742" y2="-38.3197" gradientUnits="userSpaceOnUse">
<stop stop-color="#52BBE8"/>
<stop offset="0.2" stop-color="#68C3EA"/>
<stop offset="0.6" stop-color="#A2D8F1"/>
<stop offset="1" stop-color="#E1EFF8"/>
</linearGradient>
<linearGradient id="paint63_linear_1125_39617" x1="269.326" y1="445.499" x2="15.5928" y2="53.742" gradientUnits="userSpaceOnUse">
<stop stop-color="#52BBE8"/>
<stop offset="0.2" stop-color="#68C3EA"/>
<stop offset="0.6" stop-color="#A2D8F1"/>
<stop offset="1" stop-color="#E1EFF8"/>
</linearGradient>
<linearGradient id="paint64_linear_1125_39617" x1="328.376" y1="407.245" x2="74.6439" y2="15.5001" gradientUnits="userSpaceOnUse">
<stop stop-color="#52BBE8"/>
<stop offset="0.2" stop-color="#68C3EA"/>
<stop offset="0.6" stop-color="#A2D8F1"/>
<stop offset="1" stop-color="#E1EFF8"/>
</linearGradient>
<linearGradient id="paint65_linear_1125_39617" x1="339.328" y1="400.15" x2="85.6063" y2="8.4032" gradientUnits="userSpaceOnUse">
<stop stop-color="#52BBE8"/>
<stop offset="0.2" stop-color="#68C3EA"/>
<stop offset="0.6" stop-color="#A2D8F1"/>
<stop offset="1" stop-color="#E1EFF8"/>
</linearGradient>
<linearGradient id="paint66_linear_1125_39617" x1="372.205" y1="378.861" x2="118.484" y2="-12.8964" gradientUnits="userSpaceOnUse">
<stop stop-color="#52BBE8"/>
<stop offset="0.2" stop-color="#68C3EA"/>
<stop offset="0.6" stop-color="#A2D8F1"/>
<stop offset="1" stop-color="#E1EFF8"/>
</linearGradient>
<linearGradient id="paint67_linear_1125_39617" x1="361.242" y1="385.956" x2="107.522" y2="-5.78937" gradientUnits="userSpaceOnUse">
<stop stop-color="#52BBE8"/>
<stop offset="0.2" stop-color="#68C3EA"/>
<stop offset="0.6" stop-color="#A2D8F1"/>
<stop offset="1" stop-color="#E1EFF8"/>
</linearGradient>
<linearGradient id="paint68_linear_1125_39617" x1="398.389" y1="361.908" x2="144.656" y2="-29.849" gradientUnits="userSpaceOnUse">
<stop stop-color="#52BBE8"/>
<stop offset="0.2" stop-color="#68C3EA"/>
<stop offset="0.6" stop-color="#A2D8F1"/>
<stop offset="1" stop-color="#E1EFF8"/>
</linearGradient>
<linearGradient id="paint69_linear_1125_39617" x1="291.241" y1="431.305" x2="37.5088" y2="39.5491" gradientUnits="userSpaceOnUse">
<stop stop-color="#52BBE8"/>
<stop offset="0.2" stop-color="#68C3EA"/>
<stop offset="0.6" stop-color="#A2D8F1"/>
<stop offset="1" stop-color="#E1EFF8"/>
</linearGradient>
<linearGradient id="paint70_linear_1125_39617" x1="302.193" y1="424.209" x2="48.4715" y2="32.4526" gradientUnits="userSpaceOnUse">
<stop stop-color="#52BBE8"/>
<stop offset="0.2" stop-color="#68C3EA"/>
<stop offset="0.6" stop-color="#A2D8F1"/>
<stop offset="1" stop-color="#E1EFF8"/>
</linearGradient>
<linearGradient id="paint71_linear_1125_39617" x1="300.07" y1="425.584" x2="46.3385" y2="33.8263" gradientUnits="userSpaceOnUse">
<stop stop-color="#52BBE8"/>
<stop offset="0.2" stop-color="#68C3EA"/>
<stop offset="0.6" stop-color="#A2D8F1"/>
<stop offset="1" stop-color="#E1EFF8"/>
</linearGradient>
<linearGradient id="paint72_linear_1125_39617" x1="289.107" y1="432.679" x2="35.3756" y2="40.923" gradientUnits="userSpaceOnUse">
<stop stop-color="#52BBE8"/>
<stop offset="0.2" stop-color="#68C3EA"/>
<stop offset="0.6" stop-color="#A2D8F1"/>
<stop offset="1" stop-color="#E1EFF8"/>
</linearGradient>
<linearGradient id="paint73_linear_1125_39617" x1="326.242" y1="408.631" x2="72.5206" y2="16.8745" gradientUnits="userSpaceOnUse">
<stop stop-color="#52BBE8"/>
<stop offset="0.2" stop-color="#68C3EA"/>
<stop offset="0.6" stop-color="#A2D8F1"/>
<stop offset="1" stop-color="#E1EFF8"/>
</linearGradient>
<linearGradient id="paint74_linear_1125_39617" x1="324.107" y1="410.005" x2="70.3869" y2="18.26" gradientUnits="userSpaceOnUse">
<stop stop-color="#52BBE8"/>
<stop offset="0.2" stop-color="#68C3EA"/>
<stop offset="0.6" stop-color="#A2D8F1"/>
<stop offset="1" stop-color="#E1EFF8"/>
</linearGradient>
<linearGradient id="paint75_linear_1125_39617" x1="335.07" y1="402.909" x2="81.3492" y2="11.1645" gradientUnits="userSpaceOnUse">
<stop stop-color="#52BBE8"/>
<stop offset="0.2" stop-color="#68C3EA"/>
<stop offset="0.6" stop-color="#A2D8F1"/>
<stop offset="1" stop-color="#E1EFF8"/>
</linearGradient>
<linearGradient id="paint76_linear_1125_39617" x1="337.204" y1="401.535" x2="83.4724" y2="9.77851" gradientUnits="userSpaceOnUse">
<stop stop-color="#52BBE8"/>
<stop offset="0.2" stop-color="#68C3EA"/>
<stop offset="0.6" stop-color="#A2D8F1"/>
<stop offset="1" stop-color="#E1EFF8"/>
</linearGradient>
<linearGradient id="paint77_linear_1125_39617" x1="359.119" y1="387.342" x2="105.387" y2="-4.41413" gradientUnits="userSpaceOnUse">
<stop stop-color="#52BBE8"/>
<stop offset="0.2" stop-color="#68C3EA"/>
<stop offset="0.6" stop-color="#A2D8F1"/>
<stop offset="1" stop-color="#E1EFF8"/>
</linearGradient>
<linearGradient id="paint78_linear_1125_39617" x1="260.799" y1="451.018" x2="7.06821" y2="59.2629" gradientUnits="userSpaceOnUse">
<stop stop-color="#52BBE8"/>
<stop offset="0.2" stop-color="#68C3EA"/>
<stop offset="0.6" stop-color="#A2D8F1"/>
<stop offset="1" stop-color="#E1EFF8"/>
</linearGradient>
<linearGradient id="paint79_linear_1125_39617" x1="286.972" y1="434.054" x2="33.2522" y2="42.3083" gradientUnits="userSpaceOnUse">
<stop stop-color="#52BBE8"/>
<stop offset="0.2" stop-color="#68C3EA"/>
<stop offset="0.6" stop-color="#A2D8F1"/>
<stop offset="1" stop-color="#E1EFF8"/>
</linearGradient>
<linearGradient id="paint80_linear_1125_39617" x1="297.935" y1="426.969" x2="44.2028" y2="35.2132" gradientUnits="userSpaceOnUse">
<stop stop-color="#52BBE8"/>
<stop offset="0.2" stop-color="#68C3EA"/>
<stop offset="0.6" stop-color="#A2D8F1"/>
<stop offset="1" stop-color="#E1EFF8"/>
</linearGradient>
<linearGradient id="paint81_linear_1125_39617" x1="321.984" y1="411.392" x2="68.2512" y2="19.6341" gradientUnits="userSpaceOnUse">
<stop stop-color="#52BBE8"/>
<stop offset="0.2" stop-color="#68C3EA"/>
<stop offset="0.6" stop-color="#A2D8F1"/>
<stop offset="1" stop-color="#E1EFF8"/>
</linearGradient>
<linearGradient id="paint82_linear_1125_39617" x1="332.936" y1="404.295" x2="79.2153" y2="12.5383" gradientUnits="userSpaceOnUse">
<stop stop-color="#52BBE8"/>
<stop offset="0.2" stop-color="#68C3EA"/>
<stop offset="0.6" stop-color="#A2D8F1"/>
<stop offset="1" stop-color="#E1EFF8"/>
</linearGradient>
<linearGradient id="paint83_linear_1125_39617" x1="319.849" y1="412.766" x2="66.1179" y2="21.0205" gradientUnits="userSpaceOnUse">
<stop stop-color="#52BBE8"/>
<stop offset="0.2" stop-color="#68C3EA"/>
<stop offset="0.6" stop-color="#A2D8F1"/>
<stop offset="1" stop-color="#E1EFF8"/>
</linearGradient>
<linearGradient id="paint84_linear_1125_39617" x1="247.703" y1="459.489" x2="-6.01863" y2="67.7437" gradientUnits="userSpaceOnUse">
<stop stop-color="#52BBE8"/>
<stop offset="0.2" stop-color="#68C3EA"/>
<stop offset="0.6" stop-color="#A2D8F1"/>
<stop offset="1" stop-color="#E1EFF8"/>
</linearGradient>
<linearGradient id="paint85_linear_1125_39617" x1="295.8" y1="428.344" x2="42.0804" y2="36.5986" gradientUnits="userSpaceOnUse">
<stop stop-color="#52BBE8"/>
<stop offset="0.2" stop-color="#68C3EA"/>
<stop offset="0.6" stop-color="#A2D8F1"/>
<stop offset="1" stop-color="#E1EFF8"/>
</linearGradient>
<linearGradient id="paint86_linear_1125_39617" x1="282.714" y1="436.826" x2="28.9808" y2="45.069" gradientUnits="userSpaceOnUse">
<stop stop-color="#52BBE8"/>
<stop offset="0.2" stop-color="#68C3EA"/>
<stop offset="0.6" stop-color="#A2D8F1"/>
<stop offset="1" stop-color="#E1EFF8"/>
</linearGradient>
<linearGradient id="paint87_linear_1125_39617" x1="223.665" y1="475.068" x2="-30.0678" y2="83.3103" gradientUnits="userSpaceOnUse">
<stop stop-color="#52BBE8"/>
<stop offset="0.2" stop-color="#68C3EA"/>
<stop offset="0.6" stop-color="#A2D8F1"/>
<stop offset="1" stop-color="#E1EFF8"/>
</linearGradient>
<linearGradient id="paint88_linear_1125_39617" x1="258.665" y1="452.392" x2="4.93564" y2="60.6368" gradientUnits="userSpaceOnUse">
<stop stop-color="#52BBE8"/>
<stop offset="0.2" stop-color="#68C3EA"/>
<stop offset="0.6" stop-color="#A2D8F1"/>
<stop offset="1" stop-color="#E1EFF8"/>
</linearGradient>
<clipPath id="clip0_1125_39617">
<rect width="254.838" height="378" fill="white" transform="translate(0.932434)"/>
</clipPath>
</defs>
</svg>
