<svg width="100" height="181" viewBox="0 0 100 181" fill="none" xmlns="http://www.w3.org/2000/svg">
<path d="M50.3812 49.0418L67.4691 57.5857V49.0418L50.3812 40.4978V49.0418Z" fill="#7489A4"/>
<path d="M56.5534 38.2438L50.1439 35.04V38.2438L56.5534 41.4475V38.2438Z" fill="#7489A4"/>
<path d="M50.0136 52.6888V52.6741L50.001 52.6804L49.9884 52.6741V52.6888L15.8 69.9448L30.2997 93.7195L49.9884 104.339V104.354L50.001 104.347L50.0136 104.354V104.339L69.7003 93.7195L84.2 69.9448L50.0136 52.6888ZM49.0641 103.016L31.0497 92.9758L16.9617 70.4216L49.0641 54.2182V103.018V103.016ZM67.9566 90.9087L52.9926 98.4274L53.0955 92.6292L64.1814 87.6272L54.0283 61.3567L61.7004 65.2306L70.3893 86.9381L67.9566 90.9087ZM69.4524 78.7072L73.2506 70.9153L77.2106 73.0602L71.6498 84.3731L69.4545 78.7051L69.4524 78.7072Z" fill="#7489A4"/>
<path d="M32.4216 91.8078L37.871 94.5746L25.9448 71.3208L21.7873 73.3775L32.4216 91.8078Z" fill="#7489A4"/>
<path d="M42.0075 96.1333C45.4234 94.9191 45.5894 91.5914 45.5894 87.7596C45.5894 84.6987 44.0306 82.0034 41.6609 80.4236L41.7596 80.3626C44.2554 78.8059 45.9171 76.0371 45.9171 72.8775C45.9171 68.9238 43.3731 65.5877 39.7849 64.4722L27.5939 70.5036L40.392 95.5241L42.0054 96.1333H42.0075Z" fill="#7489A4"/>
<path d="M49.4338 42.0337L34.245 49.6281V56.0502L49.4338 48.4558V42.0337Z" fill="#7489A4"/>
<path d="M49.1964 36.5757L44.686 38.8298V39.9118L49.1964 37.6576V36.5757Z" fill="#7489A4"/>
<path d="M18.7488 124.053C18.109 124.053 17.5798 123.863 17.1597 123.483C16.7379 123.103 16.5279 122.617 16.5279 122.026C16.5279 121.436 16.7347 120.929 17.1452 120.557C17.5573 120.185 18.0913 120 18.7488 120C19.4062 120 19.913 120.185 20.3267 120.557C20.7388 120.929 20.9441 121.418 20.9441 122.026C20.9441 122.601 20.7372 123.082 20.3267 123.47C19.9146 123.858 19.3886 124.053 18.7488 124.053ZM16.8806 140.516V126.332H20.564V140.516H16.8806Z" fill="white"/>
<path d="M29.7244 140.872C26.6279 140.872 25.0805 139.099 25.0805 135.552V129.271H23.0872V126.511L25.2585 126.334L25.6882 122.533H28.7927V126.334H32.274V129.273H28.7927V135.554C28.7927 137.142 29.4309 137.934 30.7089 137.934C31.1307 137.934 31.5925 137.833 32.0976 137.632L32.7038 140.34C31.6438 140.695 30.6512 140.872 29.726 140.872H29.7244Z" fill="white"/>
<path d="M42.1347 134.731L42.1395 140.517H38.4048V133.654L32.802 121.775H36.7644L42.1347 134.732V134.731ZM41.0362 128.814C41.0362 128.814 41.8011 126.895 42.0144 126.332L43.8809 121.772H47.7679L42.6382 132.601L41.0378 128.814H41.0362Z" fill="white"/>
<path d="M50.9713 140.871C49.7253 140.871 48.7167 140.475 47.9437 139.68C47.1692 138.887 46.7828 137.882 46.7828 136.667C46.7828 135.147 47.4258 133.969 48.7135 133.132C50.0011 132.297 52.0665 131.727 54.9096 131.423C54.8422 129.786 54.0437 128.967 52.5123 128.967C51.4684 128.967 50.1727 129.414 48.6253 130.309L47.2879 127.851C49.2891 126.602 51.2567 125.978 53.1922 125.978C54.9753 125.978 56.3255 126.505 57.2428 127.561C58.16 128.617 58.617 130.174 58.617 132.234V140.517H55.5895L55.3121 138.998H55.2367C53.7903 140.247 52.368 140.871 50.9729 140.871H50.9713ZM52.1819 137.958C53.0735 137.958 53.9811 137.494 54.908 136.564V133.702C51.8452 134.108 50.3154 134.995 50.3154 136.363C50.3154 137.427 50.9376 137.958 52.1819 137.958Z" fill="white"/>
<path d="M68.4082 140.872C66.4053 140.872 64.7665 140.223 63.4885 138.923C62.1767 137.555 61.5209 135.731 61.5209 133.452C61.5209 131.173 62.2441 129.331 63.6921 127.929C65.0551 126.63 66.7373 125.98 68.7385 125.98C70.2522 125.98 71.6233 126.503 72.8516 127.549L71.0845 129.956C70.3613 129.331 69.6381 129.019 68.9149 129.019C67.8373 129.019 66.9666 129.425 66.3027 130.234C65.6388 131.045 65.3053 132.117 65.3053 133.452C65.3053 134.786 65.634 135.829 66.2899 136.631C66.9457 137.432 67.7876 137.833 68.8139 137.833C69.7375 137.833 70.6563 137.453 71.564 136.693L73.028 139.151C71.7323 140.301 70.1929 140.874 68.4098 140.874L68.4082 140.872Z" fill="white"/>
<path d="M75.701 140.517V120.306H79.3844V125.397L79.2321 128.058C80.7122 126.673 82.1938 125.981 83.6739 125.981C86.5844 125.981 88.0388 127.88 88.0388 131.679V140.519H84.3298V132.136C84.3298 131.055 84.1742 130.292 83.8631 129.843C83.5521 129.397 83.0421 129.171 82.3366 129.171C81.7978 129.171 81.2926 129.308 80.8228 129.577C80.4524 129.797 79.9729 130.195 79.3844 130.768V140.521H75.701V140.517Z" fill="white"/>
<path d="M97.0222 140.872C93.9273 140.872 92.3783 139.099 92.3783 135.552V129.271H90.385V126.511L92.5547 126.334L92.9844 122.533H96.0889V126.334H99.5718V129.273H96.0889V135.554C96.0889 137.142 96.7271 137.934 98.0067 137.934C98.4269 137.934 98.8903 137.833 99.3938 137.632L100 140.34C98.94 140.695 97.9474 140.872 97.0222 140.872Z" fill="white"/>
<path d="M0 140.518V121.774H6.18331C10.6909 121.774 12.9455 123.311 12.9455 126.384C12.9455 127.279 12.7178 128.098 12.264 128.84C11.7925 129.635 11.1704 130.167 10.3974 130.437V130.564C11.4574 130.817 12.2977 131.298 12.9198 132.006C13.5757 132.784 13.9044 133.78 13.9044 134.995C13.9044 136.803 13.2149 138.195 11.8358 139.174C10.5562 140.069 8.83238 140.516 6.66117 140.516H0V140.518ZM3.73468 129.399H5.90429C8.17492 129.399 9.31184 128.581 9.31184 126.941C9.31184 126.131 9.03443 125.541 8.4796 125.169C7.9408 124.815 7.09894 124.638 5.9556 124.638H3.73628V129.399H3.73468ZM3.73468 137.63H6.33404C8.95906 137.63 10.2708 136.677 10.2708 134.768C10.2708 133.046 8.95906 132.185 6.33404 132.185H3.73468V137.63Z" fill="white"/>
</svg>
