<svg width="333" height="101" viewBox="0 0 333 101" fill="none" xmlns="http://www.w3.org/2000/svg">
<g clip-path="url(#clip0_1387_20609)">
<path d="M158.269 38.4136C156.91 38.4136 155.781 38.0257 154.888 37.2471C153.992 36.4684 153.544 35.4766 153.544 34.2687C153.544 33.0607 153.983 32.0245 154.86 31.2636C155.738 30.5057 156.873 30.1267 158.269 30.1267C159.665 30.1267 160.745 30.5057 161.623 31.2636C162.497 32.0245 162.939 33.0252 162.939 34.2687C162.939 35.4411 162.5 36.427 161.623 37.2204C160.745 38.0139 159.625 38.4106 158.269 38.4106V38.4136ZM154.296 72.0791V43.0766H162.132V72.0791H154.296Z" fill="white"/>
<path d="M181.618 72.8045C175.033 72.8045 171.741 69.1806 171.741 61.9271V49.0838H167.501V43.4378L172.119 43.0766L173.033 35.3049H179.636V43.0766H187.042V49.0838H179.636V61.9271C179.636 65.1749 180.995 66.7944 183.713 66.7944C184.609 66.7944 185.591 66.5871 186.665 66.1756L187.953 71.715C185.698 72.4403 183.587 72.8015 181.621 72.8015L181.618 72.8045Z" fill="white"/>
<path d="M208.016 60.2483L208.025 72.079H200.082V58.0426L188.165 33.7505H196.593L208.016 60.2453V60.2483ZM205.681 48.1511C205.681 48.1511 207.307 44.2282 207.761 43.0765L211.731 33.7534H219.997L209.084 55.8961L205.678 48.1511H205.681Z" fill="white"/>
<path d="M226.811 72.8045C224.163 72.8045 222.016 71.9962 220.371 70.3708C218.724 68.7484 217.901 66.6937 217.901 64.2097C217.901 61.1011 219.27 58.6911 222.007 56.9828C224.746 55.2745 229.137 54.108 235.184 53.4863C235.04 50.1378 233.34 48.465 230.085 48.465C227.867 48.465 225.108 49.3799 221.819 51.2095L218.975 46.1853C223.231 43.6303 227.419 42.3542 231.533 42.3542C235.325 42.3542 238.2 43.4319 240.148 45.5902C242.1 47.7485 243.072 50.9342 243.072 55.1442V72.0791H236.632L236.043 68.9734H235.881C232.803 71.5285 229.778 72.8045 226.811 72.8045ZM229.385 66.8477C231.285 66.8477 233.214 65.9003 235.184 63.9995V58.1463C228.671 58.9753 225.415 60.7902 225.415 63.585C225.415 65.7611 226.738 66.8477 229.385 66.8477Z" fill="white"/>
<path d="M263.899 72.8045C259.64 72.8045 256.152 71.4781 253.433 68.8165C250.641 66.0187 249.245 62.2883 249.245 57.6312C249.245 52.9741 250.783 49.2052 253.863 46.3393C256.762 43.6806 260.34 42.3513 264.598 42.3513C267.817 42.3513 270.735 43.4231 273.349 45.5607L269.59 50.4813C268.053 49.2052 266.513 48.5657 264.976 48.5657C262.684 48.5657 260.834 49.3947 259.419 51.0497C258.005 52.7077 257.299 54.9015 257.299 57.6282C257.299 60.355 257.999 62.4896 259.395 64.1269C260.791 65.7671 262.58 66.5872 264.764 66.5872C266.731 66.5872 268.682 65.8115 270.612 64.2571L273.726 69.2813C270.971 71.6321 267.697 72.8016 263.902 72.8016L263.899 72.8045Z" fill="white"/>
<path d="M279.411 72.0792V30.7485H287.247V41.1582L286.925 46.5969C290.073 43.7665 293.224 42.3513 296.372 42.3513C302.56 42.3513 305.656 46.2357 305.656 54.0044V72.0792H297.768V54.937C297.768 52.7254 297.437 51.1651 296.774 50.2473C296.111 49.3355 295.028 48.8766 293.525 48.8766C292.38 48.8766 291.307 49.1549 290.306 49.7056C289.518 50.1556 288.499 50.9668 287.247 52.1392V72.0792H279.411Z" fill="white"/>
<path d="M324.764 72.8045C318.183 72.8045 314.888 69.1806 314.888 61.9271V49.0838H310.648V43.4378L315.262 43.0766L316.177 35.3049H322.779V43.0766H330.189V49.0838H322.779V61.9271C322.779 65.1749 324.139 66.7944 326.86 66.7944C327.753 66.7944 328.738 66.5871 329.812 66.1756L331.1 71.715C328.845 72.4403 326.734 72.8015 324.768 72.8015L324.764 72.8045Z" fill="white"/>
<path d="M118.389 72.079V33.7534H131.543C141.131 33.7534 145.926 36.8947 145.926 43.1801C145.926 45.0098 145.444 46.6855 144.475 48.2014C143.471 49.8268 142.149 50.9133 140.505 51.467V51.7275C142.76 52.2426 144.548 53.2285 145.871 54.6793C147.267 56.2691 147.966 58.3061 147.966 60.79C147.966 64.4879 146.5 67.3331 143.567 69.3374C140.845 71.1701 137.179 72.0849 132.561 72.0849H118.393L118.389 72.079ZM126.336 49.3412H130.95C135.783 49.3412 138.197 47.6685 138.197 44.317C138.197 42.659 137.608 41.4541 136.427 40.6932C135.28 39.9678 133.491 39.6066 131.058 39.6066H126.336V49.3442V49.3412ZM126.336 66.1725H131.865C137.446 66.1725 140.238 64.2244 140.238 60.3193C140.238 56.7991 137.446 55.0345 131.865 55.0345H126.336V66.1695V66.1725Z" fill="white"/>
<path d="M48.6017 21.6384L73.5579 33.6793V21.6384L48.6017 9.59741V21.6384Z" fill="#7589A4"/>
<path d="M57.6159 6.42075L48.255 1.90576V6.42075L57.6159 10.9357V6.42075Z" fill="#7589A4"/>
<path d="M48.0648 26.778V26.7573L48.0464 26.7662L48.028 26.7573V26.778L-1.90285 51.0968L19.2734 84.6024L48.0464 99.5803L76.8193 84.6024L97.9956 51.0968L48.0679 26.778H48.0648ZM46.678 97.7033L20.3687 83.5543L-0.206176 51.7689L46.678 28.9334V97.7062V97.7033ZM74.2697 80.6411L52.4154 91.2372L52.5657 83.0658L68.7563 76.0165L53.928 38.9937L65.1328 44.4531L77.8226 75.0455L74.2697 80.6411ZM76.4542 63.4456L82.0014 52.4646L87.7849 55.4874L79.6635 71.4305L76.4573 63.4427L76.4542 63.4456Z" fill="#7589A4"/>
<path d="M22.3722 81.9083L30.331 85.8075L12.9132 53.0361L6.84133 55.9346L22.3722 81.9083Z" fill="#7589A4"/>
<path d="M36.3721 88.0044C41.3609 86.2932 41.6033 81.6035 41.6033 76.2033C41.6033 71.8896 39.3267 68.0911 35.8659 65.8647L36.0101 65.7788C39.655 63.585 42.0819 59.6829 42.0819 55.2301C42.0819 49.6581 38.3664 44.9566 33.126 43.3845L15.3217 51.8845L34.0127 87.1458L36.3691 88.0044H36.3721Z" fill="#7589A4"/>
<path d="M47.218 11.7617L25.0354 22.4645V31.5151L47.218 20.8124V11.7617Z" fill="#7589A4"/>
<path d="M46.8713 4.07007L40.284 7.24808V8.7734L46.8713 5.59539V4.07007Z" fill="#7589A4"/>
</g>
<defs>
<clipPath id="clip0_1387_20609">
<rect width="333" height="101" fill="white"/>
</clipPath>
</defs>
</svg>
