<?xml version="1.0" encoding="utf-8"?>
<!-- Generator: Adobe Illustrator 28.0.0, SVG Export Plug-In . SVG Version: 6.00 Build 0)  -->
<svg version="1.1" id="Capa_1" xmlns="http://www.w3.org/2000/svg" xmlns:xlink="http://www.w3.org/1999/xlink" x="0px" y="0px"
	 viewBox="0 0 512 512" style="enable-background:new 0 0 512 512;" xml:space="preserve">
<style type="text/css">
	.st0{fill:#FEE158;}
	.st1{fill:#FFB528;}
	.st2{opacity:0.2;fill:#FFB528;}
</style>
<g>
	<path class="st0" d="M512,256c0,68.4-26.6,132.7-75,181s-112.6,75-181,75s-132.7-26.6-181-75S0,324.4,0,256S26.6,123.3,75,75
		S187.6,0,256,0s132.7,26.6,181,75S512,187.6,512,256L512,256z"/>
	<path class="st0" d="M512,256c0,68.4-26.6,132.7-75,181s-112.6,75-181,75V0c68.4,0,132.7,26.6,181,75S512,187.6,512,256z"/>
	<circle class="st1" cx="256" cy="256" r="202"/>
	<path class="st0" d="M332.8,252.9c-3.4-3.4-7-6.3-10.9-8.8c9.2-10.3,14.8-23.9,14.8-38.8c0-15.5-6.1-30.2-17.1-41.2
		c-11-11-25.7-17.1-41.2-17.1H271v-29h-30v29h-66v30h24.5v158H175v30h66v29h30v-29h15.3c36.2,0,65.7-29.5,65.7-65.7
		C352,281.8,345.2,265.3,332.8,252.9L332.8,252.9z M229.5,177h48.9c7.5,0,14.6,3,20,8.3s8.3,12.5,8.3,20c0,15.5-12.5,28.1-27.9,28.3
		h-49.3L229.5,177z M286.3,335h-56.9v-71.4l26.5,0l30.3,0c9.5,0,18.4,3.7,25.2,10.5c6.8,6.8,10.5,15.7,10.5,25.2
		C322,319,306,335,286.3,335L286.3,335z"/>
	<path class="st0" d="M352,299.3c0,36.2-29.5,65.7-65.7,65.7H271v29h-15v-59h30.3c19.7,0,35.7-16,35.7-35.7
		c0-9.5-3.7-18.4-10.5-25.2c-6.8-6.8-15.7-10.5-25.2-10.5l-30.3,0v-30h22.8c15.4-0.2,27.9-12.8,27.9-28.3c0-7.5-3-14.6-8.3-20
		s-12.5-8.3-20-8.3H256v-59h15v29h7.3c15.5,0,30.2,6.1,41.2,17.1c11,11,17.1,25.7,17.1,41.2c0,14.9-5.6,28.5-14.8,38.8
		c3.9,2.5,7.5,5.5,10.9,8.8C345.2,265.3,352,281.8,352,299.3L352,299.3z"/>
	<path class="st2" d="M458,256c0,111.4-90.6,202-202,202V54C367.4,54,458,144.6,458,256z"/>
</g>
</svg>
