<svg width="50" height="51" viewBox="0 0 50 51" fill="none" xmlns="http://www.w3.org/2000/svg">
<g clip-path="url(#clip0_1252_43053)">
<path d="M24.9984 49.9968C38.8046 49.9968 49.9968 38.8046 49.9968 24.9984C49.9968 11.1922 38.8046 0 24.9984 0C11.1922 0 0 11.1922 0 24.9984C0 38.8046 11.1922 49.9968 24.9984 49.9968Z" fill="#2488FF"/>
<path d="M24.9984 46.5487C36.9003 46.5487 46.5487 36.9003 46.5487 24.9984C46.5487 13.0965 36.9003 3.44806 24.9984 3.44806C13.0965 3.44806 3.44806 13.0965 3.44806 24.9984C3.44806 36.9003 13.0965 46.5487 24.9984 46.5487Z" fill="#006DF0"/>
<path d="M25.1234 0C25.4025 1.13893 25.6018 2.29619 25.7182 3.46314C37.6139 3.85966 46.9355 13.8245 46.539 25.7192C46.1425 37.615 36.1776 46.9366 24.2829 46.5401C14.8848 46.2265 6.77435 39.8563 4.24541 30.7997C3.1248 30.9527 1.99448 31.0314 0.86309 31.0336H0.738098C4.07086 44.4314 17.6336 52.5914 31.0314 49.2587C44.4292 45.9259 52.5893 32.3632 49.2565 18.9654C46.4948 7.86695 36.558 0.0581859 25.1234 0Z" fill="#006DF0"/>
<path d="M24.9984 46.5487C36.8996 46.4657 46.4808 36.7498 46.3979 24.8486C46.3171 13.344 37.2142 3.93078 25.7182 3.46637C25.8098 4.31976 25.8572 5.17639 25.8604 6.03409C25.8582 18.5322 16.6272 29.108 4.24434 30.7987C6.84654 40.1095 15.3309 46.5476 24.9984 46.5487Z" fill="#005ECE"/>
<path d="M36.1787 28.4464L24.9984 32.7306L13.8181 28.4464L24.9984 41.3507L36.1787 28.4464Z" fill="#BDDBFF"/>
<path d="M34.5754 25.6104L24.9984 8.646L15.4214 25.6104L24.9984 29.2826L34.5754 25.6104Z" fill="#BDDBFF"/>
</g>
<defs>
<clipPath id="clip0_1252_43053">
<rect width="50" height="50.0022" fill="white"/>
</clipPath>
</defs>
</svg>
