<svg width="36" height="36" viewBox="0 0 36 36" fill="none" xmlns="http://www.w3.org/2000/svg">
<g clip-path="url(#clip0_2483_63892)">
<path d="M28.589 28.5895C34.4374 22.7411 34.4374 13.2589 28.589 7.41051C22.7406 1.5621 13.2585 1.5621 7.41005 7.41051C1.56163 13.2589 1.56163 22.7411 7.41005 28.5895C13.2585 34.4379 22.7406 34.4379 28.589 28.5895Z" fill="#FDB037"/>
<path opacity="0.1" d="M17.9005 1.67414C8.88473 1.72938 1.61939 9.08312 1.67463 18.0989C1.72987 27.1147 9.08203 34.38 18.0994 34.3248C27.1152 34.2695 34.3805 26.9174 34.3253 17.9C34.27 8.88424 26.9179 1.6189 17.9005 1.67414ZM18.082 31.5815C10.5799 31.6273 4.46207 25.5821 4.4163 18.0815C4.37053 10.5794 10.4158 4.46158 17.9163 4.41581C25.4184 4.37004 31.5363 10.4153 31.582 17.9158C31.6278 25.4179 25.5826 31.5358 18.082 31.5815Z" fill="#2A2622"/>
<path d="M17.8912 -0.00161848C7.95046 0.0583605 -0.0598885 8.16657 9.04994e-05 18.1073C0.0600695 28.048 8.16828 36.0584 18.109 35.9984C28.0497 35.9384 36.0601 27.8302 36.0001 17.8895C35.9401 7.94875 27.8319 -0.0615974 17.8912 -0.00161848ZM18.0916 32.9742C9.82086 33.0247 3.0748 26.3607 3.02429 18.0884C2.97378 9.81757 9.63776 3.07151 17.9101 3.02101C26.1809 2.9705 32.927 9.63447 32.9775 17.9068C33.028 26.1776 26.364 32.9237 18.0916 32.9742Z" fill="#FFCC53"/>
<path d="M13.1102 22.5422C12.7329 21.9124 12.6572 20.8628 13.7573 20.7318C14.6728 20.6213 15.6104 21.3174 16.4406 21.712C17.1225 22.0371 17.8769 22.1997 18.7009 22.1997C19.5832 22.1997 20.2903 21.985 20.8238 21.5557C21.3557 21.1264 21.6225 20.5613 21.6225 19.8621C21.6225 19.1629 21.4078 18.6483 20.9801 18.3484C20.5507 18.0485 19.8168 17.8986 18.7766 17.8986H18.09C16.3917 17.8986 15.0974 17.5434 14.2072 16.8347C13.317 16.1261 12.8718 15.0969 12.8718 13.7474C12.8718 12.3979 13.3075 11.4051 14.1772 10.6759C15.0469 9.94664 16.2685 9.58203 17.8422 9.58203C18.483 9.58203 19.1365 9.68936 19.8026 9.90402C21.1868 10.3507 23.3792 11.4398 22.9941 12.8477C22.388 15.0701 20.0172 12.1438 19.1649 11.7776C18.6661 11.5629 18.079 11.4556 17.405 11.4556C16.6221 11.4556 15.9923 11.6624 15.5125 12.0775C15.0342 12.4926 14.7943 13.0198 14.7943 13.659C14.7943 14.2983 15.039 14.7386 15.5314 15.007C16.0223 15.2769 17.0798 15.4316 18.7024 15.471C20.4339 15.5215 21.6998 15.883 22.4985 16.557C23.2971 17.2309 23.6965 18.2727 23.6965 19.6822C23.6965 21.0917 23.2545 22.1097 22.3722 22.9195C21.4899 23.7292 20.2998 24.1332 18.8003 24.1332C18.3252 24.1332 17.798 24.0812 17.2156 23.9754C16.005 23.7576 14.1866 23.7686 13.3106 22.8105C13.2333 22.7253 13.167 22.6369 13.1118 22.5438L13.1102 22.5422Z" fill="#FFCC53"/>
<path d="M18.3094 27.6859H18.2905C17.7728 27.6859 17.3545 27.2013 17.3545 26.6031V8.13747C17.3545 7.53925 17.7743 7.05469 18.2905 7.05469H18.3094C18.8271 7.05469 19.2454 7.53925 19.2454 8.13747V26.6015C19.2454 27.1997 18.8256 27.6843 18.3094 27.6843V27.6859Z" fill="#FFCC53"/>
</g>
<defs>
<clipPath id="clip0_2483_63892">
<rect width="36" height="36" fill="white"/>
</clipPath>
</defs>
</svg>
