<svg width="50" height="51" viewBox="0 0 50 51" fill="none" xmlns="http://www.w3.org/2000/svg">
<g clip-path="url(#clip0_1252_43102)">
<path d="M24.9984 49.9968C38.8046 49.9968 49.9968 38.8046 49.9968 24.9984C49.9968 11.1922 38.8046 0 24.9984 0C11.1922 0 0 11.1922 0 24.9984C0 38.8046 11.1922 49.9968 24.9984 49.9968Z" fill="#9BC9FF"/>
<path d="M24.9984 46.5487C36.9003 46.5487 46.5487 36.9002 46.5487 24.9983C46.5487 13.0964 36.9003 3.448 24.9984 3.448C13.0965 3.448 3.44806 13.0964 3.44806 24.9983C3.44806 36.9002 13.0965 46.5487 24.9984 46.5487Z" fill="#57A4FF"/>
<path d="M25.1234 0C25.4025 1.13893 25.6018 2.29619 25.7182 3.46314C37.6139 3.85966 46.9355 13.8245 46.539 25.7192C46.1425 37.615 36.1776 46.9366 24.2829 46.5401C14.8848 46.2265 6.77435 39.8563 4.24541 30.7997C3.1248 30.9527 1.99448 31.0314 0.86309 31.0336H0.738098C4.07086 44.4314 17.6336 52.5914 31.0314 49.2587C44.4292 45.9259 52.5893 32.3632 49.2565 18.9654C46.4948 7.86695 36.558 0.0581859 25.1234 0Z" fill="#57A4FF"/>
<path d="M24.9984 46.5488C36.8996 46.4658 46.4808 36.7498 46.3979 24.8487C46.3171 13.344 37.2142 3.93084 25.7182 3.46643C25.8098 4.31982 25.8572 5.17645 25.8604 6.03415C25.8582 18.5323 16.6272 29.1081 4.24434 30.7987C6.84654 40.1095 15.3309 46.5477 24.9984 46.5488Z" fill="#2488FF"/>
<path d="M24.2915 35.2865C22.5427 34.9858 21.1527 33.6508 20.781 31.9149C20.7163 31.6121 20.6851 31.304 20.6883 30.9947C20.7163 30.2566 20.253 29.5886 19.5515 29.3569L19.3425 29.2922C18.4891 29.0272 17.5818 29.5034 17.3157 30.3579C17.2737 30.4926 17.25 30.6327 17.2435 30.7738V31.0324C17.2435 34.654 19.7476 37.7938 23.2776 38.6009V40.5146C23.2776 41.4671 24.0512 42.2375 25.0038 42.2365C25.9541 42.2365 26.7256 41.4649 26.7256 40.5146V38.6009C30.9053 37.6592 33.5312 33.5075 32.5895 29.3278C31.7921 25.7882 28.649 23.2743 25.021 23.2743C23.4565 23.3336 21.991 22.5093 21.2282 21.1419C20.0332 19.0698 20.7433 16.4213 22.8153 15.2263C24.8874 14.0314 27.5359 14.7415 28.7309 16.8135C28.9583 17.2079 29.122 17.6357 29.2169 18.0818C29.2804 18.3845 29.3117 18.6927 29.3084 19.002C29.2804 19.7401 29.7438 20.4081 30.4452 20.6398L30.6532 20.7044C31.5066 20.9727 32.4149 20.4986 32.6832 19.6463C32.7263 19.5095 32.7511 19.3672 32.7565 19.2239C32.7565 19.1377 32.7608 19.0515 32.7608 18.9653C32.7608 15.3438 30.2567 12.2039 26.7267 11.3969V9.48318C26.7267 8.53066 25.9552 7.75916 25.0027 7.75916C24.0502 7.75916 23.2787 8.53066 23.2787 9.48318V11.3969C19.099 12.3386 16.4731 16.4903 17.4148 20.67C18.2111 24.2064 21.3499 26.7191 24.9747 26.7234C26.5392 26.6642 28.0047 27.4885 28.7675 28.8558C29.9463 30.9505 29.2039 33.6034 27.1092 34.7822C26.2537 35.2638 25.2602 35.4416 24.2905 35.2875L24.2915 35.2865Z" fill="white"/>
<path d="M34.5495 36.0989C33.8718 36.6657 33.7274 37.6505 34.2144 38.3886C34.7359 39.1806 35.8005 39.4004 36.5925 38.8789C36.6431 38.8455 36.6916 38.8099 36.739 38.7712C44.3463 32.2931 45.2611 20.8747 38.7831 13.2685C38.157 12.5336 37.4739 11.8505 36.739 11.2244C36.0063 10.6221 34.9245 10.7277 34.3222 11.4604C34.2834 11.5078 34.2478 11.5563 34.2144 11.607C33.7284 12.344 33.8718 13.3299 34.5495 13.8967C40.6806 19.156 41.3874 28.3893 36.1281 34.5203C35.6432 35.086 35.1152 35.614 34.5495 36.0989Z" fill="white"/>
<path d="M13.2578 38.7712C13.9905 39.3735 15.0723 39.2679 15.6746 38.5352C15.7134 38.4878 15.749 38.4393 15.7824 38.3887C16.2683 37.6517 16.125 36.6657 15.4473 36.099C9.31621 30.8396 8.60936 21.6064 13.8687 15.4753C14.3536 14.9096 14.8816 14.3816 15.4473 13.8967C16.125 13.33 16.2694 12.3451 15.7824 11.607C15.2609 10.815 14.1963 10.5952 13.4043 11.1167C13.3537 11.1501 13.3052 11.1857 13.2578 11.2245C5.6505 17.7025 4.73569 29.121 11.2137 36.7272C11.8398 37.462 12.5229 38.1452 13.2578 38.7712Z" fill="white"/>
</g>
<defs>
<clipPath id="clip0_1252_43102">
<rect width="50" height="50.0022" fill="white"/>
</clipPath>
</defs>
</svg>
