<svg width="20" height="16" viewBox="0 0 20 16" fill="none" xmlns="http://www.w3.org/2000/svg">
<path d="M11.3536 12.3536C11.5488 12.1583 11.5488 11.8417 11.3536 11.6464L8.17157 8.46447C7.97631 8.2692 7.65973 8.2692 7.46447 8.46447C7.2692 8.65973 7.2692 8.97631 7.46447 9.17157L10.2929 12L7.46447 14.8284C7.2692 15.0237 7.2692 15.3403 7.46447 15.5355C7.65973 15.7308 7.97631 15.7308 8.17157 15.5355L11.3536 12.3536ZM-4.37113e-08 12.5L11 12.5L11 11.5L4.37113e-08 11.5L-4.37113e-08 12.5Z" fill="#7589A4"/>
<path d="M8.64645 3.64645C8.45118 3.84171 8.45118 4.15829 8.64645 4.35355L11.8284 7.53553C12.0237 7.7308 12.3403 7.7308 12.5355 7.53553C12.7308 7.34027 12.7308 7.02369 12.5355 6.82843L9.70711 4L12.5355 1.17157C12.7308 0.97631 12.7308 0.659728 12.5355 0.464465C12.3403 0.269203 12.0237 0.269203 11.8284 0.464465L8.64645 3.64645ZM20 3.5L9 3.5L9 4.5L20 4.5L20 3.5Z" fill="#7589A4"/>
</svg>
