<svg width="50" height="51" viewBox="0 0 50 51" fill="none" xmlns="http://www.w3.org/2000/svg">
<g clip-path="url(#clip0_1252_43069)">
<path d="M24.9984 49.9968C38.8046 49.9968 49.9968 38.8046 49.9968 24.9984C49.9968 11.1922 38.8046 0 24.9984 0C11.1922 0 0 11.1922 0 24.9984C0 38.8046 11.1922 49.9968 24.9984 49.9968Z" fill="#00EED1"/>
<path d="M24.9984 46.5487C36.9003 46.5487 46.5487 36.9003 46.5487 24.9984C46.5487 13.0965 36.9003 3.44806 24.9984 3.44806C13.0965 3.44806 3.44806 13.0965 3.44806 24.9984C3.44806 36.9003 13.0965 46.5487 24.9984 46.5487Z" fill="#00DDC2"/>
<path d="M25.1234 0C25.4025 1.13893 25.6018 2.29619 25.7182 3.46314C37.6139 3.85966 46.9355 13.8245 46.539 25.7192C46.1425 37.615 36.1776 46.9366 24.2829 46.5401C14.8848 46.2265 6.77435 39.8563 4.24541 30.7997C3.1248 30.9527 1.99448 31.0314 0.86309 31.0336H0.738098C4.07086 44.4314 17.6336 52.5914 31.0314 49.2587C44.4292 45.9259 52.5893 32.3632 49.2565 18.9654C46.4948 7.86695 36.558 0.0581859 25.1234 0Z" fill="#00DDC2"/>
<path d="M24.9984 46.5487C36.8996 46.4657 46.4808 36.7498 46.3979 24.8486C46.3171 13.344 37.2142 3.93078 25.7182 3.46637C25.8098 4.31976 25.8572 5.17639 25.8604 6.03409C25.8582 18.5322 16.6272 29.108 4.24434 30.7986C6.84654 40.1095 15.3309 46.5476 24.9984 46.5487Z" fill="#00CCB3"/>
<path d="M32.7565 13.7922H17.2403C15.8126 13.7922 14.6542 14.9506 14.6542 16.3783C14.6542 17.806 15.8126 18.9643 17.2403 18.9643H22.4123V37.0666C22.4123 38.4943 23.5707 39.6526 24.9984 39.6526C26.4261 39.6526 27.5844 38.4943 27.5844 37.0666V18.9643H32.7565C34.1842 18.9643 35.3425 17.806 35.3425 16.3783C35.3425 14.9506 34.1842 13.7922 32.7565 13.7922Z" fill="#F1F2F2"/>
<path d="M24.9984 31.0325C24.1256 31.0325 23.2345 31.0002 22.3498 30.9355C17.7973 30.609 12.9302 29.3311 12.9302 26.7224C12.9302 24.924 15.3934 23.4985 19.6905 22.8121C20.1625 22.7507 20.5946 23.0836 20.656 23.5556C20.7152 24.0081 20.4103 24.4284 19.9621 24.5135C15.9903 25.1492 14.6542 26.2957 14.6542 26.7224C14.6542 27.412 17.2672 28.843 22.4738 29.2158C24.1547 29.3386 25.841 29.3386 27.5219 29.2158C32.7306 28.843 35.3425 27.4163 35.3425 26.7224C35.3425 26.2968 34.0053 25.1492 30.0347 24.5135C29.567 24.4241 29.26 23.9726 29.3494 23.5049C29.4345 23.0567 29.8547 22.7528 30.3073 22.811C34.6034 23.4974 37.0676 24.923 37.0676 26.7213C37.0676 29.3311 32.2005 30.6079 27.6469 30.9344C26.7633 30.998 25.8733 31.0314 24.9995 31.0314L24.9984 31.0325Z" fill="#E6E7E8"/>
</g>
<defs>
<clipPath id="clip0_1252_43069">
<rect width="50" height="50.0021" fill="white"/>
</clipPath>
</defs>
</svg>
